<svg width="314" height="173" viewBox="0 0 314 173" fill="none" xmlns="http://www.w3.org/2000/svg">
<mask id="path-1-outside-1_1919_65" maskUnits="userSpaceOnUse" x="22" y="41" width="158" height="64" fill="black">
<rect fill="white" x="22" y="41" width="158" height="64"/>
<path d="M42.2251 49.112L30.1291 49.688C28.6891 49.784 28.2091 50.84 28.4971 52.664C28.9771 55.928 29.2651 59.384 29.5531 63.128C35.6011 61.784 42.3211 60.92 49.5211 60.92C51.7291 60.92 52.9771 61.88 52.9771 63.608C52.9771 65.24 51.7291 66.008 49.6171 66.008C42.6091 66.008 36.0811 66.968 30.0331 68.504C30.2251 72.344 30.2251 76.472 30.2251 80.984C30.2251 81.752 30.5131 81.944 31.0891 81.944C39.4411 81.944 45.3931 81.272 49.0411 79.832C50.9611 78.872 52.4011 79.256 53.2651 80.504C54.2251 81.944 53.6491 83.192 51.8251 83.96C47.0251 86.072 40.1131 87.032 31.0891 87.032C26.7691 87.032 24.6571 85.112 24.8491 80.984C24.8491 69.848 24.4651 61.016 23.4091 54.392C22.3531 48.536 23.5051 45.56 26.8651 45.272L41.8411 44.216C43.9531 44.024 45.1051 44.696 45.3931 46.136C45.7771 48.056 44.6251 49.016 42.2251 49.112ZM64.6846 75.8C64.6846 80.12 66.1246 82.232 68.9086 82.232C72.1726 82.232 75.0526 80.696 77.5486 77.432C79.8526 74.168 81.1006 70.424 81.1006 66.104C81.1006 64.472 80.6206 62.936 79.7566 61.688C78.7006 60.44 77.2606 59.768 75.3406 59.768C72.9406 59.768 70.5406 61.4 68.1406 64.664C65.7406 68.024 64.6846 71.672 64.6846 75.8ZM59.4046 75.8C59.4046 70.424 61.0366 65.72 64.4926 61.304C67.7566 56.984 71.4046 54.68 75.3406 54.68C78.7966 54.68 81.4846 55.832 83.5006 57.944C85.4206 60.056 86.5726 62.744 86.5726 66.008C86.5726 73.496 87.7246 78.968 90.4126 82.328C91.6606 84.056 91.8526 85.4 90.6046 86.264C89.1646 87.224 87.6286 86.84 86.4766 85.208C85.0366 83.384 83.8846 80.888 83.1166 78.008C82.5406 79.064 81.6766 80.312 80.8126 81.464C77.5486 85.4 73.6126 87.32 68.9086 87.32C66.0286 87.32 63.6286 86.456 61.9966 84.536C60.2686 82.616 59.4046 79.64 59.4046 75.8ZM117.288 66.488C117.288 61.88 115.272 59.576 111.24 59.576C108.456 59.576 105.96 60.92 103.944 63.32C101.832 65.912 100.968 69.272 100.968 73.496C100.968 76.184 101.448 78.104 102.6 79.448C103.752 80.792 105.192 81.368 107.016 81.368C109.896 81.368 112.296 80.024 114.408 76.856C116.328 73.88 117.288 70.328 117.288 66.488ZM122.76 79.064C122.76 95.384 117.384 103.544 107.016 103.544C101.832 103.544 98.0881 101.816 95.4961 98.168C94.3441 96.632 94.3441 95.288 95.6881 94.232C96.9361 93.08 98.1841 93.368 99.2401 94.808C101.064 97.4 103.656 98.456 107.016 98.456C113.832 98.456 117.288 92.024 117.288 79.64C117.192 79.64 117 80.024 116.808 80.312C114.504 84.44 111.24 86.456 107.016 86.456C104.04 86.456 101.352 85.4 99.1441 83.096C96.7441 80.984 95.5921 77.72 95.5921 73.496C95.5921 68.024 97.0321 63.512 100.104 59.96C102.984 56.408 106.728 54.488 111.24 54.488C118.824 54.488 122.76 58.52 122.76 66.488V79.064ZM134.468 45.752C134.468 43.544 135.332 42.296 137.156 42.296C138.884 42.296 139.844 43.544 139.844 45.752V83.672C139.844 85.88 138.884 86.936 137.156 86.936C135.332 86.936 134.468 85.88 134.468 83.672V45.752ZM165.155 73.592C160.643 73.592 156.995 73.112 154.499 72.248C154.499 75.32 155.459 77.816 157.283 79.544C159.203 81.368 161.603 82.136 164.675 82.136C166.883 82.136 169.667 81.848 172.835 80.888C174.659 80.312 175.715 80.888 176.195 82.328C176.579 84.056 175.619 85.208 173.699 85.88C171.011 86.84 168.035 87.224 164.675 87.224C159.683 87.224 155.843 85.88 153.251 83C150.467 80.216 149.123 76.472 149.123 71.864C149.123 66.872 150.563 62.648 153.635 59.384C156.515 56.216 160.931 54.488 166.787 54.488C170.243 54.488 173.027 55.64 175.331 57.368C177.443 59.288 178.691 61.496 178.691 63.992C178.691 67.16 177.443 69.56 175.139 71.096C172.931 72.728 169.571 73.592 165.155 73.592ZM155.171 67.16C157.763 68.12 161.507 68.6 165.923 68.6C168.227 68.6 170.051 68.312 171.395 67.64C172.739 67.064 173.315 65.912 173.315 63.992C173.315 63.032 172.835 61.976 171.875 61.016C170.819 60.056 169.091 59.576 166.787 59.576C162.755 59.576 159.779 60.728 157.667 62.936C156.515 64.184 155.555 65.624 155.171 67.16Z"/>
</mask>
<path d="M42.2251 49.112L30.1291 49.688C28.6891 49.784 28.2091 50.84 28.4971 52.664C28.9771 55.928 29.2651 59.384 29.5531 63.128C35.6011 61.784 42.3211 60.92 49.5211 60.92C51.7291 60.92 52.9771 61.88 52.9771 63.608C52.9771 65.24 51.7291 66.008 49.6171 66.008C42.6091 66.008 36.0811 66.968 30.0331 68.504C30.2251 72.344 30.2251 76.472 30.2251 80.984C30.2251 81.752 30.5131 81.944 31.0891 81.944C39.4411 81.944 45.3931 81.272 49.0411 79.832C50.9611 78.872 52.4011 79.256 53.2651 80.504C54.2251 81.944 53.6491 83.192 51.8251 83.96C47.0251 86.072 40.1131 87.032 31.0891 87.032C26.7691 87.032 24.6571 85.112 24.8491 80.984C24.8491 69.848 24.4651 61.016 23.4091 54.392C22.3531 48.536 23.5051 45.56 26.8651 45.272L41.8411 44.216C43.9531 44.024 45.1051 44.696 45.3931 46.136C45.7771 48.056 44.6251 49.016 42.2251 49.112ZM64.6846 75.8C64.6846 80.12 66.1246 82.232 68.9086 82.232C72.1726 82.232 75.0526 80.696 77.5486 77.432C79.8526 74.168 81.1006 70.424 81.1006 66.104C81.1006 64.472 80.6206 62.936 79.7566 61.688C78.7006 60.44 77.2606 59.768 75.3406 59.768C72.9406 59.768 70.5406 61.4 68.1406 64.664C65.7406 68.024 64.6846 71.672 64.6846 75.8ZM59.4046 75.8C59.4046 70.424 61.0366 65.72 64.4926 61.304C67.7566 56.984 71.4046 54.68 75.3406 54.68C78.7966 54.68 81.4846 55.832 83.5006 57.944C85.4206 60.056 86.5726 62.744 86.5726 66.008C86.5726 73.496 87.7246 78.968 90.4126 82.328C91.6606 84.056 91.8526 85.4 90.6046 86.264C89.1646 87.224 87.6286 86.84 86.4766 85.208C85.0366 83.384 83.8846 80.888 83.1166 78.008C82.5406 79.064 81.6766 80.312 80.8126 81.464C77.5486 85.4 73.6126 87.32 68.9086 87.32C66.0286 87.32 63.6286 86.456 61.9966 84.536C60.2686 82.616 59.4046 79.64 59.4046 75.8ZM117.288 66.488C117.288 61.88 115.272 59.576 111.24 59.576C108.456 59.576 105.96 60.92 103.944 63.32C101.832 65.912 100.968 69.272 100.968 73.496C100.968 76.184 101.448 78.104 102.6 79.448C103.752 80.792 105.192 81.368 107.016 81.368C109.896 81.368 112.296 80.024 114.408 76.856C116.328 73.88 117.288 70.328 117.288 66.488ZM122.76 79.064C122.76 95.384 117.384 103.544 107.016 103.544C101.832 103.544 98.0881 101.816 95.4961 98.168C94.3441 96.632 94.3441 95.288 95.6881 94.232C96.9361 93.08 98.1841 93.368 99.2401 94.808C101.064 97.4 103.656 98.456 107.016 98.456C113.832 98.456 117.288 92.024 117.288 79.64C117.192 79.64 117 80.024 116.808 80.312C114.504 84.44 111.24 86.456 107.016 86.456C104.04 86.456 101.352 85.4 99.1441 83.096C96.7441 80.984 95.5921 77.72 95.5921 73.496C95.5921 68.024 97.0321 63.512 100.104 59.96C102.984 56.408 106.728 54.488 111.24 54.488C118.824 54.488 122.76 58.52 122.76 66.488V79.064ZM134.468 45.752C134.468 43.544 135.332 42.296 137.156 42.296C138.884 42.296 139.844 43.544 139.844 45.752V83.672C139.844 85.88 138.884 86.936 137.156 86.936C135.332 86.936 134.468 85.88 134.468 83.672V45.752ZM165.155 73.592C160.643 73.592 156.995 73.112 154.499 72.248C154.499 75.32 155.459 77.816 157.283 79.544C159.203 81.368 161.603 82.136 164.675 82.136C166.883 82.136 169.667 81.848 172.835 80.888C174.659 80.312 175.715 80.888 176.195 82.328C176.579 84.056 175.619 85.208 173.699 85.88C171.011 86.84 168.035 87.224 164.675 87.224C159.683 87.224 155.843 85.88 153.251 83C150.467 80.216 149.123 76.472 149.123 71.864C149.123 66.872 150.563 62.648 153.635 59.384C156.515 56.216 160.931 54.488 166.787 54.488C170.243 54.488 173.027 55.64 175.331 57.368C177.443 59.288 178.691 61.496 178.691 63.992C178.691 67.16 177.443 69.56 175.139 71.096C172.931 72.728 169.571 73.592 165.155 73.592ZM155.171 67.16C157.763 68.12 161.507 68.6 165.923 68.6C168.227 68.6 170.051 68.312 171.395 67.64C172.739 67.064 173.315 65.912 173.315 63.992C173.315 63.032 172.835 61.976 171.875 61.016C170.819 60.056 169.091 59.576 166.787 59.576C162.755 59.576 159.779 60.728 157.667 62.936C156.515 64.184 155.555 65.624 155.171 67.16Z" fill="#FFE600"/>
<path d="M42.2251 49.112L42.1852 48.1128L42.1776 48.1131L42.2251 49.112ZM30.1291 49.688L30.0816 48.6891L30.0721 48.6896L30.0626 48.6902L30.1291 49.688ZM28.4971 52.664L29.4865 52.5185L29.4849 52.508L28.4971 52.664ZM29.5531 63.128L28.5561 63.2047L28.6445 64.3543L29.7701 64.1042L29.5531 63.128ZM30.0331 68.504L29.787 67.5348L28.9935 67.7363L29.0344 68.5539L30.0331 68.504ZM49.0411 79.832L49.4083 80.7622L49.4491 80.746L49.4883 80.7264L49.0411 79.832ZM53.2651 80.504L54.0972 79.9493L54.0923 79.942L54.0873 79.9348L53.2651 80.504ZM51.8251 83.96L51.4371 83.0384L51.4297 83.0415L51.4224 83.0447L51.8251 83.96ZM24.8491 80.984L25.848 81.0305L25.8491 81.0072V80.984H24.8491ZM23.4091 54.392L24.3967 54.2346L24.3951 54.2245L24.3933 54.2145L23.4091 54.392ZM26.8651 45.272L26.7948 44.2745L26.7873 44.275L26.7797 44.2757L26.8651 45.272ZM41.8411 44.216L41.9115 45.2135L41.9216 45.2128L41.9317 45.2119L41.8411 44.216ZM45.3931 46.136L44.4125 46.3321L44.4125 46.3321L45.3931 46.136ZM42.1776 48.1131L30.0816 48.6891L30.1767 50.6869L42.2727 50.1109L42.1776 48.1131ZM30.0626 48.6902C29.0776 48.7559 28.2398 49.1849 27.7793 50.064C27.3662 50.8526 27.3535 51.8329 27.5094 52.82L29.4849 52.508C29.3527 51.6711 29.4361 51.2114 29.551 50.992C29.6185 50.8631 29.7407 50.7161 30.1956 50.6858L30.0626 48.6902ZM27.5078 52.8095C27.9821 56.035 28.268 59.4592 28.5561 63.2047L30.5502 63.0513C30.2623 59.3088 29.9721 55.821 29.4865 52.5185L27.5078 52.8095ZM29.7701 64.1042C35.7539 62.7744 42.401 61.92 49.5211 61.92V59.92C42.2413 59.92 35.4484 60.7936 29.3362 62.1518L29.7701 64.1042ZM49.5211 61.92C50.4996 61.92 51.115 62.1353 51.4643 62.4062C51.7755 62.6475 51.9771 63.0094 51.9771 63.608H53.9771C53.9771 62.4786 53.5548 61.4965 52.69 60.8258C51.8632 60.1847 50.7507 59.92 49.5211 59.92V61.92ZM51.9771 63.608C51.9771 64.1295 51.7998 64.4054 51.5226 64.596C51.1846 64.8284 50.5792 65.008 49.6171 65.008V67.008C50.767 67.008 51.8417 66.8036 52.6557 66.244C53.5305 65.6426 53.9771 64.7185 53.9771 63.608H51.9771ZM49.6171 65.008C42.5167 65.008 35.9057 65.9808 29.787 67.5348L30.2793 69.4732C36.2565 67.9552 42.7016 67.008 49.6171 67.008V65.008ZM29.0344 68.5539C29.2249 72.3642 29.2251 76.4659 29.2251 80.984H31.2251C31.2251 76.478 31.2254 72.3238 31.0319 68.4541L29.0344 68.5539ZM29.2251 80.984C29.2251 81.4457 29.3021 82.0272 29.734 82.4591C30.1713 82.8963 30.737 82.944 31.0891 82.944V80.944C31.044 80.944 31.013 80.9421 30.9932 80.9399C30.9732 80.9378 30.97 80.9361 30.9788 80.9385C30.9881 80.9411 31.0123 80.9488 31.0445 80.9665C31.0779 80.9849 31.1141 81.0108 31.1482 81.0449C31.1822 81.0789 31.206 81.1129 31.2214 81.1407C31.2363 81.1675 31.2409 81.1841 31.2406 81.1833C31.2403 81.1821 31.2361 81.1666 31.2322 81.1322C31.2282 81.0979 31.2251 81.0495 31.2251 80.984H29.2251ZM31.0891 82.944C39.4506 82.944 45.5697 82.2774 49.4083 80.7622L48.674 78.9018C45.2165 80.2666 39.4316 80.944 31.0891 80.944V82.944ZM49.4883 80.7264C50.3182 80.3115 50.9337 80.2425 51.3658 80.3231C51.7784 80.4 52.1387 80.6337 52.4429 81.0732L54.0873 79.9348C53.5276 79.1263 52.7358 78.544 51.7324 78.3569C50.7485 78.1735 49.684 78.3925 48.5939 78.9376L49.4883 80.7264ZM52.4331 81.0587C52.784 81.5851 52.7521 81.8984 52.67 82.0901C52.563 82.3397 52.2347 82.7025 51.4371 83.0384L52.2132 84.8816C53.2395 84.4495 54.1112 83.8043 54.5083 82.8779C54.9301 81.8936 54.7062 80.8629 54.0972 79.9493L52.4331 81.0587ZM51.4224 83.0447C46.8156 85.0717 40.0721 86.032 31.0891 86.032V88.032C40.1541 88.032 47.2347 87.0723 52.2279 84.8753L51.4224 83.0447ZM31.0891 86.032C29.051 86.032 27.7464 85.5756 26.9674 84.8325C26.2079 84.1078 25.7598 82.9279 25.848 81.0305L23.8502 80.9375C23.7465 83.1681 24.2584 85.0122 25.5868 86.2795C26.8959 87.5284 28.8073 88.032 31.0891 88.032V86.032ZM25.8491 80.984C25.8491 69.8386 25.4658 60.9407 24.3967 54.2346L22.4216 54.5494C23.4645 61.0913 23.8491 69.8574 23.8491 80.984H25.8491ZM24.3933 54.2145C23.8745 51.3376 23.9388 49.3517 24.4156 48.1C24.6456 47.4964 24.9637 47.0833 25.3481 46.8032C25.7355 46.5208 26.253 46.3281 26.9505 46.2683L26.7797 44.2757C25.7973 44.3599 24.9107 44.6472 24.1702 45.1868C23.4266 45.7287 22.8927 46.4796 22.5466 47.388C21.8715 49.1602 21.8878 51.5904 22.425 54.5695L24.3933 54.2145ZM26.9355 46.2695L41.9115 45.2135L41.7708 43.2185L26.7948 44.2745L26.9355 46.2695ZM41.9317 45.2119C42.888 45.125 43.4758 45.251 43.8185 45.4398C44.1144 45.6028 44.3182 45.8604 44.4125 46.3321L46.3737 45.9399C46.18 44.9716 45.6639 44.1731 44.7837 43.6882C43.9504 43.229 42.9063 43.115 41.7506 43.2201L41.9317 45.2119ZM44.4125 46.3321C44.5578 47.0585 44.3866 47.3802 44.1796 47.5688C43.8998 47.8238 43.3012 48.0682 42.1852 48.1128L42.2651 50.1112C43.549 50.0598 44.7264 49.7762 45.5266 49.0472C46.3996 48.2518 46.6124 47.1335 46.3737 45.9399L44.4125 46.3321ZM77.5486 77.432L78.343 78.0394L78.3546 78.0243L78.3656 78.0087L77.5486 77.432ZM79.7566 61.688L80.5788 61.1188L80.5513 61.079L80.52 61.0421L79.7566 61.688ZM68.1406 64.664L67.3349 64.0716L67.3269 64.0828L68.1406 64.664ZM64.4926 61.304L65.2801 61.9203L65.2854 61.9136L65.2905 61.9068L64.4926 61.304ZM83.5006 57.944L84.2406 57.2713L84.2324 57.2623L84.224 57.2535L83.5006 57.944ZM90.4126 82.328L91.2233 81.7425L91.2089 81.7225L91.1935 81.7033L90.4126 82.328ZM90.6046 86.264L91.1593 87.096L91.1666 87.0912L91.1738 87.0862L90.6046 86.264ZM86.4766 85.208L87.2936 84.6313L87.2781 84.6094L87.2615 84.5884L86.4766 85.208ZM83.1166 78.008L84.0829 77.7503L83.4377 75.331L82.2387 77.5291L83.1166 78.008ZM80.8126 81.464L81.5824 82.1023L81.598 82.0835L81.6126 82.064L80.8126 81.464ZM61.9966 84.536L62.7586 83.8884L62.7494 83.8776L62.7399 83.867L61.9966 84.536ZM63.6846 75.8C63.6846 78.0399 64.0523 79.8809 64.9191 81.1885C65.8333 82.5675 67.2211 83.232 68.9086 83.232V81.232C67.8122 81.232 67.0879 80.8405 66.5861 80.0835C66.037 79.2551 65.6846 77.8801 65.6846 75.8H63.6846ZM68.9086 83.232C72.5464 83.232 75.6992 81.4968 78.343 78.0394L76.7543 76.8245C74.4061 79.8952 71.7988 81.232 68.9086 81.232V83.232ZM78.3656 78.0087C80.7879 74.5771 82.1006 70.6319 82.1006 66.104H80.1006C80.1006 70.2161 78.9174 73.7589 76.7317 76.8553L78.3656 78.0087ZM82.1006 66.104C82.1006 64.2762 81.5629 62.5402 80.5788 61.1188L78.9344 62.2572C79.6784 63.3318 80.1006 64.6678 80.1006 66.104H82.1006ZM80.52 61.0421C79.2576 59.5502 77.5285 58.768 75.3406 58.768V60.768C76.9928 60.768 78.1436 61.3298 78.9932 62.3339L80.52 61.0421ZM75.3406 58.768C72.4551 58.768 69.7952 60.7257 67.335 64.0716L68.9463 65.2564C71.286 62.0743 73.4262 60.768 75.3406 60.768V58.768ZM67.3269 64.0828C64.7947 67.6279 63.6846 71.4835 63.6846 75.8H65.6846C65.6846 71.8605 66.6866 68.4201 68.9544 65.2452L67.3269 64.0828ZM60.4046 75.8C60.4046 70.6539 61.9577 66.1656 65.2801 61.9203L63.7051 60.6877C60.1155 65.2744 58.4046 70.1941 58.4046 75.8H60.4046ZM65.2905 61.9068C68.4537 57.7203 71.8401 55.68 75.3406 55.68V53.68C70.9692 53.68 67.0596 56.2477 63.6948 60.7012L65.2905 61.9068ZM75.3406 55.68C78.5496 55.68 80.9674 56.7384 82.7773 58.6345L84.224 57.2535C82.0019 54.9256 79.0437 53.68 75.3406 53.68V55.68ZM82.7607 58.6167C84.5186 60.5504 85.5726 63.0005 85.5726 66.008H87.5726C87.5726 62.4875 86.3226 59.5616 84.2406 57.2713L82.7607 58.6167ZM85.5726 66.008C85.5726 73.5396 86.7189 79.3116 89.6318 82.9527L91.1935 81.7033C88.7303 78.6244 87.5726 73.4524 87.5726 66.008H85.5726ZM89.6019 82.9135C90.1892 83.7265 90.4195 84.3103 90.4473 84.6925C90.4675 84.9702 90.3935 85.1939 90.0354 85.4418L91.1738 87.0862C92.0638 86.4701 92.5178 85.5898 92.442 84.5475C92.3738 83.6097 91.8841 82.6575 91.2233 81.7425L89.6019 82.9135ZM90.0499 85.4319C89.5286 85.7795 89.0723 85.8388 88.679 85.7388C88.2648 85.6335 87.775 85.3133 87.2936 84.6313L85.6597 85.7847C86.3303 86.7347 87.1844 87.4225 88.1862 87.6772C89.2089 87.9372 90.2407 87.7085 91.1593 87.096L90.0499 85.4319ZM87.2615 84.5884C85.9287 82.9001 84.8266 80.5392 84.0829 77.7503L82.1504 78.2657C82.9427 81.2368 84.1446 83.8679 85.6917 85.8276L87.2615 84.5884ZM82.2387 77.5291C81.6974 78.5217 80.8674 79.7244 80.0126 80.864L81.6126 82.064C82.4859 80.8996 83.3839 79.6063 83.9945 78.4869L82.2387 77.5291ZM80.0429 80.8257C76.9525 84.5523 73.2902 86.32 68.9086 86.32V88.32C73.935 88.32 78.1448 86.2477 81.5824 82.1023L80.0429 80.8257ZM68.9086 86.32C66.2286 86.32 64.1474 85.5223 62.7586 83.8884L61.2347 85.1836C63.1098 87.3897 65.8287 88.32 68.9086 88.32V86.32ZM62.7399 83.867C61.2452 82.2062 60.4046 79.5181 60.4046 75.8H58.4046C58.4046 79.7619 59.2921 83.0258 61.2533 85.205L62.7399 83.867ZM103.944 63.32L103.178 62.6768L103.174 62.6825L103.169 62.6883L103.944 63.32ZM102.6 79.448L101.841 80.0988L101.841 80.0988L102.6 79.448ZM114.408 76.856L115.24 77.4107L115.244 77.4044L115.248 77.3981L114.408 76.856ZM95.4961 98.168L96.3113 97.5888L96.3038 97.5783L96.2961 97.568L95.4961 98.168ZM95.6881 94.232L96.3059 95.0183L96.3372 94.9938L96.3664 94.9668L95.6881 94.232ZM99.2401 94.808L100.058 94.2325L100.052 94.2245L100.047 94.2166L99.2401 94.808ZM117.288 79.64H118.288V78.64H117.288V79.64ZM116.808 80.312L115.976 79.7573L115.954 79.7902L115.935 79.8246L116.808 80.312ZM99.1441 83.096L99.8661 82.4041L99.8367 82.3734L99.8048 82.3453L99.1441 83.096ZM100.104 59.96L100.86 60.6142L100.871 60.6021L100.881 60.5898L100.104 59.96ZM118.288 66.488C118.288 64.0602 117.76 62.0526 116.529 60.6455C115.275 59.2129 113.448 58.576 111.24 58.576V60.576C113.065 60.576 114.261 61.0911 115.024 61.9625C115.808 62.8594 116.288 64.3078 116.288 66.488H118.288ZM111.24 58.576C108.1 58.576 105.342 60.1014 103.178 62.6768L104.71 63.9632C106.579 61.7386 108.812 60.576 111.24 60.576V58.576ZM103.169 62.6883C100.858 65.5239 99.9681 69.1429 99.9681 73.496H101.968C101.968 69.4011 102.806 66.3001 104.719 63.9517L103.169 62.6883ZM99.9681 73.496C99.9681 76.2755 100.459 78.4866 101.841 80.0988L103.359 78.7972C102.437 77.7214 101.968 76.0925 101.968 73.496H99.9681ZM101.841 80.0988C103.209 81.6949 104.943 82.368 107.016 82.368V80.368C105.441 80.368 104.295 79.8891 103.359 78.7972L101.841 80.0988ZM107.016 82.368C110.299 82.368 112.984 80.7944 115.24 77.4107L113.576 76.3013C111.608 79.2536 109.493 80.368 107.016 80.368V82.368ZM115.248 77.3981C117.285 74.2409 118.288 70.4955 118.288 66.488H116.288C116.288 70.1605 115.371 73.5191 113.568 76.3139L115.248 77.3981ZM121.76 79.064C121.76 87.1449 120.424 93.0371 117.937 96.8807C115.496 100.652 111.89 102.544 107.016 102.544V104.544C112.51 104.544 116.776 102.356 119.616 97.9673C122.409 93.6509 123.76 87.3031 123.76 79.064H121.76ZM107.016 102.544C102.092 102.544 98.6816 100.925 96.3113 97.5888L94.6809 98.7472C97.4947 102.707 101.572 104.544 107.016 104.544V102.544ZM96.2961 97.568C95.791 96.8945 95.6431 96.3973 95.6555 96.0563C95.6663 95.7593 95.8048 95.4121 96.3059 95.0183L95.0703 93.4457C94.2274 94.1079 93.694 94.9607 93.6568 95.9837C93.6212 96.9627 94.0492 97.9055 94.6961 98.768L96.2961 97.568ZM96.3664 94.9668C96.8364 94.5329 97.1571 94.4958 97.359 94.5322C97.6046 94.5764 97.9823 94.7838 98.4337 95.3994L100.047 94.2166C99.4419 93.3922 98.6676 92.7356 97.7133 92.5638C96.7152 92.3842 95.7878 92.7791 95.0098 93.4972L96.3664 94.9668ZM98.4223 95.3835C100.477 98.3032 103.414 99.456 107.016 99.456V97.456C103.898 97.456 101.651 96.4968 100.058 94.2325L98.4223 95.3835ZM107.016 99.456C110.82 99.456 113.71 97.6208 115.587 94.1697C117.421 90.7965 118.288 85.8939 118.288 79.64H116.288C116.288 85.7701 115.427 90.2755 113.83 93.2143C112.274 96.0752 110.028 97.456 107.016 97.456V99.456ZM117.288 78.64C116.957 78.64 116.73 78.7953 116.649 78.8558C116.55 78.9302 116.479 79.0088 116.438 79.056C116.356 79.1526 116.286 79.2593 116.24 79.3311C116.105 79.5437 116.079 79.603 115.976 79.7573L117.64 80.8667C117.701 80.7759 117.758 80.6824 117.805 80.6049C117.856 80.5205 117.893 80.4595 117.928 80.4049C117.966 80.3447 117.974 80.3374 117.961 80.353C117.955 80.3597 117.916 80.4061 117.846 80.4583C117.809 80.4858 117.748 80.5272 117.663 80.5635C117.578 80.6001 117.449 80.64 117.288 80.64V78.64ZM115.935 79.8246C114.847 81.7734 113.563 83.1709 112.102 84.084C110.646 84.9941 108.962 85.456 107.016 85.456V87.456C109.294 87.456 111.354 86.9099 113.162 85.78C114.965 84.6531 116.465 82.9786 117.681 80.7994L115.935 79.8246ZM107.016 85.456C104.302 85.456 101.878 84.5038 99.8661 82.4041L98.4221 83.7879C100.826 86.2962 103.778 87.456 107.016 87.456V85.456ZM99.8048 82.3453C97.6951 80.4888 96.5921 77.5497 96.5921 73.496H94.5921C94.5921 77.8903 95.7932 81.4792 98.4835 83.8467L99.8048 82.3453ZM96.5921 73.496C96.5921 68.2075 97.9792 63.9457 100.86 60.6142L99.3478 59.3058C96.0851 63.0783 94.5921 67.8405 94.5921 73.496H96.5921ZM100.881 60.5898C103.586 57.2529 107.053 55.488 111.24 55.488V53.488C106.403 53.488 102.382 55.5631 99.3274 59.3302L100.881 60.5898ZM111.24 55.488C114.862 55.488 117.441 56.4482 119.124 58.1941C120.814 59.9464 121.76 62.6552 121.76 66.488H123.76C123.76 62.3528 122.739 59.0616 120.564 56.8059C118.383 54.5438 115.202 53.488 111.24 53.488V55.488ZM121.76 66.488V79.064H123.76V66.488H121.76ZM135.468 45.752C135.468 44.7524 135.668 44.1404 135.926 43.7986C136.146 43.5066 136.495 43.296 137.156 43.296V41.296C135.992 41.296 134.997 41.7094 134.33 42.5934C133.7 43.4276 133.468 44.5436 133.468 45.752H135.468ZM137.156 43.296C137.754 43.296 138.116 43.4977 138.357 43.8088C138.628 44.1581 138.844 44.7735 138.844 45.752H140.844C140.844 44.5225 140.579 43.4099 139.938 42.5832C139.267 41.7183 138.285 41.296 137.156 41.296V43.296ZM138.844 45.752V83.672H140.844V45.752H138.844ZM138.844 83.672C138.844 84.6526 138.628 85.1979 138.384 85.4868C138.165 85.7452 137.808 85.936 137.156 85.936V87.936C138.231 87.936 139.218 87.5988 139.912 86.7772C140.58 85.9861 140.844 84.8994 140.844 83.672H138.844ZM137.156 85.936C136.441 85.936 136.098 85.7373 135.9 85.4969C135.669 85.2159 135.468 84.675 135.468 83.672H133.468C133.468 84.877 133.698 85.9681 134.355 86.7671C135.046 87.6067 136.046 87.936 137.156 87.936V85.936ZM135.468 83.672V45.752H133.468V83.672H135.468ZM154.499 72.248L154.826 71.303L153.499 70.8436V72.248H154.499ZM157.283 79.544L157.972 78.819L157.971 78.818L157.283 79.544ZM172.835 80.888L173.125 81.8451L173.137 81.8416L172.835 80.888ZM176.195 82.328L177.172 82.1111L177.16 82.0607L177.144 82.0118L176.195 82.328ZM173.699 85.88L173.369 84.9361L173.363 84.9383L173.699 85.88ZM153.251 83L153.995 82.331L153.977 82.3115L153.958 82.2929L153.251 83ZM153.635 59.384L154.364 60.0694L154.369 60.0631L154.375 60.0567L153.635 59.384ZM175.331 57.368L176.004 56.6281L175.969 56.5963L175.931 56.568L175.331 57.368ZM175.139 71.096L174.585 70.2639L174.564 70.2774L174.545 70.2918L175.139 71.096ZM155.171 67.16L154.201 66.9175L153.984 67.7866L154.824 68.0977L155.171 67.16ZM171.395 67.64L171.001 66.7209L170.974 66.7324L170.948 66.7456L171.395 67.64ZM171.875 61.016L172.582 60.3089L172.566 60.2921L172.548 60.2761L171.875 61.016ZM157.667 62.936L156.945 62.2448L156.939 62.2512L156.933 62.2577L157.667 62.936ZM165.155 72.592C160.695 72.592 157.172 72.1151 154.826 71.303L154.172 73.193C156.818 74.1089 160.592 74.592 165.155 74.592V72.592ZM153.499 72.248C153.499 75.5323 154.531 78.3141 156.596 80.27L157.971 78.818C156.388 77.3179 155.499 75.1077 155.499 72.248H153.499ZM156.595 80.269C158.749 82.3153 161.422 83.136 164.675 83.136V81.136C161.785 81.136 159.658 80.4207 157.972 78.819L156.595 80.269ZM164.675 83.136C166.971 83.136 169.854 82.8364 173.125 81.845L172.545 79.931C169.481 80.8596 166.796 81.136 164.675 81.136V83.136ZM173.137 81.8416C173.922 81.5935 174.364 81.6519 174.604 81.7617C174.824 81.8622 175.062 82.0915 175.247 82.6442L177.144 82.0118C176.848 81.1245 176.318 80.3458 175.435 79.9423C174.571 79.5481 173.573 79.6065 172.534 79.9344L173.137 81.8416ZM175.219 82.5449C175.357 83.1669 175.244 83.5832 175.005 83.9079C174.739 84.2709 174.228 84.6355 173.369 84.9361L174.03 86.8239C175.091 86.4525 176.02 85.9051 176.617 85.0921C177.243 84.2408 177.417 83.2171 177.172 82.1111L175.219 82.5449ZM173.363 84.9383C170.816 85.8478 167.962 86.224 164.675 86.224V88.224C168.108 88.224 171.206 87.8322 174.036 86.8217L173.363 84.9383ZM164.675 86.224C159.858 86.224 156.335 84.9311 153.995 82.331L152.508 83.669C155.352 86.8289 159.509 88.224 164.675 88.224V86.224ZM153.958 82.2929C151.401 79.7355 150.123 76.2678 150.123 71.864H148.123C148.123 76.6762 149.534 80.6964 152.544 83.7071L153.958 82.2929ZM150.123 71.864C150.123 67.0739 151.499 63.1127 154.364 60.0694L152.907 58.6986C149.627 62.1833 148.123 66.6701 148.123 71.864H150.123ZM154.375 60.0567C157.014 57.1536 161.126 55.488 166.787 55.488V53.488C160.736 53.488 156.016 55.2784 152.895 58.7113L154.375 60.0567ZM166.787 55.488C169.999 55.488 172.577 56.5523 174.731 58.168L175.931 56.568C173.478 54.7277 170.487 53.488 166.787 53.488V55.488ZM174.659 58.1079C176.637 59.9061 177.691 61.8647 177.691 63.992H179.691C179.691 61.1273 178.25 58.6699 176.004 56.6281L174.659 58.1079ZM177.691 63.992C177.691 66.8623 176.581 68.9329 174.585 70.2639L175.694 71.928C178.305 70.1871 179.691 67.4577 179.691 63.992H177.691ZM174.545 70.2918C172.581 71.7434 169.469 72.592 165.155 72.592V74.592C169.674 74.592 173.282 73.7126 175.734 71.9002L174.545 70.2918ZM154.824 68.0977C157.578 69.1177 161.459 69.6 165.923 69.6V67.6C161.556 67.6 157.949 67.1223 155.519 66.2222L154.824 68.0977ZM165.923 69.6C168.286 69.6 170.293 69.309 171.843 68.5344L170.948 66.7456C169.809 67.315 168.169 67.6 165.923 67.6V69.6ZM171.789 68.5591C172.654 68.1884 173.319 67.6043 173.747 66.7814C174.16 65.9858 174.315 65.0397 174.315 63.992H172.315C172.315 64.8643 172.182 65.4542 171.972 65.8586C171.776 66.2357 171.48 66.5156 171.001 66.7209L171.789 68.5591ZM174.315 63.992C174.315 62.6968 173.674 61.4004 172.582 60.3089L171.168 61.7231C171.997 62.5516 172.315 63.3672 172.315 63.992H174.315ZM172.548 60.2761C171.221 59.0692 169.189 58.576 166.787 58.576V60.576C168.994 60.576 170.418 61.0428 171.203 61.7559L172.548 60.2761ZM166.787 58.576C162.554 58.576 159.29 59.7932 156.945 62.2448L158.39 63.6272C160.269 61.6628 162.957 60.576 166.787 60.576V58.576ZM156.933 62.2577C155.721 63.5702 154.642 65.1557 154.201 66.9175L156.142 67.4025C156.469 66.0923 157.31 64.7978 158.402 63.6143L156.933 62.2577Z" fill="#9E9E9E" mask="url(#path-1-outside-1_1919_65)"/>
<mask id="path-3-outside-2_1919_65" maskUnits="userSpaceOnUse" x="164" y="107" width="97" height="62" fill="black">
<rect fill="white" x="164" y="107" width="97" height="62"/>
<path d="M170.995 116.704L171.859 129.088L175.027 129.376C178.579 129.76 181.555 129.28 183.955 127.648C186.259 126.208 187.411 123.904 187.411 120.736C187.411 117.952 186.547 115.84 184.915 114.688C183.187 113.536 180.883 113.152 177.907 113.152L173.587 113.536C171.667 113.632 170.899 114.784 170.995 116.704ZM172.339 134.272L173.395 150.304C173.587 152.608 172.531 153.664 170.515 153.376C168.979 153.184 168.211 152.032 168.019 149.824L165.715 116.8C165.139 111.808 167.347 109.12 171.859 108.64L177.811 108.16C182.131 107.776 185.587 108.832 188.467 110.944C191.251 113.152 192.787 116.32 192.787 120.736C192.787 125.056 190.963 128.608 187.603 131.2C184.243 133.984 179.827 135.136 174.355 134.368L172.339 134.272ZM218.63 132.16C218.63 130.048 218.054 128.224 216.998 126.496C215.846 124.864 214.118 124 211.814 124C208.358 124 205.478 126.016 203.27 129.76C200.966 133.696 199.91 137.824 199.91 142.432C199.91 146.08 201.638 147.712 205.19 147.712C207.974 147.712 210.854 146.08 214.022 142.336C217.094 138.688 218.63 135.328 218.63 132.16ZM205.19 152.8C197.99 152.8 194.534 149.44 194.534 142.432C194.534 136.768 196.07 131.488 199.142 126.496C202.214 121.6 206.438 118.912 211.814 118.912C215.654 118.912 218.63 120.352 220.742 122.848C222.854 125.536 224.102 128.608 224.102 132.16C224.102 136.864 221.894 141.376 217.862 145.984C213.734 150.592 209.51 152.8 205.19 152.8ZM238.46 146.368L240.859 146.752C244.892 147.424 248.156 146.752 250.556 144.64C252.859 142.528 254.012 139.648 254.012 135.904C254.012 128.416 251.516 124.576 246.14 124.576C241.052 124.576 238.46 127.936 238.46 134.56V146.368ZM233.084 134.56C233.084 124.576 237.404 119.488 246.14 119.488C254.972 119.488 259.484 125.056 259.484 136C259.292 141.28 257.564 145.408 254.3 148.48C250.844 151.744 246.428 152.896 240.764 151.744L238.46 151.456V164.608C238.46 166.72 237.5 167.776 235.772 167.776C233.948 167.776 233.084 166.72 233.084 164.512V134.56Z"/>
</mask>
<path d="M170.995 116.704L171.859 129.088L175.027 129.376C178.579 129.76 181.555 129.28 183.955 127.648C186.259 126.208 187.411 123.904 187.411 120.736C187.411 117.952 186.547 115.84 184.915 114.688C183.187 113.536 180.883 113.152 177.907 113.152L173.587 113.536C171.667 113.632 170.899 114.784 170.995 116.704ZM172.339 134.272L173.395 150.304C173.587 152.608 172.531 153.664 170.515 153.376C168.979 153.184 168.211 152.032 168.019 149.824L165.715 116.8C165.139 111.808 167.347 109.12 171.859 108.64L177.811 108.16C182.131 107.776 185.587 108.832 188.467 110.944C191.251 113.152 192.787 116.32 192.787 120.736C192.787 125.056 190.963 128.608 187.603 131.2C184.243 133.984 179.827 135.136 174.355 134.368L172.339 134.272ZM218.63 132.16C218.63 130.048 218.054 128.224 216.998 126.496C215.846 124.864 214.118 124 211.814 124C208.358 124 205.478 126.016 203.27 129.76C200.966 133.696 199.91 137.824 199.91 142.432C199.91 146.08 201.638 147.712 205.19 147.712C207.974 147.712 210.854 146.08 214.022 142.336C217.094 138.688 218.63 135.328 218.63 132.16ZM205.19 152.8C197.99 152.8 194.534 149.44 194.534 142.432C194.534 136.768 196.07 131.488 199.142 126.496C202.214 121.6 206.438 118.912 211.814 118.912C215.654 118.912 218.63 120.352 220.742 122.848C222.854 125.536 224.102 128.608 224.102 132.16C224.102 136.864 221.894 141.376 217.862 145.984C213.734 150.592 209.51 152.8 205.19 152.8ZM238.46 146.368L240.859 146.752C244.892 147.424 248.156 146.752 250.556 144.64C252.859 142.528 254.012 139.648 254.012 135.904C254.012 128.416 251.516 124.576 246.14 124.576C241.052 124.576 238.46 127.936 238.46 134.56V146.368ZM233.084 134.56C233.084 124.576 237.404 119.488 246.14 119.488C254.972 119.488 259.484 125.056 259.484 136C259.292 141.28 257.564 145.408 254.3 148.48C250.844 151.744 246.428 152.896 240.764 151.744L238.46 151.456V164.608C238.46 166.72 237.5 167.776 235.772 167.776C233.948 167.776 233.084 166.72 233.084 164.512V134.56Z" fill="#FFE600"/>
<path d="M170.995 116.704L169.996 116.754L169.996 116.764L169.997 116.774L170.995 116.704ZM171.859 129.088L170.861 129.158L170.92 130.007L171.768 130.084L171.859 129.088ZM175.027 129.376L175.134 128.382L175.126 128.381L175.117 128.38L175.027 129.376ZM183.955 127.648L183.425 126.8L183.408 126.81L183.392 126.821L183.955 127.648ZM184.915 114.688L185.491 113.871L185.481 113.863L185.469 113.856L184.915 114.688ZM177.907 113.152V112.152H177.862L177.818 112.156L177.907 113.152ZM173.587 113.536L173.637 114.535L173.656 114.534L173.675 114.532L173.587 113.536ZM172.339 134.272L172.386 133.273L171.267 133.22L171.341 134.338L172.339 134.272ZM173.395 150.304L172.397 150.37L172.397 150.378L172.398 150.387L173.395 150.304ZM170.515 153.376L170.656 152.386L170.647 152.385L170.639 152.384L170.515 153.376ZM168.019 149.824L167.021 149.894L167.022 149.902L167.023 149.911L168.019 149.824ZM165.715 116.8L166.712 116.73L166.711 116.708L166.708 116.685L165.715 116.8ZM171.859 108.64L171.778 107.643L171.766 107.644L171.753 107.646L171.859 108.64ZM177.811 108.16L177.891 109.157L177.899 109.156L177.811 108.16ZM188.467 110.944L189.088 110.16L189.073 110.149L189.058 110.138L188.467 110.944ZM187.603 131.2L186.992 130.408L186.978 130.419L186.965 130.43L187.603 131.2ZM174.355 134.368L174.494 133.378L174.448 133.371L174.402 133.369L174.355 134.368ZM169.997 116.774L170.861 129.158L172.856 129.018L171.992 116.634L169.997 116.774ZM171.768 130.084L174.936 130.372L175.117 128.38L171.949 128.092L171.768 130.084ZM174.919 130.37C178.613 130.77 181.855 130.285 184.517 128.475L183.392 126.821C181.255 128.275 178.544 128.75 175.134 128.382L174.919 130.37ZM184.485 128.496C187.134 126.84 188.411 124.182 188.411 120.736H186.411C186.411 123.626 185.384 125.576 183.425 126.8L184.485 128.496ZM188.411 120.736C188.411 117.769 187.487 115.28 185.491 113.871L184.338 115.505C185.607 116.4 186.411 118.135 186.411 120.736H188.411ZM185.469 113.856C183.488 112.535 180.935 112.152 177.907 112.152V114.152C180.83 114.152 182.886 114.537 184.36 115.52L185.469 113.856ZM177.818 112.156L173.498 112.54L173.675 114.532L177.995 114.148L177.818 112.156ZM173.537 112.537C172.382 112.595 171.396 112.986 170.745 113.822C170.119 114.628 169.942 115.674 169.996 116.754L171.994 116.654C171.951 115.814 172.111 115.324 172.324 115.05C172.514 114.806 172.872 114.573 173.637 114.535L173.537 112.537ZM171.341 134.338L172.397 150.37L174.393 150.238L173.337 134.206L171.341 134.338ZM172.398 150.387C172.483 151.41 172.267 151.904 172.059 152.122C171.875 152.315 171.489 152.505 170.656 152.386L170.373 154.366C171.557 154.535 172.707 154.341 173.506 153.502C174.283 152.688 174.498 151.502 174.391 150.221L172.398 150.387ZM170.639 152.384C170.128 152.32 169.817 152.121 169.584 151.786C169.319 151.404 169.104 150.764 169.015 149.737L167.023 149.911C167.125 151.092 167.39 152.132 167.941 152.926C168.525 153.767 169.366 154.24 170.391 154.368L170.639 152.384ZM169.016 149.754L166.712 116.73L164.717 116.87L167.021 149.894L169.016 149.754ZM166.708 116.685C166.438 114.341 166.841 112.716 167.671 111.638C168.495 110.567 169.88 109.856 171.965 109.634L171.753 107.646C169.326 107.904 167.35 108.777 166.086 110.418C164.828 112.052 164.416 114.267 164.721 116.915L166.708 116.685ZM171.939 109.637L177.891 109.157L177.73 107.163L171.778 107.643L171.939 109.637ZM177.899 109.156C181.986 108.793 185.199 109.787 187.875 111.75L189.058 110.138C185.975 107.877 182.275 106.759 177.722 107.164L177.899 109.156ZM187.845 111.727C190.361 113.723 191.787 116.586 191.787 120.736H193.787C193.787 116.054 192.14 112.581 189.088 110.16L187.845 111.727ZM191.787 120.736C191.787 124.736 190.115 127.999 186.992 130.408L188.214 131.992C191.811 129.217 193.787 125.376 193.787 120.736H191.787ZM186.965 130.43C183.86 133.002 179.742 134.114 174.494 133.378L174.216 135.358C179.912 136.158 184.625 134.966 188.241 131.97L186.965 130.43ZM174.402 133.369L172.386 133.273L172.291 135.271L174.307 135.367L174.402 133.369ZM216.998 126.496L217.852 125.975L217.834 125.946L217.815 125.919L216.998 126.496ZM203.27 129.76L202.409 129.252L202.407 129.255L203.27 129.76ZM214.022 142.336L214.786 142.982L214.787 142.98L214.022 142.336ZM199.142 126.496L198.295 125.964L198.291 125.972L199.142 126.496ZM220.742 122.848L221.529 122.23L221.517 122.216L221.506 122.202L220.742 122.848ZM217.862 145.984L218.607 146.651L218.615 146.643L217.862 145.984ZM219.63 132.16C219.63 129.847 218.994 127.844 217.852 125.975L216.145 127.017C217.114 128.604 217.63 130.249 217.63 132.16H219.63ZM217.815 125.919C216.454 123.991 214.404 123 211.814 123V125C213.833 125 215.238 125.737 216.181 127.073L217.815 125.919ZM211.814 123C207.892 123 204.731 125.314 202.409 129.252L204.132 130.268C206.225 126.718 208.825 125 211.814 125V123ZM202.407 129.255C200.008 133.353 198.91 137.657 198.91 142.432H200.91C200.91 137.991 201.924 134.039 204.133 130.265L202.407 129.255ZM198.91 142.432C198.91 144.396 199.375 146.026 200.516 147.152C201.655 148.275 203.281 148.712 205.19 148.712V146.712C203.547 146.712 202.534 146.333 201.92 145.728C201.31 145.126 200.91 144.116 200.91 142.432H198.91ZM205.19 148.712C208.405 148.712 211.538 146.82 214.786 142.982L213.259 141.69C210.17 145.34 207.544 146.712 205.19 146.712V148.712ZM214.787 142.98C217.934 139.243 219.63 135.66 219.63 132.16H217.63C217.63 134.996 216.254 138.133 213.257 141.692L214.787 142.98ZM205.19 151.8C201.727 151.8 199.364 150.991 197.86 149.527C196.361 148.069 195.534 145.785 195.534 142.432H193.534C193.534 146.087 194.436 148.987 196.465 150.961C198.489 152.929 201.453 153.8 205.19 153.8V151.8ZM195.534 142.432C195.534 136.961 197.014 131.862 199.994 127.02L198.291 125.972C195.126 131.114 193.534 136.575 193.534 142.432H195.534ZM199.989 127.027C202.913 122.368 206.843 119.912 211.814 119.912V117.912C206.034 117.912 201.516 120.832 198.295 125.965L199.989 127.027ZM211.814 119.912C215.375 119.912 218.066 121.234 219.979 123.494L221.506 122.202C219.194 119.47 215.933 117.912 211.814 117.912V119.912ZM219.956 123.466C221.95 126.004 223.102 128.864 223.102 132.16H225.102C225.102 128.352 223.758 125.068 221.529 122.23L219.956 123.466ZM223.102 132.16C223.102 136.529 221.056 140.815 217.11 145.325L218.615 146.643C222.732 141.937 225.102 137.199 225.102 132.16H223.102ZM217.117 145.317C213.105 149.796 209.131 151.8 205.19 151.8V153.8C209.889 153.8 214.363 151.388 218.607 146.651L217.117 145.317ZM238.46 146.368H237.46V147.221L238.302 147.355L238.46 146.368ZM240.859 146.752L241.024 145.766L241.017 145.765L240.859 146.752ZM250.556 144.64L251.216 145.391L251.224 145.384L251.231 145.377L250.556 144.64ZM259.484 136L260.483 136.036L260.484 136.018V136H259.484ZM254.3 148.48L253.614 147.752L253.613 147.753L254.3 148.48ZM240.764 151.744L240.963 150.764L240.925 150.756L240.888 150.752L240.764 151.744ZM238.46 151.456L238.584 150.464L237.46 150.323V151.456H238.46ZM238.302 147.355L240.702 147.739L241.017 145.765L238.617 145.381L238.302 147.355ZM240.695 147.738C244.92 148.443 248.522 147.762 251.216 145.391L249.895 143.889C247.789 145.742 244.863 146.405 241.024 145.766L240.695 147.738ZM251.231 145.377C253.78 143.041 255.012 139.873 255.012 135.904H253.012C253.012 139.423 251.939 142.015 249.88 143.903L251.231 145.377ZM255.012 135.904C255.012 132.082 254.381 129.009 252.917 126.868C251.405 124.655 249.101 123.576 246.14 123.576V125.576C248.554 125.576 250.186 126.417 251.266 127.996C252.394 129.647 253.012 132.238 253.012 135.904H255.012ZM246.14 123.576C243.356 123.576 241.112 124.509 239.599 126.474C238.123 128.391 237.46 131.144 237.46 134.56H239.46C239.46 131.352 240.092 129.113 241.184 127.694C242.239 126.323 243.835 125.576 246.14 125.576V123.576ZM237.46 134.56V146.368H239.46V134.56H237.46ZM234.084 134.56C234.084 129.69 235.14 126.198 237.093 123.933C239.021 121.696 241.969 120.488 246.14 120.488V118.488C241.574 118.488 237.994 119.824 235.578 122.627C233.187 125.402 232.084 129.446 232.084 134.56H234.084ZM246.14 120.488C250.333 120.488 253.349 121.799 255.346 124.269C257.375 126.778 258.484 130.641 258.484 136H260.484C260.484 130.415 259.336 126.022 256.901 123.011C254.434 119.961 250.778 118.488 246.14 118.488V120.488ZM258.484 135.964C258.3 141.028 256.655 144.89 253.614 147.752L254.985 149.208C258.472 145.926 260.283 141.532 260.483 136.036L258.484 135.964ZM253.613 147.753C250.432 150.757 246.364 151.863 240.963 150.764L240.564 152.724C246.491 153.929 251.255 152.731 254.986 149.207L253.613 147.753ZM240.888 150.752L238.584 150.464L238.335 152.448L240.639 152.736L240.888 150.752ZM237.46 151.456V164.608H239.46V151.456H237.46ZM237.46 164.608C237.46 165.531 237.248 166.051 237.007 166.33C236.787 166.584 236.425 166.776 235.772 166.776V168.776C236.846 168.776 237.828 168.44 238.52 167.638C239.191 166.861 239.46 165.797 239.46 164.608H237.46ZM235.772 166.776C235.057 166.776 234.714 166.577 234.516 166.337C234.285 166.056 234.084 165.515 234.084 164.512H232.084C232.084 165.717 232.314 166.808 232.971 167.607C233.661 168.447 234.662 168.776 235.772 168.776V166.776ZM234.084 164.512V134.56H232.084V164.512H234.084Z" fill="#9E9E9E" mask="url(#path-3-outside-2_1919_65)"/>
</svg>
