<svg width="260" height="159" viewBox="0 0 260 159" fill="none" xmlns="http://www.w3.org/2000/svg">
<path d="M31.8454 43.8393L19.7494 44.4153C18.3094 44.5113 17.8294 45.5673 18.1174 47.3913C18.5974 50.6553 18.8854 54.1113 19.1734 57.8553C25.2214 56.5113 31.9414 55.6473 39.1414 55.6473C41.3494 55.6473 42.5974 56.6073 42.5974 58.3353C42.5974 59.9673 41.3494 60.7353 39.2374 60.7353C32.2294 60.7353 25.7014 61.6953 19.6534 63.2313C19.8454 67.0713 19.8454 71.1993 19.8454 75.7113C19.8454 76.4793 20.1334 76.6713 20.7094 76.6713C29.0614 76.6713 35.0134 75.9993 38.6614 74.5593C40.5814 73.5993 42.0214 73.9833 42.8854 75.2313C43.8454 76.6713 43.2694 77.9193 41.4454 78.6873C36.6454 80.7993 29.7334 81.7593 20.7094 81.7593C16.3894 81.7593 14.2774 79.8393 14.4694 75.7113C14.4694 64.5753 14.0854 55.7433 13.0294 49.1193C11.9734 43.2633 13.1254 40.2873 16.4854 39.9993L31.4614 38.9433C33.5734 38.7513 34.7254 39.4233 35.0134 40.8633C35.3974 42.7833 34.2454 43.7433 31.8454 43.8393ZM54.3049 70.5273C54.3049 74.8473 55.7449 76.9593 58.5289 76.9593C61.7929 76.9593 64.6729 75.4233 67.1689 72.1593C69.4729 68.8953 70.7209 65.1513 70.7209 60.8313C70.7209 59.1993 70.2409 57.6633 69.3769 56.4153C68.3209 55.1673 66.8809 54.4953 64.9609 54.4953C62.5609 54.4953 60.1609 56.1273 57.7609 59.3913C55.3609 62.7513 54.3049 66.3993 54.3049 70.5273ZM49.0249 70.5273C49.0249 65.1513 50.6569 60.4473 54.1129 56.0313C57.3769 51.7113 61.0249 49.4073 64.9609 49.4073C68.4169 49.4073 71.1049 50.5593 73.1209 52.6713C75.0409 54.7833 76.1929 57.4713 76.1929 60.7353C76.1929 68.2233 77.3449 73.6953 80.0329 77.0553C81.2809 78.7833 81.4729 80.1273 80.2249 80.9913C78.7849 81.9513 77.2489 81.5673 76.0969 79.9353C74.6569 78.1113 73.5049 75.6153 72.7369 72.7353C72.1609 73.7913 71.2969 75.0393 70.4329 76.1913C67.1689 80.1273 63.2329 82.0473 58.5289 82.0473C55.6489 82.0473 53.2489 81.1833 51.6169 79.2633C49.8889 77.3433 49.0249 74.3673 49.0249 70.5273ZM106.908 61.2153C106.908 56.6073 104.892 54.3033 100.86 54.3033C98.0764 54.3033 95.5804 55.6473 93.5644 58.0473C91.4524 60.6393 90.5884 63.9993 90.5884 68.2233C90.5884 70.9113 91.0684 72.8313 92.2204 74.1753C93.3724 75.5193 94.8124 76.0953 96.6364 76.0953C99.5164 76.0953 101.916 74.7513 104.028 71.5833C105.948 68.6073 106.908 65.0553 106.908 61.2153ZM112.38 73.7913C112.38 90.1113 107.004 98.2713 96.6364 98.2713C91.4524 98.2713 87.7084 96.5433 85.1164 92.8953C83.9644 91.3593 83.9644 90.0153 85.3084 88.9593C86.5564 87.8073 87.8044 88.0953 88.8604 89.5353C90.6844 92.1273 93.2764 93.1833 96.6364 93.1833C103.452 93.1833 106.908 86.7513 106.908 74.3673C106.812 74.3673 106.62 74.7513 106.428 75.0393C104.124 79.1673 100.86 81.1833 96.6364 81.1833C93.6604 81.1833 90.9724 80.1273 88.7644 77.8233C86.3644 75.7113 85.2124 72.4473 85.2124 68.2233C85.2124 62.7513 86.6524 58.2393 89.7244 54.6873C92.6044 51.1353 96.3484 49.2153 100.86 49.2153C108.444 49.2153 112.38 53.2473 112.38 61.2153V73.7913ZM124.088 40.4793C124.088 38.2713 124.952 37.0233 126.776 37.0233C128.504 37.0233 129.464 38.2713 129.464 40.4793V78.3993C129.464 80.6073 128.504 81.6633 126.776 81.6633C124.952 81.6633 124.088 80.6073 124.088 78.3993V40.4793ZM154.776 68.3193C150.264 68.3193 146.616 67.8393 144.12 66.9753C144.12 70.0473 145.08 72.5433 146.904 74.2713C148.824 76.0953 151.224 76.8633 154.296 76.8633C156.504 76.8633 159.288 76.5753 162.456 75.6153C164.28 75.0393 165.336 75.6153 165.816 77.0553C166.2 78.7833 165.24 79.9353 163.32 80.6073C160.632 81.5673 157.656 81.9513 154.296 81.9513C149.304 81.9513 145.464 80.6073 142.872 77.7273C140.088 74.9433 138.744 71.1993 138.744 66.5913C138.744 61.5993 140.184 57.3753 143.256 54.1113C146.136 50.9433 150.552 49.2153 156.408 49.2153C159.864 49.2153 162.648 50.3673 164.952 52.0953C167.064 54.0153 168.312 56.2233 168.312 58.7193C168.312 61.8873 167.064 64.2873 164.76 65.8233C162.552 67.4553 159.192 68.3193 154.776 68.3193ZM144.792 61.8873C147.384 62.8473 151.128 63.3273 155.544 63.3273C157.848 63.3273 159.672 63.0393 161.016 62.3673C162.36 61.7913 162.936 60.6393 162.936 58.7193C162.936 57.7593 162.456 56.7033 161.496 55.7433C160.44 54.7833 158.712 54.3033 156.408 54.3033C152.376 54.3033 149.4 55.4553 147.288 57.6633C146.136 58.9113 145.176 60.3513 144.792 61.8873Z" fill="#A2A2A2"/>
<path d="M31.8454 43.8393L31.7655 41.8409L31.7579 41.8412L31.7503 41.8415L31.8454 43.8393ZM19.7494 44.4153L19.6543 42.4175L19.6353 42.4184L19.6164 42.4197L19.7494 44.4153ZM18.1174 47.3913L20.0961 47.1003L20.0946 47.0898L20.093 47.0793L18.1174 47.3913ZM19.1734 57.8553L17.1793 58.0087L17.3562 60.3079L19.6073 59.8076L19.1734 57.8553ZM19.6534 63.2313L19.1611 61.2928L17.5742 61.6958L17.6559 63.3311L19.6534 63.2313ZM38.6614 74.5593L39.3958 76.4196L39.4774 76.3874L39.5559 76.3481L38.6614 74.5593ZM42.8854 75.2313L44.5495 74.1219L44.5398 74.1073L44.5298 74.0928L42.8854 75.2313ZM41.4454 78.6873L40.6693 76.844L40.6546 76.8502L40.6399 76.8566L41.4454 78.6873ZM14.4694 75.7113L16.4673 75.8042L16.4694 75.7577V75.7113H14.4694ZM13.0294 49.1193L15.0045 48.8044L15.0013 48.7843L14.9977 48.7643L13.0294 49.1193ZM16.4854 39.9993L16.3447 38.0042L16.3297 38.0053L16.3146 38.0066L16.4854 39.9993ZM31.4614 38.9433L31.6021 40.9383L31.6223 40.9369L31.6425 40.935L31.4614 38.9433ZM35.0134 40.8633L33.0523 41.2555L33.0523 41.2555L35.0134 40.8633ZM31.7503 41.8415L19.6543 42.4175L19.8446 46.413L31.9406 45.837L31.7503 41.8415ZM19.6164 42.4197C18.3663 42.503 17.1707 43.073 16.5138 44.3272C15.9516 45.4005 15.9742 46.6411 16.1419 47.7032L20.093 47.0793C20.0377 46.7296 20.0305 46.4827 20.0427 46.3211C20.055 46.159 20.0828 46.1342 20.0571 46.1833C20.0214 46.2515 19.9473 46.3378 19.8502 46.3941C19.7688 46.4414 19.7539 46.4194 19.8825 46.4108L19.6164 42.4197ZM16.1387 47.6823C16.6074 50.8693 16.8911 54.2616 17.1793 58.0087L21.1675 57.7019C20.8798 53.9609 20.5875 50.4412 20.0961 47.1003L16.1387 47.6823ZM19.6073 59.8076C25.527 58.4922 32.1011 57.6473 39.1414 57.6473V53.6473C31.7817 53.6473 24.9159 54.5304 18.7396 55.9029L19.6073 59.8076ZM39.1414 57.6473C39.9943 57.6473 40.3612 57.8379 40.4718 57.9237C40.5165 57.9584 40.534 57.9848 40.5475 58.0145C40.5637 58.0502 40.5974 58.1451 40.5974 58.3353H44.5974C44.5974 56.9405 44.0648 55.6482 42.9231 54.7628C41.8577 53.9366 40.4965 53.6473 39.1414 53.6473V57.6473ZM40.5974 58.3353C40.5974 58.486 40.5697 58.5261 40.5788 58.5079C40.5909 58.4836 40.6051 58.4794 40.5764 58.4992C40.4763 58.568 40.1057 58.7353 39.2374 58.7353V62.7353C40.4812 62.7353 41.7906 62.5185 42.8425 61.7953C44.0161 60.9885 44.5974 59.7403 44.5974 58.3353H40.5974ZM39.2374 58.7353C32.0445 58.7353 25.3506 59.7209 19.1611 61.2928L20.1457 65.1697C26.0522 63.6697 32.4143 62.7353 39.2374 62.7353V58.7353ZM17.6559 63.3311C17.845 67.1117 17.8454 71.1872 17.8454 75.7113H21.8454C21.8454 71.2114 21.8459 67.0308 21.6509 63.1314L17.6559 63.3311ZM17.8454 75.7113C17.8454 76.2507 17.9274 77.1736 18.6472 77.8935C19.3777 78.624 20.2931 78.6713 20.7094 78.6713V74.6713C20.5497 74.6713 21.0332 74.6226 21.4756 75.0651C21.9075 75.4969 21.8454 75.9399 21.8454 75.7113H17.8454ZM20.7094 78.6713C29.0804 78.6713 35.3666 78.01 39.3958 76.4196L37.9271 72.699C34.6602 73.9885 29.0424 74.6713 20.7094 74.6713V78.6713ZM39.5559 76.3481C40.2556 75.9982 40.6466 76.0043 40.8029 76.0334C40.9201 76.0552 41.0645 76.1147 41.241 76.3697L44.5298 74.0928C43.8423 73.0998 42.8348 72.3433 41.536 72.1011C40.2762 71.8663 38.9872 72.1603 37.767 72.7704L39.5559 76.3481ZM41.2213 76.3407C41.3392 76.5175 41.3487 76.5974 41.3465 76.5836C41.3417 76.5532 41.3444 76.4857 41.3711 76.4234C41.3922 76.3743 41.3957 76.4046 41.2907 76.4925C41.1827 76.583 40.9882 76.7097 40.6693 76.844L42.2215 80.5305C43.3622 80.0502 44.5057 79.2639 45.0477 77.9991C45.6394 76.6184 45.2876 75.229 44.5495 74.1219L41.2213 76.3407ZM40.6399 76.8566C36.2263 78.7986 29.6514 79.7593 20.7094 79.7593V83.7593C29.8155 83.7593 37.0645 82.7999 42.2509 80.5179L40.6399 76.8566ZM20.7094 79.7593C18.7931 79.7593 17.7919 79.3265 17.278 78.8362C16.8029 78.3829 16.3868 77.535 16.4673 75.8042L12.4716 75.6183C12.3601 78.0155 12.9039 80.1916 14.5169 81.7304C16.0909 83.232 18.3057 83.7593 20.7094 83.7593V79.7593ZM16.4694 75.7113C16.4694 64.5565 16.0867 55.5927 15.0045 48.8044L11.0544 49.4341C12.0842 55.8938 12.4694 64.594 12.4694 75.7113H16.4694ZM14.9977 48.7643C14.4881 45.9386 14.5927 44.1748 14.9704 43.1833C15.1423 42.732 15.3525 42.4879 15.5573 42.3386C15.7683 42.1849 16.1012 42.0395 16.6562 41.992L16.3146 38.0066C15.1897 38.103 14.1186 38.4376 13.2015 39.1059C12.2783 39.7787 11.6365 40.6985 11.2324 41.7593C10.4582 43.7918 10.5147 46.444 11.0612 49.4742L14.9977 48.7643ZM16.6261 41.9943L31.6021 40.9383L31.3207 36.9482L16.3447 38.0042L16.6261 41.9943ZM31.6425 40.935C32.4992 40.8572 32.8588 40.9893 32.9562 41.0429C32.9767 41.0542 32.9846 41.0613 32.9854 41.0621C32.9861 41.0627 32.9867 41.0631 32.9889 41.0662C32.9916 41.0702 33.0249 41.1187 33.0523 41.2555L36.9746 40.471C36.7313 39.2544 36.059 38.1856 34.8866 37.5396C33.808 36.9453 32.5357 36.8374 31.2804 36.9515L31.6425 40.935ZM33.0523 41.2555C33.1057 41.5227 33.0798 41.631 33.0791 41.634C33.0789 41.6348 33.0799 41.6307 33.0831 41.6229C33.0864 41.615 33.091 41.6053 33.0973 41.595C33.1108 41.5723 33.1237 41.5594 33.1264 41.5569C33.129 41.5545 33.0582 41.6195 32.8256 41.6901C32.5922 41.761 32.2475 41.8216 31.7655 41.8409L31.9254 45.8377C33.2932 45.7829 34.7601 45.4797 35.8204 44.5137C37.0264 43.4149 37.26 41.8983 36.9746 40.471L33.0523 41.2555ZM67.1689 72.1593L68.7576 73.3742L68.7808 73.3438L68.8029 73.3126L67.1689 72.1593ZM69.3769 56.4153L71.0213 55.2768L70.9662 55.1973L70.9037 55.1234L69.3769 56.4153ZM57.7609 59.3913L56.1496 58.2065L56.1415 58.2176L56.1335 58.2288L57.7609 59.3913ZM54.1129 56.0313L55.6879 57.2639L55.6984 57.2505L55.7087 57.2369L54.1129 56.0313ZM73.1209 52.6713L74.6008 51.3259L74.5844 51.3079L74.5676 51.2903L73.1209 52.6713ZM80.0329 77.0553L81.6543 75.8843L81.6254 75.8443L81.5947 75.8059L80.0329 77.0553ZM80.2249 80.9913L81.3343 82.6554L81.3489 82.6456L81.3633 82.6356L80.2249 80.9913ZM76.0969 79.9353L77.7309 78.7819L77.6999 78.7381L77.6667 78.696L76.0969 79.9353ZM72.7369 72.7353L74.6694 72.2199L73.3791 67.3813L70.9811 71.7776L72.7369 72.7353ZM70.4329 76.1913L71.9724 77.4679L72.0036 77.4303L72.0329 77.3913L70.4329 76.1913ZM51.6169 79.2633L53.1408 77.968L53.1225 77.9464L53.1035 77.9253L51.6169 79.2633ZM52.3049 70.5273C52.3049 72.847 52.6802 74.9211 53.7059 76.4683C54.8263 78.1583 56.5458 78.9593 58.5289 78.9593V74.9593C57.728 74.9593 57.3356 74.7042 57.0399 74.2582C56.6496 73.6695 56.3049 72.5276 56.3049 70.5273H52.3049ZM58.5289 78.9593C62.5405 78.9593 65.966 77.0248 68.7576 73.3742L65.5802 70.9444C63.3799 73.8217 61.0453 74.9593 58.5289 74.9593V78.9593ZM68.8029 73.3126C71.3435 69.7134 72.7209 65.567 72.7209 60.8313H68.7209C68.7209 64.7355 67.6024 68.0771 65.535 71.0059L68.8029 73.3126ZM72.7209 60.8313C72.7209 58.8077 72.1254 56.8716 71.0213 55.2768L67.7325 57.5537C68.3565 58.4549 68.7209 59.5908 68.7209 60.8313H72.7209ZM70.9037 55.1234C69.435 53.3876 67.4166 52.4953 64.9609 52.4953V56.4953C66.3452 56.4953 67.2069 56.9469 67.8502 57.7071L70.9037 55.1234ZM64.9609 52.4953C61.5898 52.4953 58.6701 54.7786 56.1496 58.2065L59.3722 60.576C61.6517 57.4759 63.532 56.4953 64.9609 56.4953V52.4953ZM56.1335 58.2288C53.469 61.959 52.3049 66.0222 52.3049 70.5273H56.3049C56.3049 66.7763 57.2528 63.5435 59.3884 60.5537L56.1335 58.2288ZM51.0249 70.5273C51.0249 65.6111 52.4992 61.3384 55.6879 57.2639L52.5379 54.7986C48.8147 59.5561 47.0249 64.6914 47.0249 70.5273H51.0249ZM55.7087 57.2369C58.771 53.1839 61.8958 51.4073 64.9609 51.4073V47.4073C60.154 47.4073 55.9829 50.2387 52.5172 54.8256L55.7087 57.2369ZM64.9609 51.4073C67.9229 51.4073 70.0704 52.372 71.6742 54.0522L74.5676 51.2903C72.1395 48.7465 68.911 47.4073 64.9609 47.4073V51.4073ZM71.641 54.0166C73.2369 55.772 74.1929 57.9842 74.1929 60.7353H78.1929C78.1929 56.9583 76.845 53.7945 74.6008 51.3259L71.641 54.0166ZM74.1929 60.7353C74.1929 68.3104 75.3335 74.3825 78.4712 78.3047L81.5947 75.8059C79.3564 73.008 78.1929 68.1361 78.1929 60.7353H74.1929ZM78.4116 78.2262C78.6697 78.5836 78.8398 78.8759 78.9444 79.1059C79.0503 79.3386 79.0679 79.4612 79.0702 79.4923C79.0711 79.5053 79.0674 79.4412 79.11 79.3564C79.1492 79.2785 79.177 79.2842 79.0865 79.3469L81.3633 82.6356C82.5193 81.8354 83.1633 80.6269 83.0597 79.2022C82.9713 77.9867 82.3519 76.8502 81.6543 75.8843L78.4116 78.2262ZM79.1155 79.3272C78.7928 79.5423 78.6244 79.5169 78.5457 79.4969C78.4253 79.4663 78.1176 79.3298 77.7309 78.7819L74.463 81.0886C75.2282 82.1727 76.2646 83.0442 77.5601 83.3736C78.8975 83.7136 80.2171 83.4002 81.3343 82.6554L79.1155 79.3272ZM77.6667 78.696C76.441 77.1435 75.3888 74.9178 74.6694 72.2199L70.8045 73.2506C71.621 76.3128 72.8728 79.079 74.5272 81.1746L77.6667 78.696ZM70.9811 71.7776C70.4744 72.7066 69.6784 73.864 68.8329 74.9913L72.0329 77.3913C72.9155 76.2145 73.8475 74.8759 74.4927 73.693L70.9811 71.7776ZM68.8934 74.9146C65.9766 78.4319 62.5882 80.0473 58.5289 80.0473V84.0473C63.8777 84.0473 68.3613 81.8226 71.9724 77.4679L68.8934 74.9146ZM58.5289 80.0473C56.0488 80.0473 54.2865 79.3158 53.1408 77.968L50.093 80.5586C52.2114 83.0507 55.249 84.0473 58.5289 84.0473V80.0473ZM53.1035 77.9253C51.842 76.5237 51.0249 74.1234 51.0249 70.5273H47.0249C47.0249 74.6111 47.9358 78.1629 50.1303 80.6012L53.1035 77.9253ZM93.5644 58.0473L92.033 56.7609L92.0234 56.7723L92.014 56.7839L93.5644 58.0473ZM92.2204 74.1753L90.7019 75.4768L90.7019 75.4768L92.2204 74.1753ZM104.028 71.5833L105.693 72.6927L105.701 72.6802L105.709 72.6675L104.028 71.5833ZM85.1164 92.8953L86.7468 91.7369L86.7319 91.7159L86.7164 91.6953L85.1164 92.8953ZM85.3084 88.9593L86.5441 90.5319L86.6066 90.4828L86.665 90.4289L85.3084 88.9593ZM88.8604 89.5353L90.496 88.3843L90.4848 88.3683L90.4732 88.3525L88.8604 89.5353ZM106.908 74.3673H108.908V72.3673H106.908V74.3673ZM106.428 75.0393L104.764 73.9299L104.721 73.9956L104.682 74.0645L106.428 75.0393ZM88.7644 77.8233L90.2084 76.4395L90.1495 76.378L90.0857 76.3218L88.7644 77.8233ZM89.7244 54.6873L91.2372 55.9956L91.2579 55.9715L91.2779 55.9469L89.7244 54.6873ZM108.908 61.2153C108.908 58.6637 108.356 56.3765 106.902 54.7143C105.402 53.001 103.259 52.3033 100.86 52.3033V56.3033C102.494 56.3033 103.374 56.7575 103.891 57.3483C104.453 57.99 104.908 59.1588 104.908 61.2153H108.908ZM100.86 52.3033C97.3646 52.3033 94.3436 54.0101 92.033 56.7609L95.0958 59.3336C96.8172 57.2844 98.7883 56.3033 100.86 56.3033V52.3033ZM92.014 56.7839C89.5051 59.863 88.5884 63.741 88.5884 68.2233H92.5884C92.5884 64.2575 93.3998 61.4155 95.1149 59.3106L92.014 56.7839ZM88.5884 68.2233C88.5884 71.0943 89.0901 73.5964 90.7019 75.4768L93.7389 72.8737C93.0467 72.0661 92.5884 70.7282 92.5884 68.2233H88.5884ZM90.7019 75.4768C92.286 77.325 94.3138 78.0953 96.6364 78.0953V74.0953C95.3111 74.0953 94.4588 73.7135 93.7389 72.8737L90.7019 75.4768ZM96.6364 78.0953C100.323 78.0953 103.293 76.292 105.693 72.6927L102.364 70.4739C100.54 73.2105 98.7103 74.0953 96.6364 74.0953V78.0953ZM105.709 72.6675C107.863 69.3291 108.908 65.3903 108.908 61.2153H104.908C104.908 64.7202 104.034 67.8855 102.348 70.499L105.709 72.6675ZM110.38 73.7913C110.38 81.7931 109.051 87.4574 106.717 91.0648C104.476 94.528 101.2 96.2713 96.6364 96.2713V100.271C102.441 100.271 107.037 97.9345 110.076 93.2378C113.021 88.6852 114.38 82.1094 114.38 73.7913H110.38ZM96.6364 96.2713C91.9724 96.2713 88.8954 94.7608 86.7468 91.7369L83.4861 94.0537C86.5215 98.3258 90.9324 100.271 96.6364 100.271V96.2713ZM86.7164 91.6953C86.2822 91.1163 86.2743 90.8419 86.2751 90.8199C86.2753 90.815 86.2756 90.8156 86.275 90.818C86.2743 90.8202 86.2756 90.814 86.2848 90.7979C86.3037 90.765 86.368 90.6702 86.5441 90.5319L84.0728 87.3866C83.0591 88.1831 82.3281 89.2888 82.2777 90.6746C82.2305 91.9726 82.7986 93.1382 83.5164 94.0953L86.7164 91.6953ZM86.665 90.4289C86.8283 90.2781 86.9185 90.2427 86.9256 90.2401C86.9278 90.2393 86.9135 90.2446 86.8858 90.2471C86.8575 90.2497 86.8281 90.2483 86.8021 90.2436C86.7471 90.2337 86.7602 90.22 86.8436 90.2818C86.9315 90.3471 87.0718 90.4783 87.2476 90.718L90.4732 88.3525C89.792 87.4236 88.8195 86.5425 87.5107 86.3069C86.1146 86.0556 84.8838 86.6294 83.9519 87.4897L86.665 90.4289ZM87.2248 90.6863C89.5101 93.9338 92.7924 95.1833 96.6364 95.1833V91.1833C93.7605 91.1833 91.8588 90.3208 90.496 88.3843L87.2248 90.6863ZM96.6364 95.1833C100.836 95.1833 104.049 93.1208 106.085 89.3746C108.038 85.7842 108.908 80.6831 108.908 74.3673H104.908C104.908 80.4354 104.051 84.7423 102.571 87.4639C101.176 90.0297 99.2525 91.1833 96.6364 91.1833V95.1833ZM106.908 72.3673C106.259 72.3673 105.819 72.672 105.671 72.7819C105.487 72.9194 105.361 73.0606 105.297 73.1348C105.167 73.2875 105.067 73.4438 105.017 73.5215C104.961 73.6103 104.899 73.7132 104.862 73.7739C104.817 73.8485 104.787 73.8955 104.764 73.9299L108.093 76.1487C108.166 76.039 108.232 75.9301 108.28 75.8516C108.336 75.7593 108.364 75.7122 108.392 75.669C108.426 75.6147 108.403 75.657 108.342 75.7287C108.314 75.7624 108.219 75.8713 108.065 75.9868C107.984 76.0474 107.853 76.1344 107.677 76.2099C107.5 76.2859 107.236 76.3673 106.908 76.3673V72.3673ZM104.682 74.0645C103.659 75.898 102.482 77.1571 101.192 77.9633C99.9122 78.7634 98.4157 79.1833 96.6364 79.1833V83.1833C99.0811 83.1833 101.329 82.5951 103.312 81.3553C105.287 80.1214 106.894 78.3085 108.175 76.014L104.682 74.0645ZM96.6364 79.1833C94.1844 79.1833 92.0248 78.3348 90.2084 76.4395L87.3204 79.2071C89.9201 81.9198 93.1364 83.1833 96.6364 83.1833V79.1833ZM90.0857 76.3218C88.2663 74.7208 87.2124 72.1066 87.2124 68.2233H83.2124C83.2124 72.7879 84.4626 76.7018 87.4432 79.3247L90.0857 76.3218ZM87.2124 68.2233C87.2124 63.1182 88.5465 59.1066 91.2372 55.9956L88.2117 53.379C84.7583 57.3719 83.2124 62.3843 83.2124 68.2233H87.2124ZM91.2779 55.9469C93.8091 52.8252 96.9988 51.2153 100.86 51.2153V47.2153C95.6981 47.2153 91.3998 49.4454 88.1709 53.4277L91.2779 55.9469ZM100.86 51.2153C104.312 51.2153 106.59 52.1277 108.025 53.6154C109.471 55.1161 110.38 57.5337 110.38 61.2153H114.38C114.38 56.9288 113.322 53.3465 110.904 50.8392C108.474 48.3188 104.993 47.2153 100.86 47.2153V51.2153ZM110.38 61.2153V73.7913H114.38V61.2153H110.38ZM126.088 40.4793C126.088 39.584 126.272 39.2241 126.344 39.1285C126.368 39.0973 126.381 39.0882 126.405 39.0774C126.439 39.0622 126.547 39.0233 126.776 39.0233V35.0233C125.361 35.0233 124.043 35.5381 123.152 36.7181C122.336 37.7984 122.088 39.1665 122.088 40.4793H126.088ZM126.776 39.0233C126.966 39.0233 127.061 39.057 127.097 39.0732C127.126 39.0867 127.153 39.1042 127.187 39.1489C127.273 39.2595 127.464 39.6264 127.464 40.4793H131.464C131.464 39.1242 131.175 37.763 130.348 36.6976C129.463 35.5559 128.171 35.0233 126.776 35.0233V39.0233ZM127.464 40.4793V78.3993H131.464V40.4793H127.464ZM127.464 78.3993C127.464 79.2564 127.272 79.5311 127.24 79.5689C127.23 79.5806 127.22 79.5915 127.181 79.6074C127.13 79.6276 127.008 79.6633 126.776 79.6633V83.6633C128.063 83.6633 129.364 83.2528 130.296 82.1496C131.176 81.1075 131.464 79.7501 131.464 78.3993H127.464ZM126.776 79.6633C126.507 79.6633 126.372 79.6238 126.322 79.604C126.299 79.5947 126.292 79.589 126.293 79.5903C126.295 79.5918 126.296 79.5929 126.293 79.5891C126.275 79.567 126.088 79.3012 126.088 78.3993H122.088C122.088 79.7053 122.333 81.0716 123.203 82.1295C124.14 83.2686 125.469 83.6633 126.776 83.6633V79.6633ZM126.088 78.3993V40.4793H122.088V78.3993H126.088ZM144.12 66.9753L144.774 65.0853L142.12 64.1665V66.9753H144.12ZM146.904 74.2713L148.281 72.8213L148.279 72.8194L146.904 74.2713ZM162.456 75.6153L163.036 77.5293L163.047 77.5259L163.058 77.5224L162.456 75.6153ZM165.816 77.0553L167.768 76.6214L167.746 76.5207L167.713 76.4228L165.816 77.0553ZM163.32 80.6073L162.659 78.7195L162.647 78.7238L163.32 80.6073ZM142.872 77.7273L144.358 76.3893L144.323 76.3502L144.286 76.3131L142.872 77.7273ZM143.256 54.1113L144.712 55.482L144.724 55.4694L144.736 55.4566L143.256 54.1113ZM164.952 52.0953L166.297 50.6154L166.227 50.5519L166.152 50.4953L164.952 52.0953ZM164.76 65.8233L163.65 64.1592L163.61 64.1861L163.571 64.2149L164.76 65.8233ZM144.792 61.8873L142.851 61.4022L142.417 63.1405L144.097 63.7628L144.792 61.8873ZM161.016 62.3673L160.228 60.529L160.174 60.5521L160.121 60.5784L161.016 62.3673ZM161.496 55.7433L162.91 54.3291L162.876 54.2954L162.841 54.2634L161.496 55.7433ZM147.288 57.6633L145.842 56.2808L145.83 56.2937L145.818 56.3067L147.288 57.6633ZM154.776 66.3193C150.366 66.3193 146.97 65.8454 144.774 65.0853L143.465 68.8652C146.262 69.8331 150.161 70.3193 154.776 70.3193V66.3193ZM142.12 66.9753C142.12 70.4718 143.223 73.5395 145.528 75.7232L148.279 72.8194C146.936 71.547 146.12 69.6228 146.12 66.9753H142.12ZM145.526 75.7213C147.914 77.9899 150.861 78.8633 154.296 78.8633V74.8633C151.586 74.8633 149.733 74.2007 148.281 72.8213L145.526 75.7213ZM154.296 78.8633C156.679 78.8633 159.66 78.5521 163.036 77.5293L161.876 73.7012C158.915 74.5984 156.328 74.8633 154.296 74.8633V78.8633ZM163.058 77.5224C163.717 77.3142 163.88 77.4311 163.809 77.3986C163.773 77.3823 163.76 77.3622 163.774 77.3795C163.795 77.4062 163.854 77.4936 163.918 77.6877L167.713 76.4228C167.362 75.3684 166.686 74.3148 165.47 73.7599C164.295 73.2234 163.018 73.3403 161.853 73.7081L163.058 77.5224ZM163.863 77.4891C163.911 77.7018 163.901 77.8254 163.89 77.8856C163.88 77.9395 163.862 77.9859 163.82 78.0431C163.719 78.1811 163.417 78.4542 162.659 78.7195L163.98 82.495C165.142 82.0883 166.281 81.4494 167.043 80.4114C167.862 79.2969 168.068 77.9695 167.768 76.6214L163.863 77.4891ZM162.647 78.7238C160.242 79.5829 157.51 79.9513 154.296 79.9513V83.9513C157.801 83.9513 161.022 83.5517 163.992 82.4907L162.647 78.7238ZM154.296 79.9513C149.653 79.9513 146.446 78.7095 144.358 76.3893L141.385 79.0652C144.481 82.505 148.954 83.9513 154.296 83.9513V79.9513ZM144.286 76.3131C141.955 73.9824 140.744 70.7908 140.744 66.5913H136.744C136.744 71.6077 138.22 75.9042 141.457 79.1415L144.286 76.3131ZM140.744 66.5913C140.744 62.0031 142.055 58.3046 144.712 55.482L141.799 52.7405C138.312 56.4459 136.744 61.1954 136.744 66.5913H140.744ZM144.736 55.4566C147.134 52.8185 150.942 51.2153 156.408 51.2153V47.2153C150.161 47.2153 145.138 49.068 141.776 52.7659L144.736 55.4566ZM156.408 51.2153C159.376 51.2153 161.747 52.1918 163.752 53.6953L166.152 50.4953C163.548 48.5427 160.351 47.2153 156.408 47.2153V51.2153ZM163.606 53.5751C165.45 55.2515 166.312 56.9607 166.312 58.7193H170.312C170.312 55.4858 168.677 52.779 166.297 50.6154L163.606 53.5751ZM166.312 58.7193C166.312 61.2919 165.34 63.033 163.65 64.1592L165.869 67.4874C168.788 65.5415 170.312 62.4827 170.312 58.7193H166.312ZM163.571 64.2149C161.851 65.4862 158.986 66.3193 154.776 66.3193V70.3193C159.397 70.3193 163.252 69.4244 165.948 67.4316L163.571 64.2149ZM144.097 63.7628C147.013 64.8426 151.03 65.3273 155.544 65.3273V61.3273C151.225 61.3273 147.755 60.8519 145.486 60.0118L144.097 63.7628ZM155.544 65.3273C157.965 65.3273 160.156 65.0333 161.91 64.1561L160.121 60.5784C159.188 61.0452 157.731 61.3273 155.544 61.3273V65.3273ZM161.804 64.2056C162.862 63.7521 163.71 63.0159 164.254 61.97C164.769 60.9789 164.936 59.8547 164.936 58.7193H160.936C160.936 59.5038 160.814 59.9156 160.705 60.1246C160.625 60.2786 160.514 60.4064 160.228 60.529L161.804 64.2056ZM164.936 58.7193C164.936 57.0889 164.133 55.552 162.91 54.3291L160.081 57.1575C160.778 57.8545 160.936 58.4296 160.936 58.7193H164.936ZM162.841 54.2634C161.242 52.8097 158.907 52.3033 156.408 52.3033V56.3033C158.516 56.3033 159.637 56.7569 160.15 57.2231L162.841 54.2634ZM156.408 52.3033C151.973 52.3033 148.42 53.5857 145.842 56.2808L148.733 59.0457C150.379 57.3248 152.778 56.3033 156.408 56.3033V52.3033ZM145.818 56.3067C144.547 57.6837 143.348 59.4148 142.851 61.4022L146.732 62.3723C147.003 61.2878 147.724 60.1388 148.757 59.0198L145.818 56.3067Z" fill="#A2A2A2"/>
<path d="M30.0859 42.112L17.9899 42.688C16.5499 42.784 16.0699 43.84 16.3579 45.664C16.8379 48.928 17.1259 52.384 17.4139 56.128C23.4619 54.784 30.1819 53.92 37.3819 53.92C39.5899 53.92 40.8379 54.88 40.8379 56.608C40.8379 58.24 39.5899 59.008 37.4779 59.008C30.4699 59.008 23.9419 59.968 17.8939 61.504C18.0859 65.344 18.0859 69.472 18.0859 73.984C18.0859 74.752 18.3739 74.944 18.9499 74.944C27.3019 74.944 33.2539 74.272 36.9019 72.832C38.8219 71.872 40.2619 72.256 41.1259 73.504C42.0859 74.944 41.5099 76.192 39.6859 76.96C34.8859 79.072 27.9739 80.032 18.9499 80.032C14.6299 80.032 12.5179 78.112 12.7099 73.984C12.7099 62.848 12.3259 54.016 11.2699 47.392C10.2139 41.536 11.3659 38.56 14.7259 38.272L29.7019 37.216C31.8139 37.024 32.9659 37.696 33.2539 39.136C33.6379 41.056 32.4859 42.016 30.0859 42.112ZM52.5454 68.8C52.5454 73.12 53.9854 75.232 56.7694 75.232C60.0334 75.232 62.9134 73.696 65.4094 70.432C67.7134 67.168 68.9614 63.424 68.9614 59.104C68.9614 57.472 68.4814 55.936 67.6174 54.688C66.5614 53.44 65.1214 52.768 63.2014 52.768C60.8014 52.768 58.4014 54.4 56.0014 57.664C53.6014 61.024 52.5454 64.672 52.5454 68.8ZM47.2654 68.8C47.2654 63.424 48.8974 58.72 52.3534 54.304C55.6174 49.984 59.2654 47.68 63.2014 47.68C66.6574 47.68 69.3454 48.832 71.3614 50.944C73.2814 53.056 74.4334 55.744 74.4334 59.008C74.4334 66.496 75.5854 71.968 78.2734 75.328C79.5214 77.056 79.7134 78.4 78.4654 79.264C77.0254 80.224 75.4894 79.84 74.3374 78.208C72.8974 76.384 71.7454 73.888 70.9774 71.008C70.4014 72.064 69.5374 73.312 68.6734 74.464C65.4094 78.4 61.4734 80.32 56.7694 80.32C53.8894 80.32 51.4894 79.456 49.8574 77.536C48.1294 75.616 47.2654 72.64 47.2654 68.8ZM105.149 59.488C105.149 54.88 103.133 52.576 99.1009 52.576C96.3169 52.576 93.8209 53.92 91.8049 56.32C89.6929 58.912 88.8289 62.272 88.8289 66.496C88.8289 69.184 89.3089 71.104 90.4609 72.448C91.6129 73.792 93.0529 74.368 94.8769 74.368C97.7569 74.368 100.157 73.024 102.269 69.856C104.189 66.88 105.149 63.328 105.149 59.488ZM110.621 72.064C110.621 88.384 105.245 96.544 94.8769 96.544C89.6929 96.544 85.9489 94.816 83.3569 91.168C82.2049 89.632 82.2049 88.288 83.5489 87.232C84.7969 86.08 86.0449 86.368 87.1009 87.808C88.9249 90.4 91.5169 91.456 94.8769 91.456C101.693 91.456 105.149 85.024 105.149 72.64C105.053 72.64 104.861 73.024 104.669 73.312C102.365 77.44 99.1009 79.456 94.8769 79.456C91.9009 79.456 89.2129 78.4 87.0049 76.096C84.6049 73.984 83.4529 70.72 83.4529 66.496C83.4529 61.024 84.8929 56.512 87.9649 52.96C90.8449 49.408 94.5889 47.488 99.1009 47.488C106.685 47.488 110.621 51.52 110.621 59.488V72.064ZM122.328 38.752C122.328 36.544 123.192 35.296 125.016 35.296C126.744 35.296 127.704 36.544 127.704 38.752V76.672C127.704 78.88 126.744 79.936 125.016 79.936C123.192 79.936 122.328 78.88 122.328 76.672V38.752ZM153.016 66.592C148.504 66.592 144.856 66.112 142.36 65.248C142.36 68.32 143.32 70.816 145.144 72.544C147.064 74.368 149.464 75.136 152.536 75.136C154.744 75.136 157.528 74.848 160.696 73.888C162.52 73.312 163.576 73.888 164.056 75.328C164.44 77.056 163.48 78.208 161.56 78.88C158.872 79.84 155.896 80.224 152.536 80.224C147.544 80.224 143.704 78.88 141.112 76C138.328 73.216 136.984 69.472 136.984 64.864C136.984 59.872 138.424 55.648 141.496 52.384C144.376 49.216 148.792 47.488 154.648 47.488C158.104 47.488 160.888 48.64 163.192 50.368C165.304 52.288 166.552 54.496 166.552 56.992C166.552 60.16 165.304 62.56 163 64.096C160.792 65.728 157.432 66.592 153.016 66.592ZM143.032 60.16C145.624 61.12 149.368 61.6 153.784 61.6C156.088 61.6 157.912 61.312 159.256 60.64C160.6 60.064 161.176 58.912 161.176 56.992C161.176 56.032 160.696 54.976 159.736 54.016C158.68 53.056 156.952 52.576 154.648 52.576C150.616 52.576 147.64 53.728 145.528 55.936C144.376 57.184 143.416 58.624 143.032 60.16Z" fill="white"/>
<path d="M30.0859 42.112L30.006 40.1136L29.9984 40.1139L29.9908 40.1143L30.0859 42.112ZM17.9899 42.688L17.8948 40.6903L17.8758 40.6912L17.8569 40.6924L17.9899 42.688ZM16.3579 45.664L18.3366 45.373L18.3351 45.3625L18.3334 45.3521L16.3579 45.664ZM17.4139 56.128L15.4198 56.2814L15.5967 58.5806L17.8478 58.0804L17.4139 56.128ZM17.8939 61.504L17.4016 59.5655L15.8146 59.9686L15.8964 61.6039L17.8939 61.504ZM36.9019 72.832L37.6362 74.6923L37.7179 74.6601L37.7963 74.6209L36.9019 72.832ZM41.1259 73.504L42.79 72.3946L42.7803 72.38L42.7703 72.3656L41.1259 73.504ZM39.6859 76.96L38.9098 75.1167L38.8951 75.1229L38.8804 75.1294L39.6859 76.96ZM12.7099 73.984L14.7077 74.0769L14.7099 74.0305V73.984H12.7099ZM11.2699 47.392L13.245 47.0771L13.2418 47.0571L13.2382 47.0371L11.2699 47.392ZM14.7259 38.272L14.5852 36.277L14.5702 36.278L14.5551 36.2793L14.7259 38.272ZM29.7019 37.216L29.8426 39.211L29.8628 39.2096L29.883 39.2078L29.7019 37.216ZM33.2539 39.136L31.2927 39.5282L31.2927 39.5282L33.2539 39.136ZM29.9908 40.1143L17.8948 40.6903L18.085 44.6857L30.181 44.1097L29.9908 40.1143ZM17.8569 40.6924C16.6068 40.7758 15.4112 41.3458 14.7542 42.6C14.192 43.6733 14.2147 44.9139 14.3824 45.9759L18.3334 45.3521C18.2782 45.0023 18.271 44.7554 18.2832 44.5938C18.2955 44.4317 18.3233 44.407 18.2976 44.456C18.2618 44.5242 18.1877 44.6105 18.0907 44.6669C18.0093 44.7141 17.9944 44.6921 18.1229 44.6836L17.8569 40.6924ZM14.3792 45.955C14.8479 49.1421 15.1316 52.5343 15.4198 56.2814L19.408 55.9746C19.1202 52.2337 18.8279 48.7139 18.3366 45.373L14.3792 45.955ZM17.8478 58.0804C23.7674 56.7649 30.3416 55.92 37.3819 55.92V51.92C30.0222 51.92 23.1564 52.8031 16.98 54.1756L17.8478 58.0804ZM37.3819 55.92C38.2348 55.92 38.6017 56.1107 38.7123 56.1964C38.757 56.2311 38.7744 56.2575 38.788 56.2872C38.8042 56.323 38.8379 56.4179 38.8379 56.608H42.8379C42.8379 55.2133 42.3052 53.9209 41.1636 53.0356C40.0981 52.2093 38.737 51.92 37.3819 51.92V55.92ZM38.8379 56.608C38.8379 56.7587 38.8102 56.7989 38.8193 56.7806C38.8314 56.7563 38.8455 56.7522 38.8168 56.7719C38.7168 56.8407 38.3461 57.008 37.4779 57.008V61.008C38.7217 61.008 40.031 60.7913 41.083 60.0681C42.2566 59.2612 42.8379 58.013 42.8379 56.608H38.8379ZM37.4779 57.008C30.285 57.008 23.5911 57.9936 17.4016 59.5655L18.3862 63.4425C24.2927 61.9424 30.6548 61.008 37.4779 61.008V57.008ZM15.8964 61.6039C16.0854 65.3845 16.0859 69.4599 16.0859 73.984H20.0859C20.0859 69.4841 20.0864 65.3035 19.8914 61.4041L15.8964 61.6039ZM16.0859 73.984C16.0859 74.5234 16.1678 75.4464 16.8877 76.1662C17.6182 76.8967 18.5336 76.944 18.9499 76.944V72.944C18.7902 72.944 19.2736 72.8953 19.7161 73.3378C20.148 73.7696 20.0859 74.2126 20.0859 73.984H16.0859ZM18.9499 76.944C27.3209 76.944 33.6071 76.2828 37.6362 74.6923L36.1676 70.9717C32.9007 72.2612 27.2829 72.944 18.9499 72.944V76.944ZM37.7963 74.6209C38.4961 74.271 38.8871 74.277 39.0433 74.3061C39.1605 74.328 39.305 74.3874 39.4815 74.6424L42.7703 72.3656C42.0828 71.3726 41.0753 70.616 39.7765 70.3739C38.5167 70.139 37.2277 70.433 36.0075 71.0431L37.7963 74.6209ZM39.4618 74.6134C39.5797 74.7902 39.5892 74.8702 39.587 74.8563C39.5822 74.8259 39.5849 74.7585 39.6116 74.6962C39.6327 74.647 39.6362 74.6773 39.5312 74.7653C39.4232 74.8557 39.2287 74.9825 38.9098 75.1167L40.462 78.8033C41.6027 78.323 42.7461 77.5366 43.2882 76.2718C43.8799 74.8912 43.5281 73.5018 42.79 72.3946L39.4618 74.6134ZM38.8804 75.1294C34.4668 77.0714 27.8919 78.032 18.9499 78.032V82.032C28.0559 82.032 35.305 81.0726 40.4914 78.7906L38.8804 75.1294ZM18.9499 78.032C17.0336 78.032 16.0324 77.5992 15.5185 77.1089C15.0434 76.6557 14.6272 75.8078 14.7077 74.0769L10.7121 73.8911C10.6006 76.2882 11.1444 78.4643 12.7573 80.0031C14.3314 81.5048 16.5462 82.032 18.9499 82.032V78.032ZM14.7099 73.984C14.7099 62.8292 14.3272 53.8655 13.245 47.0771L9.29484 47.7069C10.3246 54.1665 10.7099 62.8668 10.7099 73.984H14.7099ZM13.2382 47.0371C12.7286 44.2113 12.8332 42.4475 13.2109 41.456C13.3828 41.0047 13.593 40.7606 13.7978 40.6114C14.0088 40.4576 14.3416 40.3123 14.8967 40.2647L14.5551 36.2793C13.4302 36.3757 12.3591 36.7104 11.442 37.3786C10.5188 38.0514 9.87702 38.9713 9.47293 40.032C8.69865 42.0645 8.75522 44.7167 9.30165 47.7469L13.2382 47.0371ZM14.8666 40.267L29.8426 39.211L29.5612 35.2209L14.5852 36.277L14.8666 40.267ZM29.883 39.2078C30.7397 39.1299 31.0993 39.262 31.1967 39.3157C31.2172 39.327 31.2251 39.334 31.2259 39.3348C31.2266 39.3354 31.2272 39.3358 31.2293 39.3389C31.2321 39.3429 31.2654 39.3915 31.2927 39.5282L35.2151 38.7438C34.9717 37.5272 34.2994 36.4583 33.1271 35.8123C32.0485 35.218 30.7762 35.1101 29.5208 35.2242L29.883 39.2078ZM31.2927 39.5282C31.3462 39.7954 31.3203 39.9037 31.3195 39.9067C31.3193 39.9076 31.3204 39.9034 31.3236 39.8956C31.3268 39.8877 31.3315 39.8781 31.3377 39.8677C31.3513 39.845 31.3642 39.8321 31.3669 39.8296C31.3695 39.8273 31.2986 39.8922 31.0661 39.9628C30.8327 40.0337 30.488 40.0943 30.006 40.1136L30.1658 44.1104C31.5337 44.0557 33.0005 43.7525 34.0609 42.7864C35.2669 41.6876 35.5005 40.171 35.2151 38.7438L31.2927 39.5282ZM65.4094 70.432L66.9981 71.6469L67.0213 71.6166L67.0433 71.5854L65.4094 70.432ZM67.6174 54.688L69.2618 53.5496L69.2067 53.47L69.1442 53.3961L67.6174 54.688ZM56.0014 57.664L54.3901 56.4792L54.3819 56.4903L54.3739 56.5015L56.0014 57.664ZM52.3534 54.304L53.9284 55.5366L53.9389 55.5232L53.9491 55.5097L52.3534 54.304ZM71.3614 50.944L72.8413 49.5987L72.8249 49.5806L72.8081 49.563L71.3614 50.944ZM78.2734 75.328L79.8948 74.157L79.8659 74.1171L79.8351 74.0786L78.2734 75.328ZM78.4654 79.264L79.5748 80.9281L79.5894 80.9184L79.6038 80.9084L78.4654 79.264ZM74.3374 78.208L75.9713 77.0546L75.9404 77.0108L75.9072 76.9687L74.3374 78.208ZM70.9774 71.008L72.9099 70.4927L71.6196 65.654L69.2216 70.0503L70.9774 71.008ZM68.6734 74.464L70.2129 75.7407L70.2441 75.7031L70.2734 75.664L68.6734 74.464ZM49.8574 77.536L51.3813 76.2407L51.3629 76.2191L51.344 76.1981L49.8574 77.536ZM50.5454 68.8C50.5454 71.1197 50.9207 73.1938 51.9464 74.7411C53.0668 76.4311 54.7863 77.232 56.7694 77.232V73.232C55.9685 73.232 55.576 72.9769 55.2804 72.5309C54.8901 71.9422 54.5454 70.8003 54.5454 68.8H50.5454ZM56.7694 77.232C60.781 77.232 64.2065 75.2975 66.9981 71.6469L63.8207 69.2171C61.6203 72.0945 59.2858 73.232 56.7694 73.232V77.232ZM67.0433 71.5854C69.5839 67.9862 70.9614 63.8398 70.9614 59.104H66.9614C66.9614 63.0082 65.8429 66.3498 63.7755 69.2786L67.0433 71.5854ZM70.9614 59.104C70.9614 57.0804 70.3659 55.1444 69.2618 53.5496L65.973 55.8264C66.5969 56.7276 66.9614 57.8636 66.9614 59.104H70.9614ZM69.1442 53.3961C67.6754 51.6603 65.6571 50.768 63.2014 50.768V54.768C64.5857 54.768 65.4474 55.2197 66.0906 55.9799L69.1442 53.3961ZM63.2014 50.768C59.8303 50.768 56.9106 53.0513 54.3901 56.4792L57.6127 58.8488C59.8922 55.7487 61.7725 54.768 63.2014 54.768V50.768ZM54.3739 56.5015C51.7095 60.2317 50.5454 64.2949 50.5454 68.8H54.5454C54.5454 65.0491 55.4933 61.8163 57.6289 58.8265L54.3739 56.5015ZM49.2654 68.8C49.2654 63.8838 50.7396 59.6112 53.9284 55.5366L50.7784 53.0714C47.0552 57.8288 45.2654 62.9642 45.2654 68.8H49.2654ZM53.9491 55.5097C57.0115 51.4566 60.1363 49.68 63.2014 49.68V45.68C58.3945 45.68 54.2233 48.5114 50.7577 53.0983L53.9491 55.5097ZM63.2014 49.68C66.1633 49.68 68.3109 50.6447 69.9147 52.325L72.8081 49.563C70.38 47.0193 67.1515 45.68 63.2014 45.68V49.68ZM69.8815 52.2893C71.4774 54.0448 72.4334 56.2569 72.4334 59.008H76.4334C76.4334 55.2311 75.0855 52.0672 72.8413 49.5987L69.8815 52.2893ZM72.4334 59.008C72.4334 66.5831 73.574 72.6553 76.7117 76.5774L79.8351 74.0786C77.5968 71.2807 76.4334 66.4088 76.4334 59.008H72.4334ZM76.652 76.499C76.9101 76.8563 77.0803 77.1487 77.1849 77.3786C77.2908 77.6113 77.3084 77.7339 77.3107 77.7651C77.3116 77.7781 77.3079 77.7139 77.3505 77.6292C77.3897 77.5513 77.4175 77.5569 77.327 77.6196L79.6038 80.9084C80.7597 80.1081 81.4038 78.8996 81.3001 77.4749C81.2117 76.2594 80.5923 75.1229 79.8948 74.157L76.652 76.499ZM77.356 77.5999C77.0333 77.8151 76.8648 77.7897 76.7862 77.7697C76.6658 77.739 76.3581 77.6026 75.9713 77.0546L72.7035 79.3614C73.4687 80.4454 74.505 81.317 75.8006 81.6463C77.138 81.9863 78.4575 81.6729 79.5748 80.9281L77.356 77.5999ZM75.9072 76.9687C74.6815 75.4162 73.6293 73.1905 72.9099 70.4927L69.0449 71.5233C69.8615 74.5855 71.1133 77.3518 72.7676 79.4473L75.9072 76.9687ZM69.2216 70.0503C68.7149 70.9793 67.9189 72.1367 67.0734 73.264L70.2734 75.664C71.1559 74.4873 72.0879 73.1487 72.7332 71.9657L69.2216 70.0503ZM67.1339 73.1873C64.2171 76.7047 60.8287 78.32 56.7694 78.32V82.32C62.1182 82.32 66.6017 80.0953 70.2129 75.7407L67.1339 73.1873ZM56.7694 78.32C54.2893 78.32 52.527 77.5886 51.3813 76.2407L48.3335 78.8313C50.4518 81.3234 53.4895 82.32 56.7694 82.32V78.32ZM51.344 76.1981C50.0825 74.7964 49.2654 72.3962 49.2654 68.8H45.2654C45.2654 72.8838 46.1763 76.4356 48.3708 78.8739L51.344 76.1981ZM91.8049 56.32L90.2735 55.0336L90.2639 55.0451L90.2544 55.0567L91.8049 56.32ZM90.4609 72.448L88.9424 73.7496L88.9424 73.7496L90.4609 72.448ZM102.269 69.856L103.933 70.9654L103.941 70.9529L103.949 70.9403L102.269 69.856ZM83.3569 91.168L84.9873 90.0096L84.9724 89.9886L84.9569 89.968L83.3569 91.168ZM83.5489 87.232L84.7845 88.8046L84.8471 88.7555L84.9055 88.7016L83.5489 87.232ZM87.1009 87.808L88.7365 86.657L88.7253 86.641L88.7137 86.6253L87.1009 87.808ZM105.149 72.64H107.149V70.64H105.149V72.64ZM104.669 73.312L103.005 72.2026L102.961 72.2683L102.923 72.3373L104.669 73.312ZM87.0049 76.096L88.4489 74.7122L88.39 74.6508L88.3262 74.5946L87.0049 76.096ZM87.9649 52.96L89.4776 54.2683L89.4984 54.2443L89.5184 54.2196L87.9649 52.96ZM107.149 59.488C107.149 56.9364 106.597 54.6492 105.142 52.987C103.643 51.2737 101.5 50.576 99.1009 50.576V54.576C100.734 54.576 101.615 55.0303 102.132 55.621C102.693 56.2628 103.149 57.4316 103.149 59.488H107.149ZM99.1009 50.576C95.6051 50.576 92.5841 52.2829 90.2735 55.0336L93.3363 57.6064C95.0577 55.5571 97.0287 54.576 99.1009 54.576V50.576ZM90.2544 55.0567C87.7455 58.1358 86.8289 62.0138 86.8289 66.496H90.8289C90.8289 62.5302 91.6403 59.6882 93.3554 57.5833L90.2544 55.0567ZM86.8289 66.496C86.8289 69.367 87.3306 71.8691 88.9424 73.7496L91.9794 71.1464C91.2872 70.3389 90.8289 69.001 90.8289 66.496H86.8289ZM88.9424 73.7496C90.5265 75.5977 92.5543 76.368 94.8769 76.368V72.368C93.5515 72.368 92.6993 71.9863 91.9794 71.1464L88.9424 73.7496ZM94.8769 76.368C98.5631 76.368 101.533 74.5648 103.933 70.9654L100.605 68.7466C98.7804 71.4832 96.9507 72.368 94.8769 72.368V76.368ZM103.949 70.9403C106.103 67.6018 107.149 63.6631 107.149 59.488H103.149C103.149 62.9929 102.274 66.1582 100.588 68.7717L103.949 70.9403ZM108.621 72.064C108.621 80.0658 107.292 85.7301 104.958 89.3375C102.717 92.8008 99.4406 94.544 94.8769 94.544V98.544C100.681 98.544 105.277 96.2072 108.316 91.5105C111.262 86.9579 112.621 80.3822 112.621 72.064H108.621ZM94.8769 94.544C90.2129 94.544 87.1358 93.0335 84.9873 90.0096L81.7265 92.3264C84.762 96.5985 89.1729 98.544 94.8769 98.544V94.544ZM84.9569 89.968C84.5227 89.3891 84.5148 89.1146 84.5156 89.0927C84.5158 89.0877 84.5161 89.0883 84.5154 89.0907C84.5148 89.0929 84.5161 89.0868 84.5253 89.0707C84.5442 89.0377 84.6085 88.943 84.7845 88.8046L82.3133 85.6594C81.2995 86.4559 80.5686 87.5615 80.5182 88.9473C80.471 90.2454 81.0391 91.4109 81.7569 92.368L84.9569 89.968ZM84.9055 88.7016C85.0688 88.5509 85.159 88.5154 85.1661 88.5128C85.1683 88.512 85.154 88.5173 85.1263 88.5199C85.098 88.5225 85.0686 88.5211 85.0426 88.5164C84.9876 88.5065 85.0007 88.4927 85.084 88.5546C85.172 88.6198 85.3123 88.751 85.4881 88.9907L88.7137 86.6253C88.0325 85.6963 87.0599 84.8152 85.7512 84.5796C84.355 84.3283 83.1243 84.9021 82.1923 85.7624L84.9055 88.7016ZM85.4653 88.959C87.7506 92.2065 91.0329 93.456 94.8769 93.456V89.456C92.0009 89.456 90.0992 88.5935 88.7365 86.657L85.4653 88.959ZM94.8769 93.456C99.0768 93.456 102.289 91.3936 104.326 87.6474C106.278 84.0569 107.149 78.9558 107.149 72.64H103.149C103.149 78.7082 102.292 83.0151 100.812 85.7366C99.4167 88.3024 97.493 89.456 94.8769 89.456V93.456ZM105.149 70.64C104.499 70.64 104.059 70.9447 103.912 71.0546C103.728 71.1922 103.601 71.3333 103.538 71.4076C103.408 71.5602 103.307 71.7165 103.258 71.7942C103.201 71.883 103.139 71.9859 103.102 72.0467C103.057 72.1212 103.028 72.1682 103.005 72.2026L106.333 74.4214C106.406 74.3118 106.473 74.2028 106.52 74.1243C106.577 74.0321 106.605 73.985 106.632 73.9417C106.667 73.8875 106.644 73.9298 106.583 74.0014C106.554 74.0351 106.46 74.1441 106.305 74.2595C106.224 74.3201 106.094 74.4071 105.918 74.4827C105.74 74.5587 105.476 74.64 105.149 74.64V70.64ZM102.923 72.3373C101.899 74.1708 100.723 75.4299 99.4329 76.236C98.1527 77.0361 96.6562 77.456 94.8769 77.456V81.456C97.3216 81.456 99.5691 80.8679 101.553 79.628C103.527 78.3941 105.135 76.5812 106.415 74.2867L102.923 72.3373ZM94.8769 77.456C92.4249 77.456 90.2652 76.6075 88.4489 74.7122L85.5609 77.4798C88.1606 80.1925 91.3769 81.456 94.8769 81.456V77.456ZM88.3262 74.5946C86.5068 72.9935 85.4529 70.3793 85.4529 66.496H81.4529C81.4529 71.0607 82.703 74.9745 85.6836 77.5974L88.3262 74.5946ZM85.4529 66.496C85.4529 61.3909 86.787 57.3793 89.4776 54.2683L86.4522 51.6517C82.9988 55.6447 81.4529 60.6571 81.4529 66.496H85.4529ZM89.5184 54.2196C92.0495 51.0979 95.2392 49.488 99.1009 49.488V45.488C93.9386 45.488 89.6403 47.7181 86.4114 51.7004L89.5184 54.2196ZM99.1009 49.488C102.553 49.488 104.831 50.4005 106.265 51.8881C107.712 53.3888 108.621 55.8065 108.621 59.488H112.621C112.621 55.2015 111.562 51.6192 109.145 49.1119C106.715 46.5915 103.233 45.488 99.1009 45.488V49.488ZM108.621 59.488V72.064H112.621V59.488H108.621ZM124.328 38.752C124.328 37.8568 124.512 37.4969 124.584 37.4012C124.608 37.3701 124.622 37.3609 124.646 37.3501C124.68 37.3349 124.787 37.296 125.016 37.296V33.296C123.601 33.296 122.283 33.8108 121.392 34.9908C120.577 36.0711 120.328 37.4392 120.328 38.752H124.328ZM125.016 37.296C125.207 37.296 125.301 37.3297 125.337 37.3459C125.367 37.3595 125.393 37.3769 125.428 37.4216C125.514 37.5322 125.704 37.8991 125.704 38.752H129.704C129.704 37.3969 129.415 36.0358 128.589 34.9704C127.703 33.8287 126.411 33.296 125.016 33.296V37.296ZM125.704 38.752V76.672H129.704V38.752H125.704ZM125.704 76.672C125.704 77.5291 125.512 77.8038 125.48 77.8416C125.47 77.8533 125.461 77.8642 125.421 77.8801C125.371 77.9004 125.248 77.936 125.016 77.936V81.936C126.303 81.936 127.605 81.5255 128.536 80.4224C129.417 79.3802 129.704 78.0229 129.704 76.672H125.704ZM125.016 77.936C124.748 77.936 124.613 77.8965 124.563 77.8767C124.539 77.8674 124.532 77.8617 124.534 77.863C124.536 77.8645 124.536 77.8657 124.533 77.8618C124.515 77.8397 124.328 77.574 124.328 76.672H120.328C120.328 77.978 120.574 79.3443 121.444 80.4022C122.38 81.5414 123.71 81.936 125.016 81.936V77.936ZM124.328 76.672V38.752H120.328V76.672H124.328ZM142.36 65.248L143.014 63.358L140.36 62.4393V65.248H142.36ZM145.144 72.544L146.522 71.094L146.52 71.0921L145.144 72.544ZM160.696 73.888L161.276 75.802L161.287 75.7987L161.298 75.7952L160.696 73.888ZM164.056 75.328L166.009 74.8941L165.986 74.7934L165.954 74.6955L164.056 75.328ZM161.56 78.88L160.899 76.9922L160.887 76.9965L161.56 78.88ZM141.112 76L142.599 74.6621L142.564 74.623L142.526 74.5858L141.112 76ZM141.496 52.384L142.953 53.7547L142.964 53.7421L142.976 53.7293L141.496 52.384ZM163.192 50.368L164.538 48.8881L164.468 48.8246L164.392 48.768L163.192 50.368ZM163 64.096L161.891 62.4319L161.85 62.4588L161.811 62.4876L163 64.096ZM143.032 60.16L141.092 59.6749L140.657 61.4132L142.338 62.0355L143.032 60.16ZM159.256 60.64L158.468 58.8017L158.414 58.8249L158.362 58.8511L159.256 60.64ZM159.736 54.016L161.15 52.6018L161.117 52.5681L161.082 52.5361L159.736 54.016ZM145.528 55.936L144.083 54.5536L144.071 54.5664L144.059 54.5794L145.528 55.936ZM153.016 64.592C148.607 64.592 145.21 64.1182 143.014 63.358L141.706 67.138C144.502 68.1058 148.402 68.592 153.016 68.592V64.592ZM140.36 65.248C140.36 68.7445 141.464 71.8123 143.769 73.9959L146.52 71.0921C145.177 69.8197 144.36 67.8955 144.36 65.248H140.36ZM143.767 73.994C146.155 76.2626 149.102 77.136 152.536 77.136V73.136C149.826 73.136 147.974 72.4734 146.522 71.094L143.767 73.994ZM152.536 77.136C154.919 77.136 157.901 76.8249 161.276 75.802L160.116 71.974C157.155 72.8711 154.569 73.136 152.536 73.136V77.136ZM161.298 75.7952C161.958 75.5869 162.121 75.7038 162.05 75.6714C162.014 75.6551 162 75.6349 162.014 75.6522C162.035 75.679 162.094 75.7663 162.159 75.9605L165.954 74.6955C165.602 73.6411 164.926 72.5875 163.711 72.0326C162.536 71.4962 161.258 71.6131 160.094 71.9808L161.298 75.7952ZM162.104 75.7619C162.151 75.9745 162.142 76.0982 162.131 76.1583C162.121 76.2122 162.102 76.2587 162.06 76.3158C161.959 76.4538 161.658 76.727 160.899 76.9923L162.221 80.7677C163.383 80.361 164.521 79.7222 165.284 78.6842C166.103 77.5696 166.308 76.2422 166.009 74.8941L162.104 75.7619ZM160.887 76.9965C158.482 77.8556 155.75 78.224 152.536 78.224V82.224C156.042 82.224 159.262 81.8244 162.233 80.7635L160.887 76.9965ZM152.536 78.224C147.894 78.224 144.687 76.9823 142.599 74.6621L139.626 77.3379C142.721 80.7777 147.195 82.224 152.536 82.224V78.224ZM142.526 74.5858C140.196 72.2551 138.984 69.0635 138.984 64.864H134.984C134.984 69.8805 136.461 74.1769 139.698 77.4142L142.526 74.5858ZM138.984 64.864C138.984 60.2759 140.296 56.5774 142.953 53.7547L140.04 51.0133C136.552 54.7186 134.984 59.4681 134.984 64.864H138.984ZM142.976 53.7293C145.374 51.0913 149.182 49.488 154.648 49.488V45.488C148.402 45.488 143.378 47.3407 140.016 51.0387L142.976 53.7293ZM154.648 49.488C157.616 49.488 159.988 50.4645 161.992 51.968L164.392 48.768C161.789 46.8154 158.592 45.488 154.648 45.488V49.488ZM161.847 51.8479C163.691 53.5242 164.552 55.2335 164.552 56.992H168.552C168.552 53.7585 166.917 51.0517 164.538 48.8881L161.847 51.8479ZM164.552 56.992C164.552 59.5646 163.58 61.3057 161.891 62.4319L164.11 65.7601C167.028 63.8143 168.552 60.7554 168.552 56.992H164.552ZM161.811 62.4876C160.091 63.7589 157.227 64.592 153.016 64.592V68.592C157.637 68.592 161.493 67.6971 164.189 65.7044L161.811 62.4876ZM142.338 62.0355C145.253 63.1153 149.271 63.6 153.784 63.6V59.6C149.466 59.6 145.995 59.1247 143.727 58.2845L142.338 62.0355ZM153.784 63.6C156.205 63.6 158.396 63.306 160.151 62.4289L158.362 58.8511C157.428 59.318 155.971 59.6 153.784 59.6V63.6ZM160.044 62.4783C161.102 62.0248 161.951 61.2886 162.495 60.2427C163.01 59.2517 163.176 58.1275 163.176 56.992H159.176C159.176 57.7765 159.054 58.1883 158.946 58.3973C158.866 58.5514 158.754 58.6791 158.468 58.8017L160.044 62.4783ZM163.176 56.992C163.176 55.3617 162.373 53.8248 161.15 52.6018L158.322 55.4302C159.019 56.1272 159.176 56.7023 159.176 56.992H163.176ZM161.082 52.5361C159.482 51.0824 157.148 50.576 154.648 50.576V54.576C156.757 54.576 157.878 55.0296 158.391 55.4959L161.082 52.5361ZM154.648 50.576C150.213 50.576 146.661 51.8585 144.083 54.5536L146.973 57.3184C148.62 55.5975 151.019 54.576 154.648 54.576V50.576ZM144.059 54.5794C142.787 55.9564 141.589 57.6875 141.092 59.6749L144.972 60.6451C145.244 59.5605 145.965 58.4116 146.998 57.2926L144.059 54.5794Z" fill="white"/>
<path d="M160.068 102.704L160.932 115.088L164.1 115.376C167.652 115.76 170.628 115.28 173.028 113.648C175.332 112.208 176.484 109.904 176.484 106.736C176.484 103.952 175.62 101.84 173.988 100.688C172.26 99.536 169.956 99.152 166.98 99.152L162.66 99.536C160.74 99.632 159.972 100.784 160.068 102.704ZM161.412 120.272L162.468 136.304C162.66 138.608 161.604 139.664 159.588 139.376C158.052 139.184 157.284 138.032 157.092 135.824L154.788 102.8C154.212 97.808 156.42 95.12 160.932 94.64L166.884 94.16C171.204 93.776 174.66 94.832 177.54 96.944C180.324 99.152 181.86 102.32 181.86 106.736C181.86 111.056 180.036 114.608 176.676 117.2C173.316 119.984 168.9 121.136 163.428 120.368L161.412 120.272ZM207.704 118.16C207.704 116.048 207.128 114.224 206.072 112.496C204.92 110.864 203.192 110 200.888 110C197.432 110 194.552 112.016 192.344 115.76C190.04 119.696 188.984 123.824 188.984 128.432C188.984 132.08 190.712 133.712 194.264 133.712C197.048 133.712 199.928 132.08 203.096 128.336C206.168 124.688 207.704 121.328 207.704 118.16ZM194.264 138.8C187.064 138.8 183.608 135.44 183.608 128.432C183.608 122.768 185.144 117.488 188.216 112.496C191.288 107.6 195.512 104.912 200.888 104.912C204.728 104.912 207.704 106.352 209.816 108.848C211.928 111.536 213.176 114.608 213.176 118.16C213.176 122.864 210.968 127.376 206.936 131.984C202.808 136.592 198.584 138.8 194.264 138.8ZM227.533 132.368L229.933 132.752C233.965 133.424 237.229 132.752 239.629 130.64C241.933 128.528 243.085 125.648 243.085 121.904C243.085 114.416 240.589 110.576 235.213 110.576C230.125 110.576 227.533 113.936 227.533 120.56V132.368ZM222.157 120.56C222.157 110.576 226.477 105.488 235.213 105.488C244.045 105.488 248.557 111.056 248.557 122C248.365 127.28 246.637 131.408 243.373 134.48C239.917 137.744 235.501 138.896 229.837 137.744L227.533 137.456V150.608C227.533 152.72 226.573 153.776 224.845 153.776C223.021 153.776 222.157 152.72 222.157 150.512V120.56Z" fill="#A2A2A2"/>
<path d="M160.068 102.704L158.071 102.804L158.072 102.824L158.073 102.843L160.068 102.704ZM160.932 115.088L158.937 115.227L159.056 116.926L160.751 117.08L160.932 115.088ZM164.1 115.376L164.315 113.388L164.298 113.386L164.281 113.384L164.1 115.376ZM173.028 113.648L171.968 111.952L171.935 111.972L171.904 111.994L173.028 113.648ZM173.988 100.688L175.142 99.0541L175.12 99.0387L175.098 99.0239L173.988 100.688ZM166.98 99.152V97.152H166.892L166.803 97.1599L166.98 99.152ZM162.66 99.536L162.76 101.534L162.799 101.532L162.837 101.528L162.66 99.536ZM161.412 120.272L161.507 118.274L159.269 118.168L159.417 120.403L161.412 120.272ZM162.468 136.304L160.473 136.435L160.474 136.453L160.475 136.47L162.468 136.304ZM159.588 139.376L159.871 137.396L159.854 137.394L159.836 137.391L159.588 139.376ZM157.092 135.824L155.097 135.963L155.098 135.98L155.1 135.997L157.092 135.824ZM154.788 102.8L156.783 102.661L156.78 102.616L156.775 102.571L154.788 102.8ZM160.932 94.64L160.771 92.6465L160.746 92.6485L160.721 92.6512L160.932 94.64ZM166.884 94.16L167.045 96.1535L167.053 96.1529L167.061 96.1521L166.884 94.16ZM177.54 96.944L178.783 95.377L178.753 95.3535L178.723 95.3312L177.54 96.944ZM176.676 117.2L175.455 115.616L175.427 115.638L175.4 115.66L176.676 117.2ZM163.428 120.368L163.706 118.387L163.615 118.375L163.523 118.37L163.428 120.368ZM158.073 102.843L158.937 115.227L162.927 114.949L162.063 102.565L158.073 102.843ZM160.751 117.08L163.919 117.368L164.281 113.384L161.113 113.096L160.751 117.08ZM163.885 117.364C167.722 117.779 171.228 117.291 174.153 115.302L171.904 111.994C170.028 113.269 167.583 113.741 164.315 113.388L163.885 117.364ZM174.088 115.344C177.082 113.473 178.484 110.459 178.484 106.736H174.484C174.484 109.349 173.582 110.943 171.968 111.952L174.088 115.344ZM178.484 106.736C178.484 103.587 177.501 100.719 175.142 99.0541L172.835 102.322C173.74 102.961 174.484 104.317 174.484 106.736H178.484ZM175.098 99.0239C172.863 97.5339 170.061 97.152 166.98 97.152V101.152C169.851 101.152 171.658 101.538 172.879 102.352L175.098 99.0239ZM166.803 97.1599L162.483 97.5439L162.837 101.528L167.157 101.144L166.803 97.1599ZM162.56 97.5385C161.21 97.606 159.91 98.0763 159.03 99.2081C158.196 100.28 158.011 101.605 158.071 102.804L162.066 102.604C162.03 101.883 162.181 101.672 162.187 101.664C162.189 101.661 162.191 101.659 162.194 101.657C162.198 101.654 162.212 101.643 162.245 101.629C162.312 101.599 162.468 101.548 162.76 101.534L162.56 97.5385ZM159.417 120.403L160.473 136.435L164.464 136.173L163.408 120.141L159.417 120.403ZM160.475 136.47C160.55 137.364 160.332 137.512 160.409 137.432C160.451 137.388 160.483 137.388 160.432 137.401C160.365 137.418 160.191 137.442 159.871 137.396L159.305 141.356C160.664 141.55 162.197 141.353 163.304 140.192C164.364 139.08 164.579 137.548 164.461 136.138L160.475 136.47ZM159.836 137.391C159.679 137.372 159.609 137.337 159.584 137.322C159.563 137.31 159.529 137.287 159.479 137.216C159.357 137.04 159.167 136.6 159.085 135.651L155.1 135.997C155.209 137.256 155.499 138.496 156.193 139.496C156.953 140.591 158.058 141.2 159.34 141.361L159.836 137.391ZM159.087 135.685L156.783 102.661L152.793 102.939L155.097 135.963L159.087 135.685ZM156.775 102.571C156.522 100.378 156.921 99.0478 157.537 98.2481C158.141 97.4629 159.23 96.8323 161.144 96.6288L160.721 92.6512C158.122 92.9276 155.851 93.8811 154.367 95.8079C152.895 97.7202 152.478 100.23 152.801 103.029L156.775 102.571ZM161.093 96.6335L167.045 96.1535L166.723 92.1665L160.771 92.6465L161.093 96.6335ZM167.061 96.1521C170.915 95.8096 173.884 96.743 176.357 98.5568L178.723 95.3312C175.436 92.921 171.493 91.7424 166.707 92.1679L167.061 96.1521ZM176.297 98.511C178.545 100.294 179.86 102.852 179.86 106.736H183.86C183.86 101.788 182.103 98.0105 178.783 95.377L176.297 98.511ZM179.86 106.736C179.86 110.416 178.34 113.391 175.455 115.616L177.898 118.784C181.733 115.825 183.86 111.696 183.86 106.736H179.86ZM175.4 115.66C172.551 118.02 168.731 119.093 163.706 118.387L163.15 122.349C169.07 123.179 174.081 121.948 177.952 118.74L175.4 115.66ZM163.523 118.37L161.507 118.274L161.317 122.27L163.333 122.366L163.523 118.37ZM206.072 112.496L207.778 111.453L207.744 111.397L207.706 111.343L206.072 112.496ZM192.344 115.76L190.621 114.744L190.618 114.75L192.344 115.76ZM203.096 128.336L204.622 129.628L204.626 129.624L203.096 128.336ZM188.216 112.496L186.522 111.433L186.517 111.44L186.512 111.448L188.216 112.496ZM209.816 108.848L211.388 107.612L211.366 107.584L211.342 107.556L209.816 108.848ZM206.936 131.984L208.425 133.318L208.433 133.31L208.441 133.301L206.936 131.984ZM209.704 118.16C209.704 115.646 209.008 113.465 207.778 111.453L204.365 113.539C205.248 114.983 205.704 116.45 205.704 118.16H209.704ZM207.706 111.343C206.136 109.118 203.763 108 200.888 108V112C202.621 112 203.704 112.61 204.438 113.649L207.706 111.343ZM200.888 108C196.499 108 193.058 110.612 190.621 114.744L194.066 116.776C196.046 113.42 198.364 112 200.888 112V108ZM190.618 114.75C188.124 119.01 186.984 123.491 186.984 128.432H190.984C190.984 124.157 191.956 120.382 194.07 116.77L190.618 114.75ZM186.984 128.432C186.984 130.536 187.481 132.477 188.887 133.864C190.289 135.246 192.221 135.712 194.264 135.712V131.712C192.754 131.712 192.047 131.362 191.696 131.016C191.351 130.675 190.984 129.976 190.984 128.432H186.984ZM194.264 135.712C197.909 135.712 201.296 133.559 204.622 129.628L201.569 127.044C198.56 130.601 196.186 131.712 194.264 131.712V135.712ZM204.626 129.624C207.848 125.798 209.704 121.993 209.704 118.16H205.704C205.704 120.663 204.488 123.578 201.566 127.048L204.626 129.624ZM194.264 136.8C190.938 136.8 188.875 136.021 187.63 134.81C186.396 133.61 185.608 131.635 185.608 128.432H181.608C181.608 132.237 182.547 135.446 184.841 137.678C187.124 139.899 190.39 140.8 194.264 140.8V136.8ZM185.608 128.432C185.608 123.155 187.032 118.235 189.919 113.544L186.512 111.448C183.255 116.741 181.608 122.381 181.608 128.432H185.608ZM189.91 113.559C192.685 109.136 196.32 106.912 200.888 106.912V102.912C194.703 102.912 189.891 106.064 186.522 111.433L189.91 113.559ZM200.888 106.912C204.169 106.912 206.576 108.115 208.289 110.14L211.342 107.556C208.832 104.589 205.286 102.912 200.888 102.912V106.912ZM208.243 110.084C210.12 112.473 211.176 115.119 211.176 118.16H215.176C215.176 114.097 213.735 110.599 211.388 107.612L208.243 110.084ZM211.176 118.16C211.176 122.194 209.292 126.254 205.431 130.667L208.441 133.301C212.643 128.498 215.176 123.534 215.176 118.16H211.176ZM205.446 130.65C201.55 134.999 197.826 136.8 194.264 136.8V140.8C199.342 140.8 204.066 138.185 208.425 133.318L205.446 130.65ZM227.533 132.368H225.533V134.073L227.217 134.343L227.533 132.368ZM229.933 132.752L230.262 130.779L230.249 130.777L229.933 132.752ZM239.629 130.64L240.95 132.141L240.965 132.128L240.98 132.114L239.629 130.64ZM248.557 122L250.556 122.073L250.557 122.036V122H248.557ZM243.373 134.48L242.002 133.024L242 133.026L243.373 134.48ZM229.837 137.744L230.236 135.784L230.161 135.769L230.085 135.759L229.837 137.744ZM227.533 137.456L227.781 135.471L225.533 135.19V137.456H227.533ZM227.217 134.343L229.617 134.727L230.249 130.777L227.849 130.393L227.217 134.343ZM229.604 134.725C234.022 135.461 237.962 134.771 240.95 132.141L238.308 129.139C236.496 130.733 233.908 131.387 230.262 130.779L229.604 134.725ZM240.98 132.114C243.773 129.554 245.085 126.097 245.085 121.904H241.085C241.085 125.199 240.093 127.502 238.278 129.166L240.98 132.114ZM245.085 121.904C245.085 118.004 244.447 114.69 242.816 112.303C241.087 109.774 238.447 108.576 235.213 108.576V112.576C237.355 112.576 238.651 113.298 239.514 114.561C240.475 115.966 241.085 118.316 241.085 121.904H245.085ZM235.213 108.576C232.19 108.576 229.622 109.602 227.88 111.864C226.213 114.03 225.533 117.04 225.533 120.56H229.533C229.533 117.456 230.149 115.474 231.05 114.304C231.876 113.23 233.148 112.576 235.213 112.576V108.576ZM225.533 120.56V132.368H229.533V120.56H225.533ZM224.157 120.56C224.157 115.811 225.191 112.597 226.924 110.586C228.609 108.631 231.239 107.488 235.213 107.488V103.488C230.451 103.488 226.553 104.889 223.894 107.974C221.283 111.003 220.157 115.325 220.157 120.56H224.157ZM235.213 107.488C239.184 107.488 241.879 108.718 243.642 110.898C245.468 113.156 246.557 116.754 246.557 122H250.557C250.557 116.302 249.39 111.644 246.752 108.382C244.051 105.042 240.074 103.488 235.213 103.488V107.488ZM246.558 121.927C246.382 126.776 244.819 130.372 242.002 133.024L244.744 135.936C248.455 132.444 250.348 127.784 250.556 122.073L246.558 121.927ZM242 133.026C239.095 135.77 235.374 136.829 230.236 135.784L229.438 139.704C235.628 140.963 240.739 139.718 244.746 135.934L242 133.026ZM230.085 135.759L227.781 135.471L227.285 139.441L229.589 139.729L230.085 135.759ZM225.533 137.456V150.608H229.533V137.456H225.533ZM225.533 150.608C225.533 151.398 225.349 151.647 225.323 151.677C225.314 151.688 225.302 151.701 225.257 151.719C225.202 151.74 225.076 151.776 224.845 151.776V155.776C226.13 155.776 227.421 155.368 228.351 154.291C229.237 153.265 229.533 151.93 229.533 150.608H225.533ZM224.845 151.776C224.576 151.776 224.441 151.737 224.391 151.717C224.368 151.707 224.361 151.702 224.362 151.703C224.365 151.705 224.365 151.706 224.362 151.702C224.344 151.68 224.157 151.414 224.157 150.512H220.157C220.157 151.818 220.402 153.184 221.272 154.242C222.209 155.381 223.538 155.776 224.845 155.776V151.776ZM224.157 150.512V120.56H220.157V150.512H224.157Z" fill="#A2A2A2"/>
<path d="M158.921 100.704L159.785 113.088L162.953 113.376C166.505 113.76 169.481 113.28 171.881 111.648C174.185 110.208 175.337 107.904 175.337 104.736C175.337 101.952 174.473 99.84 172.841 98.688C171.113 97.536 168.809 97.152 165.833 97.152L161.513 97.536C159.593 97.632 158.825 98.784 158.921 100.704ZM160.265 118.272L161.321 134.304C161.513 136.608 160.457 137.664 158.441 137.376C156.905 137.184 156.137 136.032 155.945 133.824L153.641 100.8C153.065 95.808 155.273 93.12 159.785 92.64L165.737 92.16C170.057 91.776 173.513 92.832 176.393 94.944C179.177 97.152 180.713 100.32 180.713 104.736C180.713 109.056 178.889 112.608 175.529 115.2C172.169 117.984 167.753 119.136 162.281 118.368L160.265 118.272ZM206.557 116.16C206.557 114.048 205.981 112.224 204.925 110.496C203.773 108.864 202.045 108 199.741 108C196.285 108 193.405 110.016 191.197 113.76C188.893 117.696 187.837 121.824 187.837 126.432C187.837 130.08 189.565 131.712 193.117 131.712C195.901 131.712 198.781 130.08 201.949 126.336C205.021 122.688 206.557 119.328 206.557 116.16ZM193.117 136.8C185.917 136.8 182.461 133.44 182.461 126.432C182.461 120.768 183.997 115.488 187.069 110.496C190.141 105.6 194.365 102.912 199.741 102.912C203.581 102.912 206.557 104.352 208.669 106.848C210.781 109.536 212.029 112.608 212.029 116.16C212.029 120.864 209.821 125.376 205.789 129.984C201.661 134.592 197.437 136.8 193.117 136.8ZM226.386 130.368L228.786 130.752C232.818 131.424 236.082 130.752 238.482 128.64C240.786 126.528 241.938 123.648 241.938 119.904C241.938 112.416 239.442 108.576 234.066 108.576C228.978 108.576 226.386 111.936 226.386 118.56V130.368ZM221.01 118.56C221.01 108.576 225.33 103.488 234.066 103.488C242.898 103.488 247.41 109.056 247.41 120C247.218 125.28 245.49 129.408 242.226 132.48C238.77 135.744 234.354 136.896 228.69 135.744L226.386 135.456V148.608C226.386 150.72 225.426 151.776 223.698 151.776C221.874 151.776 221.01 150.72 221.01 148.512V118.56Z" fill="white"/>
<path d="M158.921 100.704L156.924 100.804L156.925 100.824L156.926 100.843L158.921 100.704ZM159.785 113.088L157.79 113.227L157.909 114.926L159.604 115.08L159.785 113.088ZM162.953 113.376L163.168 111.388L163.151 111.386L163.134 111.384L162.953 113.376ZM171.881 111.648L170.821 109.952L170.789 109.972L170.757 109.994L171.881 111.648ZM172.841 98.688L173.995 97.0541L173.973 97.0387L173.951 97.0239L172.841 98.688ZM165.833 97.152V95.152H165.745L165.656 95.1599L165.833 97.152ZM161.513 97.536L161.613 99.5335L161.652 99.5316L161.69 99.5281L161.513 97.536ZM160.265 118.272L160.36 116.274L158.122 116.168L158.27 118.403L160.265 118.272ZM161.321 134.304L159.326 134.435L159.327 134.453L159.328 134.47L161.321 134.304ZM158.441 137.376L158.724 135.396L158.707 135.394L158.689 135.391L158.441 137.376ZM155.945 133.824L153.95 133.963L153.951 133.98L153.953 133.997L155.945 133.824ZM153.641 100.8L155.636 100.661L155.633 100.616L155.628 100.571L153.641 100.8ZM159.785 92.64L159.624 90.6465L159.599 90.6485L159.574 90.6512L159.785 92.64ZM165.737 92.16L165.898 94.1535L165.906 94.1529L165.914 94.1521L165.737 92.16ZM176.393 94.944L177.636 93.377L177.606 93.3535L177.576 93.3312L176.393 94.944ZM175.529 115.2L174.308 113.616L174.28 113.638L174.253 113.66L175.529 115.2ZM162.281 118.368L162.559 116.387L162.468 116.375L162.376 116.37L162.281 118.368ZM156.926 100.843L157.79 113.227L161.78 112.949L160.916 100.565L156.926 100.843ZM159.604 115.08L162.772 115.368L163.134 111.384L159.966 111.096L159.604 115.08ZM162.738 115.364C166.575 115.779 170.081 115.291 173.006 113.302L170.757 109.994C168.881 111.269 166.436 111.741 163.168 111.388L162.738 115.364ZM172.941 113.344C175.936 111.473 177.337 108.459 177.337 104.736H173.337C173.337 107.349 172.435 108.943 170.821 109.952L172.941 113.344ZM177.337 104.736C177.337 101.587 176.354 98.7193 173.995 97.0541L171.688 100.322C172.593 100.961 173.337 102.317 173.337 104.736H177.337ZM173.951 97.0239C171.716 95.5339 168.914 95.152 165.833 95.152V99.152C168.704 99.152 170.511 99.5381 171.732 100.352L173.951 97.0239ZM165.656 95.1599L161.336 95.5439L161.69 99.5281L166.01 99.1441L165.656 95.1599ZM161.413 95.5385C160.063 95.606 158.763 96.0763 157.883 97.2081C157.049 98.2801 156.864 99.6047 156.924 100.804L160.919 100.604C160.883 99.8833 161.034 99.6719 161.04 99.6639C161.042 99.6608 161.044 99.6593 161.047 99.6567C161.051 99.6539 161.065 99.6432 161.098 99.6288C161.165 99.5987 161.321 99.5481 161.613 99.5335L161.413 95.5385ZM158.27 118.403L159.326 134.435L163.317 134.173L162.261 118.141L158.27 118.403ZM159.328 134.47C159.403 135.364 159.185 135.512 159.262 135.432C159.304 135.388 159.336 135.388 159.285 135.401C159.218 135.418 159.044 135.442 158.724 135.396L158.158 139.356C159.517 139.55 161.05 139.353 162.157 138.192C163.217 137.08 163.432 135.548 163.314 134.138L159.328 134.47ZM158.689 135.391C158.532 135.372 158.462 135.337 158.437 135.322C158.416 135.31 158.382 135.287 158.332 135.216C158.21 135.04 158.02 134.6 157.938 133.651L153.953 133.997C154.062 135.256 154.352 136.496 155.046 137.496C155.806 138.591 156.911 139.2 158.193 139.361L158.689 135.391ZM157.94 133.685L155.636 100.661L151.646 100.939L153.95 133.963L157.94 133.685ZM155.628 100.571C155.375 98.3778 155.774 97.0478 156.39 96.2481C156.995 95.4629 158.083 94.8323 159.997 94.6288L159.574 90.6512C156.975 90.9276 154.704 91.8811 153.221 93.8079C151.748 95.7202 151.331 98.2302 151.654 101.029L155.628 100.571ZM159.946 94.6335L165.898 94.1535L165.576 90.1665L159.624 90.6465L159.946 94.6335ZM165.914 94.1521C169.768 93.8096 172.737 94.743 175.211 96.5568L177.576 93.3312C174.289 90.921 170.346 89.7424 165.56 90.1679L165.914 94.1521ZM175.15 96.511C177.398 98.2935 178.713 100.852 178.713 104.736H182.713C182.713 99.7877 180.957 96.0105 177.636 93.377L175.15 96.511ZM178.713 104.736C178.713 108.416 177.193 111.391 174.308 113.616L176.751 116.784C180.586 113.825 182.713 109.696 182.713 104.736H178.713ZM174.253 113.66C171.405 116.02 167.584 117.093 162.559 116.387L162.003 120.349C167.923 121.179 172.934 119.948 176.805 116.74L174.253 113.66ZM162.376 116.37L160.36 116.274L160.17 120.27L162.186 120.366L162.376 116.37ZM204.925 110.496L206.631 109.453L206.597 109.397L206.559 109.343L204.925 110.496ZM191.197 113.76L189.474 112.744L189.471 112.75L191.197 113.76ZM201.949 126.336L203.476 127.628L203.479 127.624L201.949 126.336ZM187.069 110.496L185.375 109.433L185.37 109.44L185.365 109.448L187.069 110.496ZM208.669 106.848L210.241 105.612L210.219 105.584L210.196 105.556L208.669 106.848ZM205.789 129.984L207.278 131.318L207.286 131.31L207.294 131.301L205.789 129.984ZM208.557 116.16C208.557 113.646 207.861 111.465 206.631 109.453L203.218 111.539C204.101 112.983 204.557 114.45 204.557 116.16H208.557ZM206.559 109.343C204.989 107.118 202.616 106 199.741 106V110C201.474 110 202.557 110.61 203.291 111.649L206.559 109.343ZM199.741 106C195.352 106 191.911 108.612 189.474 112.744L192.919 114.776C194.899 111.42 197.217 110 199.741 110V106ZM189.471 112.75C186.977 117.01 185.837 121.491 185.837 126.432H189.837C189.837 122.157 190.809 118.382 192.923 114.77L189.471 112.75ZM185.837 126.432C185.837 128.536 186.334 130.477 187.74 131.864C189.142 133.246 191.074 133.712 193.117 133.712V129.712C191.607 129.712 190.9 129.362 190.549 129.016C190.204 128.675 189.837 127.976 189.837 126.432H185.837ZM193.117 133.712C196.762 133.712 200.149 131.559 203.476 127.628L200.422 125.044C197.413 128.601 195.039 129.712 193.117 129.712V133.712ZM203.479 127.624C206.701 123.798 208.557 119.993 208.557 116.16H204.557C204.557 118.663 203.341 121.578 200.419 125.048L203.479 127.624ZM193.117 134.8C189.791 134.8 187.728 134.021 186.483 132.81C185.249 131.61 184.461 129.635 184.461 126.432H180.461C180.461 130.237 181.4 133.446 183.694 135.678C185.977 137.899 189.243 138.8 193.117 138.8V134.8ZM184.461 126.432C184.461 121.155 185.885 116.235 188.772 111.544L185.365 109.448C182.108 114.741 180.461 120.381 180.461 126.432H184.461ZM188.763 111.559C191.538 107.136 195.173 104.912 199.741 104.912V100.912C193.556 100.912 188.744 104.064 185.375 109.433L188.763 111.559ZM199.741 104.912C203.022 104.912 205.429 106.115 207.142 108.14L210.196 105.556C207.685 102.589 204.139 100.912 199.741 100.912V104.912ZM207.096 108.084C208.973 110.473 210.029 113.119 210.029 116.16H214.029C214.029 112.097 212.588 108.599 210.241 105.612L207.096 108.084ZM210.029 116.16C210.029 120.194 208.145 124.254 204.284 128.667L207.294 131.301C211.496 126.498 214.029 121.534 214.029 116.16H210.029ZM204.299 128.65C200.403 132.999 196.679 134.8 193.117 134.8V138.8C198.195 138.8 202.919 136.185 207.278 131.318L204.299 128.65ZM226.386 130.368H224.386V132.073L226.07 132.343L226.386 130.368ZM228.786 130.752L229.115 128.779L229.102 128.777L228.786 130.752ZM238.482 128.64L239.803 130.141L239.818 130.128L239.833 130.114L238.482 128.64ZM247.41 120L249.409 120.073L249.41 120.036V120H247.41ZM242.226 132.48L240.855 131.024L240.853 131.026L242.226 132.48ZM228.69 135.744L229.089 133.784L229.014 133.769L228.938 133.759L228.69 135.744ZM226.386 135.456L226.634 133.471L224.386 133.19V135.456H226.386ZM226.07 132.343L228.47 132.727L229.102 128.777L226.702 128.393L226.07 132.343ZM228.457 132.725C232.875 133.461 236.815 132.771 239.803 130.141L237.161 127.139C235.349 128.733 232.761 129.387 229.115 128.779L228.457 132.725ZM239.833 130.114C242.626 127.554 243.938 124.097 243.938 119.904H239.938C239.938 123.199 238.946 125.502 237.131 127.166L239.833 130.114ZM243.938 119.904C243.938 116.004 243.3 112.69 241.669 110.303C239.94 107.774 237.3 106.576 234.066 106.576V110.576C236.208 110.576 237.504 111.298 238.367 112.561C239.328 113.966 239.938 116.316 239.938 119.904H243.938ZM234.066 106.576C231.043 106.576 228.475 107.602 226.733 109.864C225.066 112.03 224.386 115.04 224.386 118.56H228.386C228.386 115.456 229.002 113.474 229.903 112.304C230.729 111.23 232.001 110.576 234.066 110.576V106.576ZM224.386 118.56V130.368H228.386V118.56H224.386ZM223.01 118.56C223.01 113.811 224.044 110.597 225.777 108.586C227.462 106.631 230.092 105.488 234.066 105.488V101.488C229.304 101.488 225.406 102.889 222.747 105.974C220.136 109.003 219.01 113.325 219.01 118.56H223.01ZM234.066 105.488C238.037 105.488 240.732 106.718 242.495 108.898C244.321 111.156 245.41 114.754 245.41 120H249.41C249.41 114.302 248.243 109.644 245.605 106.382C242.904 103.042 238.927 101.488 234.066 101.488V105.488ZM245.411 119.927C245.235 124.776 243.672 128.372 240.855 131.024L243.597 133.936C247.308 130.444 249.201 125.784 249.409 120.073L245.411 119.927ZM240.853 131.026C237.948 133.77 234.227 134.829 229.089 133.784L228.291 137.704C234.481 138.963 239.592 137.718 243.599 133.934L240.853 131.026ZM228.938 133.759L226.634 133.471L226.138 137.441L228.442 137.729L228.938 133.759ZM224.386 135.456V148.608H228.386V135.456H224.386ZM224.386 148.608C224.386 149.398 224.202 149.647 224.176 149.677C224.167 149.688 224.155 149.701 224.11 149.719C224.055 149.74 223.929 149.776 223.698 149.776V153.776C224.983 153.776 226.274 153.368 227.204 152.291C228.09 151.265 228.386 149.93 228.386 148.608H224.386ZM223.698 149.776C223.429 149.776 223.294 149.737 223.244 149.717C223.221 149.707 223.214 149.702 223.215 149.703C223.218 149.705 223.218 149.706 223.215 149.702C223.197 149.68 223.01 149.414 223.01 148.512H219.01C219.01 149.818 219.255 151.184 220.125 152.242C221.062 153.381 222.391 153.776 223.698 153.776V149.776ZM223.01 148.512V118.56H219.01V148.512H223.01Z" fill="white"/>
<path d="M222.828 41.4941C222.645 41.3216 222.422 41.196 222.18 41.128C221.937 41.06 221.682 41.0516 221.435 41.1035C221.132 40.0128 220.616 38.9929 219.917 38.1022C219.219 37.2115 218.351 36.4676 217.364 35.9134C216.376 35.3591 215.29 35.0053 214.165 34.8724C213.041 34.7394 211.902 34.8299 210.812 35.1387C210.127 33.6427 209.026 32.375 207.641 31.4863C206.256 30.5975 204.645 30.1251 203 30.1251C201.354 30.1251 199.743 30.5975 198.358 31.4863C196.974 32.375 195.873 33.6427 195.187 35.1387C194.098 34.8295 192.959 34.7386 191.835 34.871C190.711 35.0034 189.624 35.3566 188.637 35.9103C187.649 36.464 186.781 37.2073 186.082 38.0975C185.383 38.9877 184.866 40.0073 184.562 41.0977C184.306 41.045 184.04 41.0577 183.789 41.1347C183.539 41.2116 183.312 41.3503 183.129 41.538C182.946 41.7257 182.814 41.9564 182.743 42.2088C182.673 42.4612 182.667 42.7272 182.726 42.9824L188.695 68.3418C188.857 69.0274 189.245 69.6383 189.798 70.0755C190.35 70.5126 191.034 70.7503 191.738 70.75H214.262C214.966 70.7503 215.65 70.5126 216.202 70.0755C216.755 69.6383 217.143 69.0274 217.305 68.3418L223.271 42.9824C223.334 42.7172 223.325 42.4404 223.248 42.1793C223.17 41.9182 223.025 41.682 222.828 41.4941ZM192.844 37.9375C193.737 37.935 194.616 38.1538 195.404 38.5742C195.617 38.687 195.853 38.7492 196.093 38.7558C196.334 38.7624 196.573 38.7133 196.792 38.6124C197.01 38.5114 197.202 38.3613 197.353 38.1738C197.504 37.9862 197.61 37.7663 197.662 37.5313C197.932 36.3172 198.609 35.2317 199.579 34.4537C200.549 33.6757 201.756 33.2517 203 33.2517C204.244 33.2517 205.45 33.6757 206.421 34.4537C207.391 35.2317 208.067 36.3172 208.338 37.5313C208.39 37.7663 208.495 37.9862 208.646 38.1738C208.797 38.3613 208.99 38.5114 209.208 38.6124C209.427 38.7133 209.666 38.7624 209.906 38.7558C210.147 38.7492 210.383 38.687 210.596 38.5742C211.319 38.1906 212.119 37.9742 212.937 37.9411C213.755 37.908 214.57 38.059 215.322 38.3829C216.074 38.7068 216.743 39.1954 217.281 39.8127C217.819 40.4299 218.212 41.1601 218.43 41.9492L210.898 44.0977L204.162 41.4023C203.417 41.1046 202.586 41.1046 201.842 41.4023L195.103 44.1016L187.57 41.9492C187.889 40.7956 188.578 39.7785 189.53 39.0538C190.483 38.3291 191.647 37.937 192.844 37.9375ZM191.738 67.625L186.381 44.8594L193.773 46.9707L196.527 67.625H191.738ZM206.32 67.625H199.68L196.896 46.75L203 44.3086L209.103 46.75L206.32 67.625ZM214.262 67.625H209.473L212.226 46.9707L219.619 44.8594L214.262 67.625Z" fill="#A2A2A2"/>
<path d="M220.828 39.4941C220.645 39.3216 220.422 39.196 220.18 39.128C219.937 39.06 219.682 39.0516 219.435 39.1035C219.132 38.0128 218.616 36.9929 217.917 36.1022C217.219 35.2115 216.351 34.4676 215.364 33.9134C214.376 33.3591 213.29 33.0053 212.165 32.8724C211.041 32.7394 209.902 32.8299 208.812 33.1387C208.127 31.6427 207.026 30.375 205.641 29.4863C204.256 28.5975 202.645 28.1251 201 28.1251C199.354 28.1251 197.743 28.5975 196.358 29.4863C194.974 30.375 193.873 31.6427 193.187 33.1387C192.098 32.8295 190.959 32.7386 189.835 32.871C188.711 33.0034 187.624 33.3566 186.637 33.9103C185.649 34.464 184.781 35.2073 184.082 36.0975C183.383 36.9877 182.866 38.0073 182.562 39.0977C182.306 39.045 182.04 39.0577 181.789 39.1347C181.539 39.2116 181.312 39.3503 181.129 39.538C180.946 39.7257 180.814 39.9564 180.743 40.2088C180.673 40.4612 180.667 40.7272 180.726 40.9824L186.695 66.3418C186.857 67.0274 187.245 67.6383 187.798 68.0755C188.35 68.5126 189.034 68.7503 189.738 68.75H212.262C212.966 68.7503 213.65 68.5126 214.202 68.0755C214.755 67.6383 215.143 67.0274 215.305 66.3418L221.271 40.9824C221.334 40.7172 221.325 40.4404 221.248 40.1793C221.17 39.9182 221.025 39.682 220.828 39.4941ZM190.844 35.9375C191.737 35.935 192.616 36.1538 193.404 36.5742C193.617 36.687 193.853 36.7492 194.093 36.7558C194.334 36.7624 194.573 36.7133 194.792 36.6124C195.01 36.5114 195.202 36.3613 195.353 36.1738C195.504 35.9862 195.61 35.7663 195.662 35.5313C195.932 34.3172 196.609 33.2317 197.579 32.4537C198.549 31.6757 199.756 31.2517 201 31.2517C202.244 31.2517 203.45 31.6757 204.421 32.4537C205.391 33.2317 206.067 34.3172 206.338 35.5313C206.39 35.7663 206.495 35.9862 206.646 36.1738C206.797 36.3613 206.99 36.5114 207.208 36.6124C207.427 36.7133 207.666 36.7624 207.906 36.7558C208.147 36.7492 208.383 36.687 208.596 36.5742C209.319 36.1906 210.119 35.9742 210.937 35.9411C211.755 35.908 212.57 36.059 213.322 36.3829C214.074 36.7068 214.743 37.1954 215.281 37.8127C215.819 38.4299 216.212 39.1601 216.43 39.9492L208.898 42.0977L202.162 39.4023C201.417 39.1046 200.586 39.1046 199.842 39.4023L193.103 42.1016L185.57 39.9492C185.889 38.7956 186.578 37.7785 187.53 37.0538C188.483 36.3291 189.647 35.937 190.844 35.9375ZM189.738 65.625L184.381 42.8594L191.773 44.9707L194.527 65.625H189.738ZM204.32 65.625H197.68L194.896 44.75L201 42.3086L207.103 44.75L204.32 65.625ZM212.262 65.625H207.473L210.226 44.9707L217.619 42.8594L212.262 65.625Z" fill="#CBA419"/>
<path d="M129 140C140.046 140 149 132.613 149 123.5C149 117.058 144.525 111.701 138 108.984L134.5 110.5L135 116L128.5 114L122 116V110.5L119 108.984C113.022 111.837 109 117.393 109 123.5C109 132.613 117.954 140 129 140Z" stroke="#A2A2A2" stroke-width="4" stroke-linecap="round" stroke-linejoin="round"/>
<path d="M128.5 100L132.309 105.117L141 105.91L134.663 110.483L136.5 117L128.5 114L120.5 117L122.337 110.483L116 105.91L124.691 105.117L128.5 100Z" stroke="#A2A2A2" stroke-width="4" stroke-linecap="round" stroke-linejoin="round"/>
<path d="M127 138C138.046 138 147 130.613 147 121.5C147 115.058 142.525 109.701 136 106.984L132.5 108.5L133 114L126.5 112L120 114V108.5L117 106.984C111.022 109.837 107 115.393 107 121.5C107 130.613 115.954 138 127 138Z" stroke="white" stroke-width="4" stroke-linecap="round" stroke-linejoin="round"/>
<path d="M126.5 98L130.309 103.117L139 103.91L132.663 108.483L134.5 115L126.5 112L118.5 115L120.337 108.483L114 103.91L122.691 103.117L126.5 98Z" stroke="white" stroke-width="4" stroke-linecap="round" stroke-linejoin="round"/>
</svg>
