<svg width="35" height="35" viewBox="0 0 35 35" fill="none" xmlns="http://www.w3.org/2000/svg">
<rect width="35" height="35" rx="5" fill="#F3F4F6"/>
<path d="M3.41797 24.7949C3.41797 24.4889 3.52539 24.2285 3.74023 24.0137C3.95508 23.7923 4.21549 23.6816 4.52148 23.6816H6.66016V12.0898C6.66016 11.4062 6.8457 10.8919 7.2168 10.5469C7.5944 10.1953 8.10547 10.0195 8.75 10.0195H26.25C26.9336 10.0195 27.4512 10.1953 27.8027 10.5469C28.1608 10.8919 28.3398 11.4062 28.3398 12.0898V23.6816H30.4785C30.7845 23.6816 31.0449 23.7923 31.2598 24.0137C31.4746 24.2285 31.582 24.4889 31.582 24.7949C31.582 25.1009 31.4746 25.3613 31.2598 25.5762C31.0449 25.7975 30.7845 25.9082 30.4785 25.9082H4.52148C4.21549 25.9082 3.95508 25.7975 3.74023 25.5762C3.52539 25.3613 3.41797 25.1009 3.41797 24.7949ZM8.23242 23.6816H26.7676V12.5293C26.7676 12.2168 26.6895 11.9824 26.5332 11.8262C26.377 11.6699 26.1426 11.5918 25.8301 11.5918H9.16992C8.85742 11.5918 8.62305 11.6699 8.4668 11.8262C8.31055 11.9824 8.23242 12.2168 8.23242 12.5293V23.6816Z" fill="black"/>
</svg>
