<svg width="35" height="35" viewBox="0 0 35 35" fill="none" xmlns="http://www.w3.org/2000/svg">
<rect width="35" height="35" rx="5" fill="#F3F4F6"/>
<path d="M13.6 21.6L9 17L13.6 12.4L15 13.85L11.85 17L15 20.15L13.6 21.6ZM10 22H12V23H22V22H24V26C24 26.55 23.804 27.021 23.412 27.413C23.02 27.805 22.5493 28.0007 22 28H12C11.45 28 10.979 27.804 10.587 27.412C10.195 27.02 9.99933 26.5493 10 26V22ZM12 12H10V8C10 7.45 10.196 6.979 10.588 6.587C10.98 6.195 11.4507 5.99934 12 6H22C22.55 6 23.021 6.196 23.413 6.588C23.805 6.98 24.0007 7.45067 24 8V12H22V11H12V12ZM20.4 21.6L19 20.15L22.15 17L19 13.85L20.4 12.4L25 17L20.4 21.6Z" fill="black"/>
</svg>
