<svg width="316" height="175" viewBox="0 0 316 175" fill="none" xmlns="http://www.w3.org/2000/svg">
<path d="M231.828 64.4941C231.645 64.3216 231.422 64.196 231.18 64.128C230.937 64.06 230.682 64.0516 230.435 64.1035C230.132 63.0128 229.616 61.9929 228.917 61.1022C228.219 60.2115 227.351 59.4676 226.364 58.9134C225.376 58.3591 224.29 58.0053 223.165 57.8724C222.041 57.7394 220.902 57.8299 219.812 58.1387C219.127 56.6427 218.026 55.375 216.641 54.4863C215.256 53.5975 213.645 53.1251 212 53.1251C210.354 53.1251 208.743 53.5975 207.358 54.4863C205.974 55.375 204.873 56.6427 204.187 58.1387C203.098 57.8295 201.959 57.7386 200.835 57.871C199.711 58.0034 198.624 58.3566 197.637 58.9103C196.649 59.464 195.781 60.2073 195.082 61.0975C194.383 61.9877 193.866 63.0073 193.562 64.0977C193.306 64.045 193.04 64.0577 192.789 64.1347C192.539 64.2116 192.312 64.3503 192.129 64.538C191.946 64.7257 191.814 64.9564 191.743 65.2088C191.673 65.4612 191.667 65.7272 191.726 65.9824L197.695 91.3418C197.857 92.0274 198.245 92.6383 198.798 93.0755C199.35 93.5126 200.034 93.7503 200.738 93.75H223.262C223.966 93.7503 224.65 93.5126 225.202 93.0755C225.755 92.6383 226.143 92.0274 226.305 91.3418L232.271 65.9824C232.334 65.7172 232.325 65.4404 232.248 65.1793C232.17 64.9182 232.025 64.682 231.828 64.4941ZM201.844 60.9375C202.737 60.935 203.616 61.1538 204.404 61.5742C204.617 61.687 204.853 61.7492 205.093 61.7558C205.334 61.7624 205.573 61.7133 205.792 61.6124C206.01 61.5114 206.202 61.3613 206.353 61.1738C206.504 60.9862 206.61 60.7663 206.662 60.5313C206.932 59.3172 207.609 58.2317 208.579 57.4537C209.549 56.6757 210.756 56.2517 212 56.2517C213.244 56.2517 214.45 56.6757 215.421 57.4537C216.391 58.2317 217.067 59.3172 217.338 60.5313C217.39 60.7663 217.495 60.9862 217.646 61.1738C217.797 61.3613 217.99 61.5114 218.208 61.6124C218.427 61.7133 218.666 61.7624 218.906 61.7558C219.147 61.7492 219.383 61.687 219.596 61.5742C220.319 61.1906 221.119 60.9742 221.937 60.9411C222.755 60.908 223.57 61.059 224.322 61.3829C225.074 61.7068 225.743 62.1954 226.281 62.8127C226.819 63.4299 227.212 64.1601 227.43 64.9492L219.898 67.0977L213.162 64.4023C212.417 64.1046 211.586 64.1046 210.842 64.4023L204.103 67.1016L196.57 64.9492C196.889 63.7956 197.578 62.7785 198.53 62.0538C199.483 61.3291 200.647 60.937 201.844 60.9375ZM200.738 90.625L195.381 67.8594L202.773 69.9707L205.527 90.625H200.738ZM215.32 90.625H208.68L205.896 69.75L212 67.3086L218.103 69.75L215.32 90.625ZM223.262 90.625H218.473L221.226 69.9707L228.619 67.8594L223.262 90.625Z" fill="#A2A2A2"/>
<path d="M229.828 62.4941C229.645 62.3216 229.422 62.196 229.18 62.128C228.937 62.06 228.682 62.0516 228.435 62.1035C228.132 61.0128 227.616 59.9929 226.917 59.1022C226.219 58.2115 225.351 57.4676 224.364 56.9134C223.376 56.3591 222.29 56.0053 221.165 55.8724C220.041 55.7394 218.902 55.8299 217.812 56.1387C217.127 54.6427 216.026 53.375 214.641 52.4863C213.256 51.5975 211.645 51.1251 210 51.1251C208.354 51.1251 206.743 51.5975 205.358 52.4863C203.974 53.375 202.873 54.6427 202.187 56.1387C201.098 55.8295 199.959 55.7386 198.835 55.871C197.711 56.0034 196.624 56.3566 195.637 56.9103C194.649 57.464 193.781 58.2073 193.082 59.0975C192.383 59.9877 191.866 61.0073 191.562 62.0977C191.306 62.045 191.04 62.0577 190.789 62.1347C190.539 62.2116 190.312 62.3503 190.129 62.538C189.946 62.7257 189.814 62.9564 189.743 63.2088C189.673 63.4612 189.667 63.7272 189.726 63.9824L195.695 89.3418C195.857 90.0274 196.245 90.6383 196.798 91.0755C197.35 91.5126 198.034 91.7503 198.738 91.75H221.262C221.966 91.7503 222.65 91.5126 223.202 91.0755C223.755 90.6383 224.143 90.0274 224.305 89.3418L230.271 63.9824C230.334 63.7172 230.325 63.4404 230.248 63.1793C230.17 62.9182 230.025 62.682 229.828 62.4941ZM199.844 58.9375C200.737 58.935 201.616 59.1538 202.404 59.5742C202.617 59.687 202.853 59.7492 203.093 59.7558C203.334 59.7624 203.573 59.7133 203.792 59.6124C204.01 59.5114 204.202 59.3613 204.353 59.1738C204.504 58.9862 204.61 58.7663 204.662 58.5313C204.932 57.3172 205.609 56.2317 206.579 55.4537C207.549 54.6757 208.756 54.2517 210 54.2517C211.244 54.2517 212.45 54.6757 213.421 55.4537C214.391 56.2317 215.067 57.3172 215.338 58.5313C215.39 58.7663 215.495 58.9862 215.646 59.1738C215.797 59.3613 215.99 59.5114 216.208 59.6124C216.427 59.7133 216.666 59.7624 216.906 59.7558C217.147 59.7492 217.383 59.687 217.596 59.5742C218.319 59.1906 219.119 58.9742 219.937 58.9411C220.755 58.908 221.57 59.059 222.322 59.3829C223.074 59.7068 223.743 60.1954 224.281 60.8127C224.819 61.4299 225.212 62.1601 225.43 62.9492L217.898 65.0977L211.162 62.4023C210.417 62.1046 209.586 62.1046 208.842 62.4023L202.103 65.1016L194.57 62.9492C194.889 61.7956 195.578 60.7785 196.53 60.0538C197.483 59.3291 198.647 58.937 199.844 58.9375ZM198.738 88.625L193.381 65.8594L200.773 67.9707L203.527 88.625H198.738ZM213.32 88.625H206.68L203.896 67.75L210 65.3086L216.103 67.75L213.32 88.625ZM221.262 88.625H216.473L219.226 67.9707L226.619 65.8594L221.262 88.625Z" fill="#CBA419"/>
<path d="M44.2251 51.112L32.1291 51.688C30.6891 51.784 30.2091 52.84 30.4971 54.664C30.9771 57.928 31.2651 61.384 31.5531 65.128C37.6011 63.784 44.3211 62.92 51.5211 62.92C53.7291 62.92 54.9771 63.88 54.9771 65.608C54.9771 67.24 53.7291 68.008 51.6171 68.008C44.6091 68.008 38.0811 68.968 32.0331 70.504C32.2251 74.344 32.2251 78.472 32.2251 82.984C32.2251 83.752 32.5131 83.944 33.0891 83.944C41.4411 83.944 47.3931 83.272 51.0411 81.832C52.9611 80.872 54.4011 81.256 55.2651 82.504C56.2251 83.944 55.6491 85.192 53.8251 85.96C49.0251 88.072 42.1131 89.032 33.0891 89.032C28.7691 89.032 26.6571 87.112 26.8491 82.984C26.8491 71.848 26.4651 63.016 25.4091 56.392C24.3531 50.536 25.5051 47.56 28.8651 47.272L43.8411 46.216C45.9531 46.024 47.1051 46.696 47.3931 48.136C47.7771 50.056 46.6251 51.016 44.2251 51.112ZM66.6846 77.8C66.6846 82.12 68.1246 84.232 70.9086 84.232C74.1726 84.232 77.0526 82.696 79.5486 79.432C81.8526 76.168 83.1006 72.424 83.1006 68.104C83.1006 66.472 82.6206 64.936 81.7566 63.688C80.7006 62.44 79.2606 61.768 77.3406 61.768C74.9406 61.768 72.5406 63.4 70.1406 66.664C67.7406 70.024 66.6846 73.672 66.6846 77.8ZM61.4046 77.8C61.4046 72.424 63.0366 67.72 66.4926 63.304C69.7566 58.984 73.4046 56.68 77.3406 56.68C80.7966 56.68 83.4846 57.832 85.5006 59.944C87.4206 62.056 88.5726 64.744 88.5726 68.008C88.5726 75.496 89.7246 80.968 92.4126 84.328C93.6606 86.056 93.8526 87.4 92.6046 88.264C91.1646 89.224 89.6286 88.84 88.4766 87.208C87.0366 85.384 85.8846 82.888 85.1166 80.008C84.5406 81.064 83.6766 82.312 82.8126 83.464C79.5486 87.4 75.6126 89.32 70.9086 89.32C68.0286 89.32 65.6286 88.456 63.9966 86.536C62.2686 84.616 61.4046 81.64 61.4046 77.8ZM119.288 68.488C119.288 63.88 117.272 61.576 113.24 61.576C110.456 61.576 107.96 62.92 105.944 65.32C103.832 67.912 102.968 71.272 102.968 75.496C102.968 78.184 103.448 80.104 104.6 81.448C105.752 82.792 107.192 83.368 109.016 83.368C111.896 83.368 114.296 82.024 116.408 78.856C118.328 75.88 119.288 72.328 119.288 68.488ZM124.76 81.064C124.76 97.384 119.384 105.544 109.016 105.544C103.832 105.544 100.088 103.816 97.4961 100.168C96.3441 98.632 96.3441 97.288 97.6881 96.232C98.9361 95.08 100.184 95.368 101.24 96.808C103.064 99.4 105.656 100.456 109.016 100.456C115.832 100.456 119.288 94.024 119.288 81.64C119.192 81.64 119 82.024 118.808 82.312C116.504 86.44 113.24 88.456 109.016 88.456C106.04 88.456 103.352 87.4 101.144 85.096C98.7441 82.984 97.5921 79.72 97.5921 75.496C97.5921 70.024 99.0321 65.512 102.104 61.96C104.984 58.408 108.728 56.488 113.24 56.488C120.824 56.488 124.76 60.52 124.76 68.488V81.064ZM136.468 47.752C136.468 45.544 137.332 44.296 139.156 44.296C140.884 44.296 141.844 45.544 141.844 47.752V85.672C141.844 87.88 140.884 88.936 139.156 88.936C137.332 88.936 136.468 87.88 136.468 85.672V47.752ZM167.155 75.592C162.643 75.592 158.995 75.112 156.499 74.248C156.499 77.32 157.459 79.816 159.283 81.544C161.203 83.368 163.603 84.136 166.675 84.136C168.883 84.136 171.667 83.848 174.835 82.888C176.659 82.312 177.715 82.888 178.195 84.328C178.579 86.056 177.619 87.208 175.699 87.88C173.011 88.84 170.035 89.224 166.675 89.224C161.683 89.224 157.843 87.88 155.251 85C152.467 82.216 151.123 78.472 151.123 73.864C151.123 68.872 152.563 64.648 155.635 61.384C158.515 58.216 162.931 56.488 168.787 56.488C172.243 56.488 175.027 57.64 177.331 59.368C179.443 61.288 180.691 63.496 180.691 65.992C180.691 69.16 179.443 71.56 177.139 73.096C174.931 74.728 171.571 75.592 167.155 75.592ZM157.171 69.16C159.763 70.12 163.507 70.6 167.923 70.6C170.227 70.6 172.051 70.312 173.395 69.64C174.739 69.064 175.315 67.912 175.315 65.992C175.315 65.032 174.835 63.976 173.875 63.016C172.819 62.056 171.091 61.576 168.787 61.576C164.755 61.576 161.779 62.728 159.667 64.936C158.515 66.184 157.555 67.624 157.171 69.16Z" fill="#A2A2A2"/>
<path d="M44.2251 51.112L44.1452 49.1136L44.1376 49.1139L44.13 49.1143L44.2251 51.112ZM32.1291 51.688L32.034 49.6903L32.015 49.6912L31.9961 49.6924L32.1291 51.688ZM30.4971 54.664L32.4758 54.373L32.4743 54.3625L32.4727 54.3521L30.4971 54.664ZM31.5531 65.128L29.559 65.2814L29.7359 67.5806L31.987 67.0804L31.5531 65.128ZM32.0331 70.504L31.5408 68.5655L29.9539 68.9686L30.0356 70.6039L32.0331 70.504ZM51.0411 81.832L51.7755 83.6923L51.8571 83.6601L51.9356 83.6209L51.0411 81.832ZM55.2651 82.504L56.9292 81.3946L56.9195 81.38L56.9095 81.3656L55.2651 82.504ZM53.8251 85.96L53.049 84.1167L53.0343 84.1229L53.0196 84.1294L53.8251 85.96ZM26.8491 82.984L28.847 83.0769L28.8491 83.0305V82.984H26.8491ZM25.4091 56.392L27.3842 56.0771L27.381 56.0571L27.3774 56.0371L25.4091 56.392ZM28.8651 47.272L28.7244 45.277L28.7094 45.278L28.6943 45.2793L28.8651 47.272ZM43.8411 46.216L43.9818 48.211L44.002 48.2096L44.0222 48.2078L43.8411 46.216ZM47.3931 48.136L45.432 48.5282V48.5282L47.3931 48.136ZM44.13 49.1143L32.034 49.6903L32.2243 53.6857L44.3203 53.1097L44.13 49.1143ZM31.9961 49.6924C30.746 49.7758 29.5504 50.3458 28.8935 51.6C28.3313 52.6733 28.3539 53.9139 28.5216 54.9759L32.4727 54.3521C32.4174 54.0023 32.4102 53.7554 32.4224 53.5938C32.4347 53.4317 32.4625 53.407 32.4368 53.456C32.4011 53.5242 32.327 53.6105 32.2299 53.6669C32.1485 53.7141 32.1336 53.6921 32.2622 53.6836L31.9961 49.6924ZM28.5184 54.955C28.9871 58.1421 29.2708 61.5343 29.559 65.2814L33.5472 64.9746C33.2595 61.2337 32.9672 57.7139 32.4758 54.373L28.5184 54.955ZM31.987 67.0804C37.9067 65.7649 44.4808 64.92 51.5211 64.92V60.92C44.1614 60.92 37.2956 61.8031 31.1193 63.1756L31.987 67.0804ZM51.5211 64.92C52.374 64.92 52.7409 65.1107 52.8515 65.1964C52.8962 65.2311 52.9137 65.2575 52.9272 65.2872C52.9434 65.323 52.9771 65.4179 52.9771 65.608H56.9771C56.9771 64.2133 56.4445 62.9209 55.3028 62.0356C54.2374 61.2093 52.8762 60.92 51.5211 60.92V64.92ZM52.9771 65.608C52.9771 65.7587 52.9494 65.7989 52.9585 65.7806C52.9706 65.7563 52.9848 65.7522 52.9561 65.7719C52.856 65.8407 52.4854 66.008 51.6171 66.008V70.008C52.8609 70.008 54.1703 69.7913 55.2222 69.0681C56.3958 68.2612 56.9771 67.013 56.9771 65.608H52.9771ZM51.6171 66.008C44.4242 66.008 37.7303 66.9936 31.5408 68.5655L32.5254 72.4425C38.4319 70.9424 44.794 70.008 51.6171 70.008V66.008ZM30.0356 70.6039C30.2246 74.3845 30.2251 78.4599 30.2251 82.984H34.2251C34.2251 78.4841 34.2256 74.3035 34.0306 70.4041L30.0356 70.6039ZM30.2251 82.984C30.2251 83.5234 30.3071 84.4464 31.0269 85.1662C31.7574 85.8967 32.6728 85.944 33.0891 85.944V81.944C32.9294 81.944 33.4129 81.8953 33.8553 82.3378C34.2872 82.7696 34.2251 83.2126 34.2251 82.984H30.2251ZM33.0891 85.944C41.4601 85.944 47.7463 85.2828 51.7755 83.6923L50.3068 79.9717C47.0399 81.2612 41.4221 81.944 33.0891 81.944V85.944ZM51.9356 83.6209C52.6353 83.271 53.0263 83.277 53.1826 83.3061C53.2998 83.328 53.4442 83.3874 53.6207 83.6424L56.9095 81.3656C56.222 80.3726 55.2145 79.616 53.9157 79.3739C52.6559 79.139 51.3669 79.433 50.1467 80.0431L51.9356 83.6209ZM53.601 83.6134C53.7189 83.7902 53.7284 83.8702 53.7262 83.8563C53.7214 83.8259 53.7241 83.7585 53.7508 83.6962C53.7719 83.647 53.7754 83.6773 53.6704 83.7653C53.5624 83.8557 53.3679 83.9825 53.049 84.1167L54.6012 87.8033C55.7419 87.323 56.8854 86.5367 57.4274 85.2718C58.0191 83.8912 57.6673 82.5018 56.9292 81.3946L53.601 83.6134ZM53.0196 84.1294C48.606 86.0714 42.0311 87.032 33.0891 87.032V91.032C42.1952 91.032 49.4442 90.0726 54.6306 87.7906L53.0196 84.1294ZM33.0891 87.032C31.1728 87.032 30.1716 86.5992 29.6577 86.1089C29.1826 85.6557 28.7665 84.8078 28.847 83.0769L24.8513 82.8911C24.7398 85.2882 25.2836 87.4643 26.8966 89.0031C28.4706 90.5048 30.6854 91.032 33.0891 91.032V87.032ZM28.8491 82.984C28.8491 71.8292 28.4664 62.8655 27.3842 56.0771L23.4341 56.7069C24.4639 63.1665 24.8491 71.8668 24.8491 82.984H28.8491ZM27.3774 56.0371C26.8678 53.2113 26.9724 51.4475 27.3501 50.456C27.522 50.0047 27.7322 49.7606 27.937 49.6114C28.148 49.4576 28.4809 49.3123 29.0359 49.2647L28.6943 45.2793C27.5694 45.3757 26.4983 45.7104 25.5812 46.3786C24.658 47.0514 24.0162 47.9713 23.6122 49.032C22.8379 51.0645 22.8944 53.7167 23.4409 56.7469L27.3774 56.0371ZM29.0058 49.267L43.9818 48.211L43.7005 44.221L28.7244 45.277L29.0058 49.267ZM44.0222 48.2078C44.8789 48.1299 45.2385 48.262 45.3359 48.3157C45.3564 48.327 45.3643 48.334 45.3652 48.3348C45.3658 48.3354 45.3664 48.3358 45.3686 48.3389C45.3713 48.3429 45.4046 48.3915 45.432 48.5282L49.3543 47.7438C49.111 46.5272 48.4387 45.4583 47.2663 44.8123C46.1877 44.218 44.9154 44.1101 43.6601 44.2242L44.0222 48.2078ZM45.432 48.5282C45.4854 48.7954 45.4595 48.9037 45.4588 48.9067C45.4586 48.9076 45.4596 48.9034 45.4628 48.8956C45.4661 48.8877 45.4707 48.8781 45.477 48.8677C45.4905 48.845 45.5034 48.8321 45.5061 48.8296C45.5087 48.8273 45.4379 48.8922 45.2053 48.9628C44.9719 49.0337 44.6272 49.0943 44.1452 49.1136L44.3051 53.1104C45.6729 53.0557 47.1398 52.7525 48.2001 51.7864C49.4061 50.6876 49.6397 49.171 49.3543 47.7438L45.432 48.5282ZM79.5486 79.432L81.1373 80.6469L81.1605 80.6166L81.1826 80.5854L79.5486 79.432ZM81.7566 63.688L83.401 62.5496L83.3459 62.47L83.2834 62.3961L81.7566 63.688ZM70.1406 66.664L68.5293 65.4792L68.5212 65.4903L68.5132 65.5015L70.1406 66.664ZM66.4926 63.304L68.0676 64.5366L68.0781 64.5232L68.0884 64.5097L66.4926 63.304ZM85.5006 59.944L86.9805 58.5987L86.9641 58.5807L86.9473 58.563L85.5006 59.944ZM92.4126 84.328L94.034 83.157L94.0051 83.1171L93.9744 83.0786L92.4126 84.328ZM92.6046 88.264L93.714 89.9281L93.7286 89.9184L93.743 89.9084L92.6046 88.264ZM88.4766 87.208L90.1106 86.0546L90.0796 86.0108L90.0464 85.9687L88.4766 87.208ZM85.1166 80.008L87.0491 79.4927L85.7588 74.654L83.3608 79.0503L85.1166 80.008ZM82.8126 83.464L84.3521 84.7407L84.3833 84.7031L84.4126 84.664L82.8126 83.464ZM63.9966 86.536L65.5205 85.2407L65.5022 85.2191L65.4832 85.1981L63.9966 86.536ZM64.6846 77.8C64.6846 80.1197 65.0599 82.1938 66.0856 83.7411C67.206 85.4311 68.9255 86.232 70.9086 86.232V82.232C70.1077 82.232 69.7153 81.9769 69.4196 81.5309C69.0293 80.9422 68.6846 79.8003 68.6846 77.8H64.6846ZM70.9086 86.232C74.9202 86.232 78.3457 84.2975 81.1373 80.6469L77.9599 78.2171C75.7596 81.0945 73.425 82.232 70.9086 82.232V86.232ZM81.1826 80.5854C83.7232 76.9862 85.1006 72.8398 85.1006 68.104H81.1006C81.1006 72.0082 79.9821 75.3498 77.9147 78.2786L81.1826 80.5854ZM85.1006 68.104C85.1006 66.0804 84.5051 64.1444 83.401 62.5496L80.1122 64.8264C80.7362 65.7276 81.1006 66.8636 81.1006 68.104H85.1006ZM83.2834 62.3961C81.8147 60.6603 79.7963 59.768 77.3406 59.768V63.768C78.7249 63.768 79.5866 64.2197 80.2299 64.9799L83.2834 62.3961ZM77.3406 59.768C73.9695 59.768 71.0498 62.0513 68.5293 65.4792L71.7519 67.8488C74.0314 64.7487 75.9117 63.768 77.3406 63.768V59.768ZM68.5132 65.5015C65.8487 69.2317 64.6846 73.2949 64.6846 77.8H68.6846C68.6846 74.049 69.6325 70.8163 71.7681 67.8265L68.5132 65.5015ZM63.4046 77.8C63.4046 72.8838 64.8789 68.6112 68.0676 64.5366L64.9176 62.0714C61.1944 66.8288 59.4046 71.9642 59.4046 77.8H63.4046ZM68.0884 64.5097C71.1507 60.4566 74.2755 58.68 77.3406 58.68V54.68C72.5337 54.68 68.3626 57.5114 64.8969 62.0983L68.0884 64.5097ZM77.3406 58.68C80.3026 58.68 82.4501 59.6447 84.0539 61.325L86.9473 58.563C84.5192 56.0193 81.2907 54.68 77.3406 54.68V58.68ZM84.0207 61.2893C85.6166 63.0448 86.5726 65.2569 86.5726 68.008H90.5726C90.5726 64.2311 89.2247 61.0672 86.9805 58.5987L84.0207 61.2893ZM86.5726 68.008C86.5726 75.5831 87.7132 81.6553 90.8509 85.5774L93.9744 83.0786C91.7361 80.2807 90.5726 75.4089 90.5726 68.008H86.5726ZM90.7913 85.499C91.0494 85.8563 91.2195 86.1487 91.3241 86.3786C91.43 86.6113 91.4476 86.7339 91.4499 86.7651C91.4508 86.7781 91.4471 86.7139 91.4897 86.6292C91.5289 86.5513 91.5567 86.5569 91.4662 86.6196L93.743 89.9084C94.899 89.1081 95.543 87.8996 95.4394 86.4749C95.351 85.2594 94.7316 84.1229 94.034 83.157L90.7913 85.499ZM91.4952 86.5999C91.1725 86.8151 91.0041 86.7897 90.9254 86.7697C90.805 86.739 90.4973 86.6026 90.1106 86.0546L86.8427 88.3614C87.6079 89.4454 88.6443 90.317 89.9398 90.6463C91.2772 90.9863 92.5968 90.6729 93.714 89.9281L91.4952 86.5999ZM90.0464 85.9687C88.8207 84.4162 87.7685 82.1905 87.0491 79.4927L83.1842 80.5233C84.0007 83.5855 85.2525 86.3518 86.9069 88.4473L90.0464 85.9687ZM83.3608 79.0503C82.8541 79.9793 82.0581 81.1367 81.2126 82.264L84.4126 84.664C85.2952 83.4873 86.2272 82.1487 86.8724 80.9657L83.3608 79.0503ZM81.2731 82.1873C78.3563 85.7047 74.9679 87.32 70.9086 87.32V91.32C76.2574 91.32 80.741 89.0953 84.3521 84.7407L81.2731 82.1873ZM70.9086 87.32C68.4285 87.32 66.6662 86.5886 65.5205 85.2407L62.4727 87.8313C64.5911 90.3234 67.6287 91.32 70.9086 91.32V87.32ZM65.4832 85.1981C64.2217 83.7964 63.4046 81.3961 63.4046 77.8H59.4046C59.4046 81.8839 60.3155 85.4356 62.51 87.8739L65.4832 85.1981ZM105.944 65.32L104.413 64.0336L104.403 64.0451L104.394 64.0567L105.944 65.32ZM104.6 81.448L103.082 82.7496L104.6 81.448ZM116.408 78.856L118.072 79.9654L118.081 79.9529L118.089 79.9403L116.408 78.856ZM97.4961 100.168L99.1265 99.0096L99.1116 98.9886L99.0961 98.968L97.4961 100.168ZM97.6881 96.232L98.9238 97.8046L98.9863 97.7555L99.0447 97.7016L97.6881 96.232ZM101.24 96.808L102.876 95.657L102.864 95.641L102.853 95.6253L101.24 96.808ZM119.288 81.64H121.288V79.64H119.288V81.64ZM118.808 82.312L117.144 81.2026L117.1 81.2683L117.062 81.3373L118.808 82.312ZM101.144 85.096L102.588 83.7122L102.529 83.6508L102.465 83.5946L101.144 85.096ZM102.104 61.96L103.617 63.2683L103.638 63.2443L103.658 63.2196L102.104 61.96ZM121.288 68.488C121.288 65.9364 120.736 63.6492 119.281 61.987C117.782 60.2737 115.639 59.576 113.24 59.576V63.576C114.873 63.576 115.754 64.0303 116.271 64.621C116.833 65.2628 117.288 66.4316 117.288 68.488H121.288ZM113.24 59.576C109.744 59.576 106.723 61.2829 104.413 64.0336L107.476 66.6064C109.197 64.5571 111.168 63.576 113.24 63.576V59.576ZM104.394 64.0567C101.885 67.1358 100.968 71.0138 100.968 75.496H104.968C104.968 71.5302 105.78 68.6882 107.495 66.5833L104.394 64.0567ZM100.968 75.496C100.968 78.367 101.47 80.8691 103.082 82.7496L106.119 80.1464C105.426 79.3389 104.968 78.001 104.968 75.496H100.968ZM103.082 82.7496C104.666 84.5977 106.693 85.368 109.016 85.368V81.368C107.691 81.368 106.839 80.9863 106.119 80.1464L103.082 82.7496ZM109.016 85.368C112.702 85.368 115.673 83.5648 118.072 79.9654L114.744 77.7466C112.92 80.4832 111.09 81.368 109.016 81.368V85.368ZM118.089 79.9403C120.243 76.6018 121.288 72.6631 121.288 68.488H117.288C117.288 71.9929 116.414 75.1582 114.728 77.7717L118.089 79.9403ZM122.76 81.064C122.76 89.0658 121.431 94.7301 119.097 98.3375C116.856 101.801 113.58 103.544 109.016 103.544V107.544C114.82 107.544 119.416 105.207 122.455 100.511C125.401 95.9579 126.76 89.3822 126.76 81.064H122.76ZM109.016 103.544C104.352 103.544 101.275 102.034 99.1265 99.0096L95.8658 101.326C98.9012 105.599 103.312 107.544 109.016 107.544V103.544ZM99.0961 98.968C98.6619 98.3891 98.654 98.1146 98.6548 98.0927C98.655 98.0877 98.6553 98.0883 98.6547 98.0907C98.654 98.0929 98.6553 98.0868 98.6645 98.0707C98.6834 98.0377 98.7477 97.943 98.9238 97.8046L96.4525 94.6594C95.4388 95.4559 94.7078 96.5615 94.6574 97.9473C94.6102 99.2454 95.1783 100.411 95.8961 101.368L99.0961 98.968ZM99.0447 97.7016C99.208 97.5509 99.2982 97.5154 99.3053 97.5128C99.3075 97.512 99.2933 97.5173 99.2655 97.5199C99.2372 97.5225 99.2078 97.521 99.1818 97.5164C99.1268 97.5065 99.1399 97.4927 99.2233 97.5546C99.3112 97.6198 99.4515 97.751 99.6273 97.9907L102.853 95.6253C102.172 94.6963 101.199 93.8152 99.8904 93.5796C98.4943 93.3283 97.2635 93.9021 96.3316 94.7624L99.0447 97.7016ZM99.6045 97.959C101.89 101.206 105.172 102.456 109.016 102.456V98.456C106.14 98.456 104.238 97.5935 102.876 95.657L99.6045 97.959ZM109.016 102.456C113.216 102.456 116.428 100.394 118.465 96.6474C120.417 93.0569 121.288 87.9558 121.288 81.64H117.288C117.288 87.7082 116.431 92.0151 114.951 94.7366C113.556 97.3024 111.632 98.456 109.016 98.456V102.456ZM119.288 79.64C118.639 79.64 118.198 79.9447 118.051 80.0546C117.867 80.1922 117.74 80.3334 117.677 80.4076C117.547 80.5602 117.446 80.7165 117.397 80.7943C117.34 80.883 117.279 80.9859 117.242 81.0467C117.196 81.1212 117.167 81.1682 117.144 81.2026L120.472 83.4214C120.545 83.3118 120.612 83.2028 120.66 83.1243C120.716 83.0321 120.744 82.985 120.771 82.9417C120.806 82.8875 120.783 82.9298 120.722 83.0014C120.693 83.0351 120.599 83.1441 120.445 83.2595C120.363 83.3201 120.233 83.4071 120.057 83.4827C119.88 83.5587 119.616 83.64 119.288 83.64V79.64ZM117.062 81.3373C116.038 83.1708 114.862 84.4299 113.572 85.236C112.292 86.0361 110.795 86.456 109.016 86.456V90.456C111.461 90.456 113.708 89.8679 115.692 88.628C117.666 87.3941 119.274 85.5812 120.555 83.2867L117.062 81.3373ZM109.016 86.456C106.564 86.456 104.404 85.6075 102.588 83.7122L99.7001 86.4798C102.3 89.1925 105.516 90.456 109.016 90.456V86.456ZM102.465 83.5946C100.646 81.9935 99.5921 79.3793 99.5921 75.496H95.5921C95.5921 80.0607 96.8423 83.9745 99.8229 86.5974L102.465 83.5946ZM99.5921 75.496C99.5921 70.3909 100.926 66.3793 103.617 63.2683L100.591 60.6517C97.138 64.6447 95.5921 69.6571 95.5921 75.496H99.5921ZM103.658 63.2196C106.189 60.0979 109.378 58.488 113.24 58.488V54.488C108.078 54.488 103.779 56.7181 100.551 60.7004L103.658 63.2196ZM113.24 58.488C116.692 58.488 118.97 59.4005 120.404 60.8881C121.851 62.3888 122.76 64.8065 122.76 68.488H126.76C126.76 64.2015 125.701 60.6192 123.284 58.1119C120.854 55.5915 117.372 54.488 113.24 54.488V58.488ZM122.76 68.488V81.064H126.76V68.488H122.76ZM138.468 47.752C138.468 46.8568 138.651 46.4969 138.724 46.4012C138.747 46.3701 138.761 46.3609 138.785 46.3501C138.819 46.3349 138.927 46.296 139.156 46.296V42.296C137.741 42.296 136.423 42.8108 135.532 43.9908C134.716 45.0711 134.468 46.4392 134.468 47.752H138.468ZM139.156 46.296C139.346 46.296 139.441 46.3297 139.476 46.346C139.506 46.3595 139.533 46.3769 139.567 46.4216C139.653 46.5322 139.844 46.8991 139.844 47.752H143.844C143.844 46.3969 143.554 45.0358 142.728 43.9704C141.843 42.8287 140.55 42.296 139.156 42.296V46.296ZM139.844 47.752V85.672H143.844V47.752H139.844ZM139.844 85.672C139.844 86.5291 139.652 86.8038 139.62 86.8416C139.61 86.8533 139.6 86.8642 139.56 86.8801C139.51 86.9004 139.387 86.936 139.156 86.936V90.936C140.442 90.936 141.744 90.5256 142.676 89.4224C143.556 88.3802 143.844 87.0229 143.844 85.672H139.844ZM139.156 86.936C138.887 86.936 138.752 86.8965 138.702 86.8767C138.678 86.8674 138.671 86.8617 138.673 86.863C138.675 86.8645 138.676 86.8657 138.672 86.8618C138.654 86.8397 138.468 86.574 138.468 85.672H134.468C134.468 86.978 134.713 88.3443 135.583 89.4022C136.519 90.5414 137.849 90.936 139.156 90.936V86.936ZM138.468 85.672V47.752H134.468V85.672H138.468ZM156.499 74.248L157.154 72.358L154.499 71.4393V74.248H156.499ZM159.283 81.544L160.661 80.094L160.659 80.0921L159.283 81.544ZM174.835 82.888L175.415 84.802L175.427 84.7987L175.438 84.7952L174.835 82.888ZM178.195 84.328L180.148 83.8941L180.125 83.7934L180.093 83.6955L178.195 84.328ZM175.699 87.88L175.039 85.9922L175.027 85.9965L175.699 87.88ZM155.251 85L156.738 83.6621L156.703 83.623L156.666 83.5858L155.251 85ZM155.635 61.384L157.092 62.7547L157.104 62.7421L157.115 62.7293L155.635 61.384ZM177.331 59.368L178.677 57.8881L178.607 57.8246L178.531 57.768L177.331 59.368ZM177.139 73.096L176.03 71.4319L175.99 71.4588L175.951 71.4876L177.139 73.096ZM157.171 69.16L155.231 68.6749L154.797 70.4132L156.477 71.0355L157.171 69.16ZM173.395 69.64L172.608 67.8017L172.554 67.8249L172.501 67.8511L173.395 69.64ZM173.875 63.016L175.29 61.6018L175.256 61.5681L175.221 61.5361L173.875 63.016ZM159.667 64.936L158.222 63.5536L158.21 63.5664L158.198 63.5794L159.667 64.936ZM167.155 73.592C162.746 73.592 159.35 73.1182 157.154 72.358L155.845 76.138C158.641 77.1058 162.541 77.592 167.155 77.592V73.592ZM154.499 74.248C154.499 77.7445 155.603 80.8123 157.908 82.9959L160.659 80.0921C159.316 78.8197 158.499 76.8955 158.499 74.248H154.499ZM157.906 82.994C160.294 85.2626 163.241 86.136 166.675 86.136V82.136C163.966 82.136 162.113 81.4734 160.661 80.094L157.906 82.994ZM166.675 86.136C169.059 86.136 172.04 85.8249 175.415 84.802L174.255 80.974C171.295 81.8711 168.708 82.136 166.675 82.136V86.136ZM175.438 84.7952C176.097 84.5869 176.26 84.7038 176.189 84.6714C176.153 84.6551 176.14 84.6349 176.153 84.6522C176.174 84.679 176.233 84.7663 176.298 84.9605L180.093 83.6955C179.741 82.6411 179.065 81.5875 177.85 81.0326C176.675 80.4962 175.398 80.6131 174.233 80.9808L175.438 84.7952ZM176.243 84.7619C176.29 84.9745 176.281 85.0982 176.27 85.1583C176.26 85.2122 176.242 85.2587 176.2 85.3158C176.098 85.4538 175.797 85.727 175.039 85.9923L176.36 89.7677C177.522 89.361 178.661 88.7222 179.423 87.6842C180.242 86.5696 180.447 85.2422 180.148 83.8941L176.243 84.7619ZM175.027 85.9965C172.621 86.8556 169.89 87.224 166.675 87.224V91.224C170.181 91.224 173.402 90.8244 176.372 89.7635L175.027 85.9965ZM166.675 87.224C162.033 87.224 158.826 85.9823 156.738 83.6621L153.765 86.3379C156.861 89.7777 161.334 91.224 166.675 91.224V87.224ZM156.666 83.5858C154.335 81.2551 153.123 78.0635 153.123 73.864H149.123C149.123 78.8805 150.6 83.1769 153.837 86.4142L156.666 83.5858ZM153.123 73.864C153.123 69.2759 154.435 65.5774 157.092 62.7547L154.179 60.0133C150.692 63.7186 149.123 68.4681 149.123 73.864H153.123ZM157.115 62.7293C159.514 60.0913 163.322 58.488 168.787 58.488V54.488C162.541 54.488 157.517 56.3407 154.156 60.0387L157.115 62.7293ZM168.787 58.488C171.756 58.488 174.127 59.4645 176.131 60.968L178.531 57.768C175.928 55.8154 172.731 54.488 168.787 54.488V58.488ZM175.986 60.8479C177.83 62.5243 178.691 64.2335 178.691 65.992H182.691C182.691 62.7585 181.057 60.0518 178.677 57.8881L175.986 60.8479ZM178.691 65.992C178.691 68.5646 177.719 70.3057 176.03 71.4319L178.249 74.7601C181.168 72.8143 182.691 69.7554 182.691 65.992H178.691ZM175.951 71.4876C174.231 72.7589 171.366 73.592 167.155 73.592V77.592C171.777 77.592 175.632 76.6971 178.328 74.7044L175.951 71.4876ZM156.477 71.0355C159.392 72.1153 163.41 72.6 167.923 72.6V68.6C163.605 68.6 160.134 68.1247 157.866 67.2845L156.477 71.0355ZM167.923 72.6C170.344 72.6 172.535 72.306 174.29 71.4288L172.501 67.8511C171.567 68.318 170.11 68.6 167.923 68.6V72.6ZM174.183 71.4783C175.241 71.0248 176.09 70.2886 176.634 69.2427C177.149 68.2517 177.315 67.1275 177.315 65.992H173.315C173.315 66.7765 173.194 67.1883 173.085 67.3973C173.005 67.5514 172.894 67.6791 172.608 67.8017L174.183 71.4783ZM177.315 65.992C177.315 64.3617 176.513 62.8248 175.29 61.6018L172.461 64.4302C173.158 65.1272 173.315 65.7023 173.315 65.992H177.315ZM175.221 61.5361C173.622 60.0824 171.287 59.576 168.787 59.576V63.576C170.896 63.576 172.017 64.0296 172.53 64.4959L175.221 61.5361ZM168.787 59.576C164.353 59.576 160.8 60.8585 158.222 63.5536L161.113 66.3184C162.759 64.5975 165.158 63.576 168.787 63.576V59.576ZM158.198 63.5794C156.927 64.9564 155.728 66.6875 155.231 68.6749L159.112 69.6451C159.383 68.5605 160.104 67.4116 161.137 66.2926L158.198 63.5794Z" fill="#A2A2A2"/>
<path d="M42.2251 49.112L30.1291 49.688C28.6891 49.784 28.2091 50.84 28.4971 52.664C28.9771 55.928 29.2651 59.384 29.5531 63.128C35.6011 61.784 42.3211 60.92 49.5211 60.92C51.7291 60.92 52.9771 61.88 52.9771 63.608C52.9771 65.24 51.7291 66.008 49.6171 66.008C42.6091 66.008 36.0811 66.968 30.0331 68.504C30.2251 72.344 30.2251 76.472 30.2251 80.984C30.2251 81.752 30.5131 81.944 31.0891 81.944C39.4411 81.944 45.3931 81.272 49.0411 79.832C50.9611 78.872 52.4011 79.256 53.2651 80.504C54.2251 81.944 53.6491 83.192 51.8251 83.96C47.0251 86.072 40.1131 87.032 31.0891 87.032C26.7691 87.032 24.6571 85.112 24.8491 80.984C24.8491 69.848 24.4651 61.016 23.4091 54.392C22.3531 48.536 23.5051 45.56 26.8651 45.272L41.8411 44.216C43.9531 44.024 45.1051 44.696 45.3931 46.136C45.7771 48.056 44.6251 49.016 42.2251 49.112ZM64.6846 75.8C64.6846 80.12 66.1246 82.232 68.9086 82.232C72.1726 82.232 75.0526 80.696 77.5486 77.432C79.8526 74.168 81.1006 70.424 81.1006 66.104C81.1006 64.472 80.6206 62.936 79.7566 61.688C78.7006 60.44 77.2606 59.768 75.3406 59.768C72.9406 59.768 70.5406 61.4 68.1406 64.664C65.7406 68.024 64.6846 71.672 64.6846 75.8ZM59.4046 75.8C59.4046 70.424 61.0366 65.72 64.4926 61.304C67.7566 56.984 71.4046 54.68 75.3406 54.68C78.7966 54.68 81.4846 55.832 83.5006 57.944C85.4206 60.056 86.5726 62.744 86.5726 66.008C86.5726 73.496 87.7246 78.968 90.4126 82.328C91.6606 84.056 91.8526 85.4 90.6046 86.264C89.1646 87.224 87.6286 86.84 86.4766 85.208C85.0366 83.384 83.8846 80.888 83.1166 78.008C82.5406 79.064 81.6766 80.312 80.8126 81.464C77.5486 85.4 73.6126 87.32 68.9086 87.32C66.0286 87.32 63.6286 86.456 61.9966 84.536C60.2686 82.616 59.4046 79.64 59.4046 75.8ZM117.288 66.488C117.288 61.88 115.272 59.576 111.24 59.576C108.456 59.576 105.96 60.92 103.944 63.32C101.832 65.912 100.968 69.272 100.968 73.496C100.968 76.184 101.448 78.104 102.6 79.448C103.752 80.792 105.192 81.368 107.016 81.368C109.896 81.368 112.296 80.024 114.408 76.856C116.328 73.88 117.288 70.328 117.288 66.488ZM122.76 79.064C122.76 95.384 117.384 103.544 107.016 103.544C101.832 103.544 98.0881 101.816 95.4961 98.168C94.3441 96.632 94.3441 95.288 95.6881 94.232C96.9361 93.08 98.1841 93.368 99.2401 94.808C101.064 97.4 103.656 98.456 107.016 98.456C113.832 98.456 117.288 92.024 117.288 79.64C117.192 79.64 117 80.024 116.808 80.312C114.504 84.44 111.24 86.456 107.016 86.456C104.04 86.456 101.352 85.4 99.1441 83.096C96.7441 80.984 95.5921 77.72 95.5921 73.496C95.5921 68.024 97.0321 63.512 100.104 59.96C102.984 56.408 106.728 54.488 111.24 54.488C118.824 54.488 122.76 58.52 122.76 66.488V79.064ZM134.468 45.752C134.468 43.544 135.332 42.296 137.156 42.296C138.884 42.296 139.844 43.544 139.844 45.752V83.672C139.844 85.88 138.884 86.936 137.156 86.936C135.332 86.936 134.468 85.88 134.468 83.672V45.752ZM165.155 73.592C160.643 73.592 156.995 73.112 154.499 72.248C154.499 75.32 155.459 77.816 157.283 79.544C159.203 81.368 161.603 82.136 164.675 82.136C166.883 82.136 169.667 81.848 172.835 80.888C174.659 80.312 175.715 80.888 176.195 82.328C176.579 84.056 175.619 85.208 173.699 85.88C171.011 86.84 168.035 87.224 164.675 87.224C159.683 87.224 155.843 85.88 153.251 83C150.467 80.216 149.123 76.472 149.123 71.864C149.123 66.872 150.563 62.648 153.635 59.384C156.515 56.216 160.931 54.488 166.787 54.488C170.243 54.488 173.027 55.64 175.331 57.368C177.443 59.288 178.691 61.496 178.691 63.992C178.691 67.16 177.443 69.56 175.139 71.096C172.931 72.728 169.571 73.592 165.155 73.592ZM155.171 67.16C157.763 68.12 161.507 68.6 165.923 68.6C168.227 68.6 170.051 68.312 171.395 67.64C172.739 67.064 173.315 65.912 173.315 63.992C173.315 63.032 172.835 61.976 171.875 61.016C170.819 60.056 169.091 59.576 166.787 59.576C162.755 59.576 159.779 60.728 157.667 62.936C156.515 64.184 155.555 65.624 155.171 67.16Z" fill="white"/>
<path d="M42.2251 49.112L42.1452 47.1136L42.1376 47.1139L42.13 47.1143L42.2251 49.112ZM30.1291 49.688L30.034 47.6903L30.015 47.6912L29.9961 47.6924L30.1291 49.688ZM28.4971 52.664L30.4758 52.373L30.4743 52.3625L30.4727 52.3521L28.4971 52.664ZM29.5531 63.128L27.559 63.2814L27.7359 65.5806L29.987 65.0804L29.5531 63.128ZM30.0331 68.504L29.5408 66.5655L27.9539 66.9686L28.0356 68.6039L30.0331 68.504ZM49.0411 79.832L49.7755 81.6923L49.8571 81.6601L49.9356 81.6209L49.0411 79.832ZM53.2651 80.504L54.9292 79.3946L54.9195 79.38L54.9095 79.3656L53.2651 80.504ZM51.8251 83.96L51.049 82.1167L51.0343 82.1229L51.0196 82.1294L51.8251 83.96ZM24.8491 80.984L26.847 81.0769L26.8491 81.0305V80.984H24.8491ZM23.4091 54.392L25.3842 54.0771L25.381 54.0571L25.3774 54.0371L23.4091 54.392ZM26.8651 45.272L26.7244 43.277L26.7094 43.278L26.6943 43.2793L26.8651 45.272ZM41.8411 44.216L41.9818 46.211L42.002 46.2096L42.0222 46.2078L41.8411 44.216ZM45.3931 46.136L43.432 46.5282V46.5282L45.3931 46.136ZM42.13 47.1143L30.034 47.6903L30.2243 51.6857L42.3203 51.1097L42.13 47.1143ZM29.9961 47.6924C28.746 47.7758 27.5504 48.3458 26.8935 49.6C26.3313 50.6733 26.3539 51.9139 26.5216 52.9759L30.4727 52.3521C30.4174 52.0023 30.4102 51.7554 30.4224 51.5938C30.4347 51.4317 30.4625 51.407 30.4368 51.456C30.4011 51.5242 30.327 51.6105 30.2299 51.6669C30.1485 51.7141 30.1336 51.6921 30.2622 51.6836L29.9961 47.6924ZM26.5184 52.955C26.9871 56.1421 27.2708 59.5343 27.559 63.2814L31.5472 62.9746C31.2595 59.2337 30.9672 55.7139 30.4758 52.373L26.5184 52.955ZM29.987 65.0804C35.9067 63.7649 42.4808 62.92 49.5211 62.92V58.92C42.1614 58.92 35.2956 59.8031 29.1193 61.1756L29.987 65.0804ZM49.5211 62.92C50.374 62.92 50.7409 63.1107 50.8515 63.1964C50.8962 63.2311 50.9137 63.2575 50.9272 63.2872C50.9434 63.323 50.9771 63.4179 50.9771 63.608H54.9771C54.9771 62.2133 54.4445 60.9209 53.3028 60.0356C52.2374 59.2093 50.8762 58.92 49.5211 58.92V62.92ZM50.9771 63.608C50.9771 63.7587 50.9494 63.7989 50.9585 63.7806C50.9706 63.7563 50.9848 63.7522 50.9561 63.7719C50.856 63.8407 50.4854 64.008 49.6171 64.008V68.008C50.8609 68.008 52.1703 67.7913 53.2222 67.0681C54.3958 66.2612 54.9771 65.013 54.9771 63.608H50.9771ZM49.6171 64.008C42.4242 64.008 35.7303 64.9936 29.5408 66.5655L30.5254 70.4425C36.4319 68.9424 42.794 68.008 49.6171 68.008V64.008ZM28.0356 68.6039C28.2246 72.3845 28.2251 76.4599 28.2251 80.984H32.2251C32.2251 76.4841 32.2256 72.3035 32.0306 68.4041L28.0356 68.6039ZM28.2251 80.984C28.2251 81.5234 28.3071 82.4464 29.0269 83.1662C29.7574 83.8967 30.6728 83.944 31.0891 83.944V79.944C30.9294 79.944 31.4129 79.8953 31.8553 80.3378C32.2872 80.7696 32.2251 81.2126 32.2251 80.984H28.2251ZM31.0891 83.944C39.4601 83.944 45.7463 83.2828 49.7755 81.6923L48.3068 77.9717C45.0399 79.2612 39.4221 79.944 31.0891 79.944V83.944ZM49.9356 81.6209C50.6353 81.271 51.0263 81.277 51.1826 81.3061C51.2998 81.328 51.4442 81.3874 51.6207 81.6424L54.9095 79.3656C54.222 78.3726 53.2145 77.616 51.9157 77.3739C50.6559 77.139 49.3669 77.433 48.1467 78.0431L49.9356 81.6209ZM51.601 81.6134C51.7189 81.7902 51.7284 81.8702 51.7262 81.8563C51.7214 81.8259 51.7241 81.7585 51.7508 81.6962C51.7719 81.647 51.7754 81.6773 51.6704 81.7653C51.5624 81.8557 51.3679 81.9825 51.049 82.1167L52.6012 85.8033C53.7419 85.323 54.8854 84.5367 55.4274 83.2718C56.0191 81.8912 55.6673 80.5018 54.9292 79.3946L51.601 81.6134ZM51.0196 82.1294C46.606 84.0714 40.0311 85.032 31.0891 85.032V89.032C40.1952 89.032 47.4442 88.0726 52.6306 85.7906L51.0196 82.1294ZM31.0891 85.032C29.1728 85.032 28.1716 84.5992 27.6577 84.1089C27.1826 83.6557 26.7665 82.8078 26.847 81.0769L22.8513 80.8911C22.7398 83.2882 23.2836 85.4643 24.8966 87.0031C26.4706 88.5048 28.6854 89.032 31.0891 89.032V85.032ZM26.8491 80.984C26.8491 69.8292 26.4664 60.8655 25.3842 54.0771L21.4341 54.7069C22.4639 61.1665 22.8491 69.8668 22.8491 80.984H26.8491ZM25.3774 54.0371C24.8678 51.2113 24.9724 49.4475 25.3501 48.456C25.522 48.0047 25.7322 47.7606 25.937 47.6114C26.148 47.4576 26.4809 47.3123 27.0359 47.2647L26.6943 43.2793C25.5694 43.3757 24.4983 43.7104 23.5812 44.3786C22.658 45.0514 22.0162 45.9713 21.6122 47.032C20.8379 49.0645 20.8944 51.7167 21.4409 54.7469L25.3774 54.0371ZM27.0058 47.267L41.9818 46.211L41.7005 42.221L26.7244 43.277L27.0058 47.267ZM42.0222 46.2078C42.8789 46.1299 43.2385 46.262 43.3359 46.3157C43.3564 46.327 43.3643 46.334 43.3652 46.3348C43.3658 46.3354 43.3664 46.3358 43.3686 46.3389C43.3713 46.3429 43.4046 46.3915 43.432 46.5282L47.3543 45.7438C47.111 44.5272 46.4387 43.4583 45.2663 42.8123C44.1877 42.218 42.9154 42.1101 41.6601 42.2242L42.0222 46.2078ZM43.432 46.5282C43.4854 46.7954 43.4595 46.9037 43.4588 46.9067C43.4586 46.9076 43.4596 46.9034 43.4628 46.8956C43.4661 46.8877 43.4707 46.8781 43.477 46.8677C43.4905 46.845 43.5034 46.8321 43.5061 46.8296C43.5087 46.8273 43.4379 46.8922 43.2053 46.9628C42.9719 47.0337 42.6272 47.0943 42.1452 47.1136L42.3051 51.1104C43.6729 51.0557 45.1398 50.7525 46.2001 49.7864C47.4061 48.6876 47.6397 47.171 47.3543 45.7438L43.432 46.5282ZM77.5486 77.432L79.1373 78.6469L79.1605 78.6166L79.1826 78.5854L77.5486 77.432ZM79.7566 61.688L81.401 60.5496L81.3459 60.47L81.2834 60.3961L79.7566 61.688ZM68.1406 64.664L66.5293 63.4792L66.5212 63.4903L66.5132 63.5015L68.1406 64.664ZM64.4926 61.304L66.0676 62.5366L66.0781 62.5232L66.0884 62.5097L64.4926 61.304ZM83.5006 57.944L84.9805 56.5987L84.9641 56.5807L84.9473 56.563L83.5006 57.944ZM90.4126 82.328L92.034 81.157L92.0051 81.1171L91.9744 81.0786L90.4126 82.328ZM90.6046 86.264L91.714 87.9281L91.7286 87.9184L91.743 87.9084L90.6046 86.264ZM86.4766 85.208L88.1106 84.0546L88.0796 84.0108L88.0464 83.9687L86.4766 85.208ZM83.1166 78.008L85.0491 77.4927L83.7588 72.654L81.3608 77.0503L83.1166 78.008ZM80.8126 81.464L82.3521 82.7407L82.3833 82.7031L82.4126 82.664L80.8126 81.464ZM61.9966 84.536L63.5205 83.2407L63.5022 83.2191L63.4832 83.1981L61.9966 84.536ZM62.6846 75.8C62.6846 78.1197 63.0599 80.1938 64.0856 81.7411C65.206 83.4311 66.9255 84.232 68.9086 84.232V80.232C68.1077 80.232 67.7153 79.9769 67.4196 79.5309C67.0293 78.9422 66.6846 77.8003 66.6846 75.8H62.6846ZM68.9086 84.232C72.9202 84.232 76.3457 82.2975 79.1373 78.6469L75.9599 76.2171C73.7596 79.0945 71.425 80.232 68.9086 80.232V84.232ZM79.1826 78.5854C81.7232 74.9862 83.1006 70.8398 83.1006 66.104H79.1006C79.1006 70.0082 77.9821 73.3498 75.9147 76.2786L79.1826 78.5854ZM83.1006 66.104C83.1006 64.0804 82.5051 62.1444 81.401 60.5496L78.1122 62.8264C78.7362 63.7276 79.1006 64.8636 79.1006 66.104H83.1006ZM81.2834 60.3961C79.8147 58.6603 77.7963 57.768 75.3406 57.768V61.768C76.7249 61.768 77.5866 62.2197 78.2299 62.9799L81.2834 60.3961ZM75.3406 57.768C71.9695 57.768 69.0498 60.0513 66.5293 63.4792L69.7519 65.8488C72.0314 62.7487 73.9117 61.768 75.3406 61.768V57.768ZM66.5132 63.5015C63.8487 67.2317 62.6846 71.2949 62.6846 75.8H66.6846C66.6846 72.049 67.6325 68.8163 69.7681 65.8265L66.5132 63.5015ZM61.4046 75.8C61.4046 70.8838 62.8789 66.6112 66.0676 62.5366L62.9176 60.0714C59.1944 64.8288 57.4046 69.9642 57.4046 75.8H61.4046ZM66.0884 62.5097C69.1507 58.4566 72.2755 56.68 75.3406 56.68V52.68C70.5337 52.68 66.3626 55.5114 62.8969 60.0983L66.0884 62.5097ZM75.3406 56.68C78.3026 56.68 80.4501 57.6447 82.0539 59.325L84.9473 56.563C82.5192 54.0193 79.2907 52.68 75.3406 52.68V56.68ZM82.0207 59.2893C83.6166 61.0448 84.5726 63.2569 84.5726 66.008H88.5726C88.5726 62.2311 87.2247 59.0672 84.9805 56.5987L82.0207 59.2893ZM84.5726 66.008C84.5726 73.5831 85.7132 79.6553 88.8509 83.5774L91.9744 81.0786C89.7361 78.2807 88.5726 73.4089 88.5726 66.008H84.5726ZM88.7913 83.499C89.0494 83.8563 89.2195 84.1487 89.3241 84.3786C89.43 84.6113 89.4476 84.7339 89.4499 84.7651C89.4508 84.7781 89.4471 84.7139 89.4897 84.6292C89.5289 84.5513 89.5567 84.5569 89.4662 84.6196L91.743 87.9084C92.899 87.1081 93.543 85.8996 93.4394 84.4749C93.351 83.2594 92.7316 82.1229 92.034 81.157L88.7913 83.499ZM89.4952 84.5999C89.1725 84.8151 89.0041 84.7897 88.9254 84.7697C88.805 84.739 88.4973 84.6026 88.1106 84.0546L84.8427 86.3614C85.6079 87.4454 86.6443 88.317 87.9398 88.6463C89.2772 88.9863 90.5968 88.6729 91.714 87.9281L89.4952 84.5999ZM88.0464 83.9687C86.8207 82.4162 85.7685 80.1905 85.0491 77.4927L81.1842 78.5233C82.0007 81.5855 83.2525 84.3518 84.9069 86.4473L88.0464 83.9687ZM81.3608 77.0503C80.8541 77.9793 80.0581 79.1367 79.2126 80.264L82.4126 82.664C83.2952 81.4873 84.2272 80.1487 84.8724 78.9657L81.3608 77.0503ZM79.2731 80.1873C76.3563 83.7047 72.9679 85.32 68.9086 85.32V89.32C74.2574 89.32 78.741 87.0953 82.3521 82.7407L79.2731 80.1873ZM68.9086 85.32C66.4285 85.32 64.6662 84.5886 63.5205 83.2407L60.4727 85.8313C62.5911 88.3234 65.6287 89.32 68.9086 89.32V85.32ZM63.4832 83.1981C62.2217 81.7964 61.4046 79.3961 61.4046 75.8H57.4046C57.4046 79.8839 58.3155 83.4356 60.51 85.8739L63.4832 83.1981ZM103.944 63.32L102.413 62.0336L102.403 62.0451L102.394 62.0567L103.944 63.32ZM102.6 79.448L101.082 80.7496L102.6 79.448ZM114.408 76.856L116.072 77.9654L116.081 77.9529L116.089 77.9403L114.408 76.856ZM95.4961 98.168L97.1265 97.0096L97.1116 96.9886L97.0961 96.968L95.4961 98.168ZM95.6881 94.232L96.9238 95.8046L96.9863 95.7555L97.0447 95.7016L95.6881 94.232ZM99.2401 94.808L100.876 93.657L100.864 93.641L100.853 93.6253L99.2401 94.808ZM117.288 79.64H119.288V77.64H117.288V79.64ZM116.808 80.312L115.144 79.2026L115.1 79.2683L115.062 79.3373L116.808 80.312ZM99.1441 83.096L100.588 81.7122L100.529 81.6508L100.465 81.5946L99.1441 83.096ZM100.104 59.96L101.617 61.2683L101.638 61.2443L101.658 61.2196L100.104 59.96ZM119.288 66.488C119.288 63.9364 118.736 61.6492 117.281 59.987C115.782 58.2737 113.639 57.576 111.24 57.576V61.576C112.873 61.576 113.754 62.0303 114.271 62.621C114.833 63.2628 115.288 64.4316 115.288 66.488H119.288ZM111.24 57.576C107.744 57.576 104.723 59.2829 102.413 62.0336L105.476 64.6064C107.197 62.5571 109.168 61.576 111.24 61.576V57.576ZM102.394 62.0567C99.8848 65.1358 98.9681 69.0138 98.9681 73.496H102.968C102.968 69.5302 103.78 66.6882 105.495 64.5833L102.394 62.0567ZM98.9681 73.496C98.9681 76.367 99.4698 78.8691 101.082 80.7496L104.119 78.1464C103.426 77.3389 102.968 76.001 102.968 73.496H98.9681ZM101.082 80.7496C102.666 82.5977 104.693 83.368 107.016 83.368V79.368C105.691 79.368 104.839 78.9863 104.119 78.1464L101.082 80.7496ZM107.016 83.368C110.702 83.368 113.673 81.5648 116.072 77.9654L112.744 75.7466C110.92 78.4832 109.09 79.368 107.016 79.368V83.368ZM116.089 77.9403C118.243 74.6018 119.288 70.6631 119.288 66.488H115.288C115.288 69.9929 114.414 73.1582 112.728 75.7717L116.089 77.9403ZM120.76 79.064C120.76 87.0658 119.431 92.7301 117.097 96.3375C114.856 99.8008 111.58 101.544 107.016 101.544V105.544C112.82 105.544 117.416 103.207 120.455 98.5105C123.401 93.9579 124.76 87.3822 124.76 79.064H120.76ZM107.016 101.544C102.352 101.544 99.2751 100.034 97.1265 97.0096L93.8658 99.3264C96.9012 103.599 101.312 105.544 107.016 105.544V101.544ZM97.0961 96.968C96.6619 96.3891 96.654 96.1146 96.6548 96.0927C96.655 96.0877 96.6553 96.0883 96.6547 96.0907C96.654 96.0929 96.6553 96.0868 96.6645 96.0707C96.6834 96.0377 96.7477 95.943 96.9238 95.8046L94.4525 92.6594C93.4388 93.4559 92.7078 94.5615 92.6574 95.9473C92.6102 97.2454 93.1783 98.4109 93.8961 99.368L97.0961 96.968ZM97.0447 95.7016C97.208 95.5509 97.2982 95.5154 97.3053 95.5128C97.3075 95.512 97.2933 95.5173 97.2655 95.5199C97.2372 95.5225 97.2078 95.521 97.1818 95.5164C97.1268 95.5065 97.1399 95.4927 97.2233 95.5546C97.3112 95.6198 97.4515 95.751 97.6273 95.9907L100.853 93.6253C100.172 92.6963 99.1992 91.8152 97.8904 91.5796C96.4943 91.3283 95.2635 91.9021 94.3316 92.7624L97.0447 95.7016ZM97.6045 95.959C99.8898 99.2065 103.172 100.456 107.016 100.456V96.456C104.14 96.456 102.238 95.5935 100.876 93.657L97.6045 95.959ZM107.016 100.456C111.216 100.456 114.428 98.3936 116.465 94.6474C118.417 91.0569 119.288 85.9558 119.288 79.64H115.288C115.288 85.7082 114.431 90.0151 112.951 92.7366C111.556 95.3024 109.632 96.456 107.016 96.456V100.456ZM117.288 77.64C116.639 77.64 116.198 77.9447 116.051 78.0546C115.867 78.1922 115.74 78.3334 115.677 78.4076C115.547 78.5602 115.446 78.7165 115.397 78.7943C115.34 78.883 115.279 78.9859 115.242 79.0467C115.196 79.1212 115.167 79.1682 115.144 79.2026L118.472 81.4214C118.545 81.3118 118.612 81.2028 118.66 81.1243C118.716 81.0321 118.744 80.985 118.771 80.9417C118.806 80.8875 118.783 80.9298 118.722 81.0014C118.693 81.0351 118.599 81.1441 118.445 81.2595C118.363 81.3201 118.233 81.4071 118.057 81.4827C117.88 81.5587 117.616 81.64 117.288 81.64V77.64ZM115.062 79.3373C114.038 81.1708 112.862 82.4299 111.572 83.236C110.292 84.0361 108.795 84.456 107.016 84.456V88.456C109.461 88.456 111.708 87.8679 113.692 86.628C115.666 85.3941 117.274 83.5812 118.555 81.2867L115.062 79.3373ZM107.016 84.456C104.564 84.456 102.404 83.6075 100.588 81.7122L97.7001 84.4798C100.3 87.1925 103.516 88.456 107.016 88.456V84.456ZM100.465 81.5946C98.646 79.9935 97.5921 77.3793 97.5921 73.496H93.5921C93.5921 78.0607 94.8423 81.9745 97.8229 84.5974L100.465 81.5946ZM97.5921 73.496C97.5921 68.3909 98.9262 64.3793 101.617 61.2683L98.5914 58.6517C95.138 62.6447 93.5921 67.6571 93.5921 73.496H97.5921ZM101.658 61.2196C104.189 58.0979 107.378 56.488 111.24 56.488V52.488C106.078 52.488 101.779 54.7181 98.5506 58.7004L101.658 61.2196ZM111.24 56.488C114.692 56.488 116.97 57.4005 118.404 58.8881C119.851 60.3888 120.76 62.8065 120.76 66.488H124.76C124.76 62.2015 123.701 58.6192 121.284 56.1119C118.854 53.5915 115.372 52.488 111.24 52.488V56.488ZM120.76 66.488V79.064H124.76V66.488H120.76ZM136.468 45.752C136.468 44.8568 136.651 44.4969 136.724 44.4012C136.747 44.3701 136.761 44.3609 136.785 44.3501C136.819 44.3349 136.927 44.296 137.156 44.296V40.296C135.741 40.296 134.423 40.8108 133.532 41.9908C132.716 43.0711 132.468 44.4392 132.468 45.752H136.468ZM137.156 44.296C137.346 44.296 137.441 44.3297 137.476 44.346C137.506 44.3595 137.533 44.3769 137.567 44.4216C137.653 44.5322 137.844 44.8991 137.844 45.752H141.844C141.844 44.3969 141.554 43.0358 140.728 41.9704C139.843 40.8287 138.55 40.296 137.156 40.296V44.296ZM137.844 45.752V83.672H141.844V45.752H137.844ZM137.844 83.672C137.844 84.5291 137.652 84.8038 137.62 84.8416C137.61 84.8533 137.6 84.8642 137.56 84.8801C137.51 84.9004 137.387 84.936 137.156 84.936V88.936C138.442 88.936 139.744 88.5256 140.676 87.4224C141.556 86.3802 141.844 85.0229 141.844 83.672H137.844ZM137.156 84.936C136.887 84.936 136.752 84.8965 136.702 84.8767C136.678 84.8674 136.671 84.8617 136.673 84.863C136.675 84.8645 136.676 84.8657 136.672 84.8618C136.654 84.8397 136.468 84.574 136.468 83.672H132.468C132.468 84.978 132.713 86.3443 133.583 87.4022C134.519 88.5414 135.849 88.936 137.156 88.936V84.936ZM136.468 83.672V45.752H132.468V83.672H136.468ZM154.499 72.248L155.154 70.358L152.499 69.4393V72.248H154.499ZM157.283 79.544L158.661 78.094L158.659 78.0921L157.283 79.544ZM172.835 80.888L173.415 82.802L173.427 82.7987L173.438 82.7952L172.835 80.888ZM176.195 82.328L178.148 81.8941L178.125 81.7934L178.093 81.6955L176.195 82.328ZM173.699 85.88L173.039 83.9922L173.027 83.9965L173.699 85.88ZM153.251 83L154.738 81.6621L154.703 81.623L154.666 81.5858L153.251 83ZM153.635 59.384L155.092 60.7547L155.104 60.7421L155.115 60.7293L153.635 59.384ZM175.331 57.368L176.677 55.8881L176.607 55.8246L176.531 55.768L175.331 57.368ZM175.139 71.096L174.03 69.4319L173.99 69.4588L173.951 69.4876L175.139 71.096ZM155.171 67.16L153.231 66.6749L152.797 68.4132L154.477 69.0355L155.171 67.16ZM171.395 67.64L170.608 65.8017L170.554 65.8249L170.501 65.8511L171.395 67.64ZM171.875 61.016L173.29 59.6018L173.256 59.5681L173.221 59.5361L171.875 61.016ZM157.667 62.936L156.222 61.5536L156.21 61.5664L156.198 61.5794L157.667 62.936ZM165.155 71.592C160.746 71.592 157.35 71.1182 155.154 70.358L153.845 74.138C156.641 75.1058 160.541 75.592 165.155 75.592V71.592ZM152.499 72.248C152.499 75.7445 153.603 78.8123 155.908 80.9959L158.659 78.0921C157.316 76.8197 156.499 74.8955 156.499 72.248H152.499ZM155.906 80.994C158.294 83.2626 161.241 84.136 164.675 84.136V80.136C161.966 80.136 160.113 79.4734 158.661 78.094L155.906 80.994ZM164.675 84.136C167.059 84.136 170.04 83.8249 173.415 82.802L172.255 78.974C169.295 79.8711 166.708 80.136 164.675 80.136V84.136ZM173.438 82.7952C174.097 82.5869 174.26 82.7038 174.189 82.6714C174.153 82.6551 174.14 82.6349 174.153 82.6522C174.174 82.679 174.233 82.7663 174.298 82.9605L178.093 81.6955C177.741 80.6411 177.065 79.5875 175.85 79.0326C174.675 78.4962 173.398 78.6131 172.233 78.9808L173.438 82.7952ZM174.243 82.7619C174.29 82.9745 174.281 83.0982 174.27 83.1583C174.26 83.2122 174.242 83.2587 174.2 83.3158C174.098 83.4538 173.797 83.727 173.039 83.9923L174.36 87.7677C175.522 87.361 176.661 86.7222 177.423 85.6842C178.242 84.5696 178.447 83.2422 178.148 81.8941L174.243 82.7619ZM173.027 83.9965C170.621 84.8556 167.89 85.224 164.675 85.224V89.224C168.181 89.224 171.402 88.8244 174.372 87.7635L173.027 83.9965ZM164.675 85.224C160.033 85.224 156.826 83.9823 154.738 81.6621L151.765 84.3379C154.861 87.7777 159.334 89.224 164.675 89.224V85.224ZM154.666 81.5858C152.335 79.2551 151.123 76.0635 151.123 71.864H147.123C147.123 76.8805 148.6 81.1769 151.837 84.4142L154.666 81.5858ZM151.123 71.864C151.123 67.2759 152.435 63.5774 155.092 60.7547L152.179 58.0133C148.692 61.7186 147.123 66.4681 147.123 71.864H151.123ZM155.115 60.7293C157.514 58.0913 161.322 56.488 166.787 56.488V52.488C160.541 52.488 155.517 54.3407 152.156 58.0387L155.115 60.7293ZM166.787 56.488C169.756 56.488 172.127 57.4645 174.131 58.968L176.531 55.768C173.928 53.8154 170.731 52.488 166.787 52.488V56.488ZM173.986 58.8479C175.83 60.5243 176.691 62.2335 176.691 63.992H180.691C180.691 60.7585 179.057 58.0518 176.677 55.8881L173.986 58.8479ZM176.691 63.992C176.691 66.5646 175.719 68.3057 174.03 69.4319L176.249 72.7601C179.168 70.8143 180.691 67.7554 180.691 63.992H176.691ZM173.951 69.4876C172.231 70.7589 169.366 71.592 165.155 71.592V75.592C169.777 75.592 173.632 74.6971 176.328 72.7044L173.951 69.4876ZM154.477 69.0355C157.392 70.1153 161.41 70.6 165.923 70.6V66.6C161.605 66.6 158.134 66.1247 155.866 65.2845L154.477 69.0355ZM165.923 70.6C168.344 70.6 170.535 70.306 172.29 69.4288L170.501 65.8511C169.567 66.318 168.11 66.6 165.923 66.6V70.6ZM172.183 69.4783C173.241 69.0248 174.09 68.2886 174.634 67.2427C175.149 66.2517 175.315 65.1275 175.315 63.992H171.315C171.315 64.7765 171.194 65.1883 171.085 65.3973C171.005 65.5514 170.894 65.6791 170.608 65.8017L172.183 69.4783ZM175.315 63.992C175.315 62.3617 174.513 60.8248 173.29 59.6018L170.461 62.4302C171.158 63.1272 171.315 63.7023 171.315 63.992H175.315ZM173.221 59.5361C171.622 58.0824 169.287 57.576 166.787 57.576V61.576C168.896 61.576 170.017 62.0296 170.53 62.4959L173.221 59.5361ZM166.787 57.576C162.353 57.576 158.8 58.8585 156.222 61.5536L159.113 64.3184C160.759 62.5975 163.158 61.576 166.787 61.576V57.576ZM156.198 61.5794C154.927 62.9564 153.728 64.6875 153.231 66.6749L157.112 67.6451C157.383 66.5605 158.104 65.4116 159.137 64.2926L156.198 61.5794Z" fill="white"/>
<path d="M172.995 118.704L173.859 131.088L177.027 131.376C180.579 131.76 183.555 131.28 185.955 129.648C188.259 128.208 189.411 125.904 189.411 122.736C189.411 119.952 188.547 117.84 186.915 116.688C185.187 115.536 182.883 115.152 179.907 115.152L175.587 115.536C173.667 115.632 172.899 116.784 172.995 118.704ZM174.339 136.272L175.395 152.304C175.587 154.608 174.531 155.664 172.515 155.376C170.979 155.184 170.211 154.032 170.019 151.824L167.715 118.8C167.139 113.808 169.347 111.12 173.859 110.64L179.811 110.16C184.131 109.776 187.587 110.832 190.467 112.944C193.251 115.152 194.787 118.32 194.787 122.736C194.787 127.056 192.963 130.608 189.603 133.2C186.243 135.984 181.827 137.136 176.355 136.368L174.339 136.272ZM220.63 134.16C220.63 132.048 220.054 130.224 218.998 128.496C217.846 126.864 216.118 126 213.814 126C210.358 126 207.478 128.016 205.27 131.76C202.966 135.696 201.91 139.824 201.91 144.432C201.91 148.08 203.638 149.712 207.19 149.712C209.974 149.712 212.854 148.08 216.022 144.336C219.094 140.688 220.63 137.328 220.63 134.16ZM207.19 154.8C199.99 154.8 196.534 151.44 196.534 144.432C196.534 138.768 198.07 133.488 201.142 128.496C204.214 123.6 208.438 120.912 213.814 120.912C217.654 120.912 220.63 122.352 222.742 124.848C224.854 127.536 226.102 130.608 226.102 134.16C226.102 138.864 223.894 143.376 219.862 147.984C215.734 152.592 211.51 154.8 207.19 154.8ZM240.46 148.368L242.859 148.752C246.892 149.424 250.156 148.752 252.556 146.64C254.859 144.528 256.012 141.648 256.012 137.904C256.012 130.416 253.516 126.576 248.14 126.576C243.052 126.576 240.46 129.936 240.46 136.56V148.368ZM235.084 136.56C235.084 126.576 239.404 121.488 248.14 121.488C256.972 121.488 261.484 127.056 261.484 138C261.292 143.28 259.564 147.408 256.3 150.48C252.844 153.744 248.428 154.896 242.764 153.744L240.46 153.456V166.608C240.46 168.72 239.5 169.776 237.772 169.776C235.948 169.776 235.084 168.72 235.084 166.512V136.56Z" fill="#A2A2A2"/>
<path d="M172.995 118.704L170.997 118.804L170.998 118.824L171 118.843L172.995 118.704ZM173.859 131.088L171.864 131.227L171.982 132.926L173.678 133.08L173.859 131.088ZM177.027 131.376L177.242 129.388L177.225 129.386L177.208 129.384L177.027 131.376ZM185.955 129.648L184.895 127.952L184.862 127.972L184.83 127.994L185.955 129.648ZM186.915 116.688L188.068 115.054L188.046 115.039L188.024 115.024L186.915 116.688ZM179.907 115.152V113.152H179.818L179.73 113.16L179.907 115.152ZM175.587 115.536L175.687 117.534L175.725 117.532L175.764 117.528L175.587 115.536ZM174.339 136.272L174.434 134.274L172.196 134.168L172.343 136.403L174.339 136.272ZM175.395 152.304L173.399 152.435L173.4 152.453L173.402 152.47L175.395 152.304ZM172.515 155.376L172.798 153.396L172.78 153.394L172.763 153.391L172.515 155.376ZM170.019 151.824L168.024 151.963L168.025 151.98L168.026 151.997L170.019 151.824ZM167.715 118.8L169.71 118.661L169.707 118.616L169.702 118.571L167.715 118.8ZM173.859 110.64L173.698 108.646L173.673 108.649L173.647 108.651L173.859 110.64ZM179.811 110.16L179.972 112.154L179.98 112.153L179.988 112.152L179.811 110.16ZM190.467 112.944L191.71 111.377L191.68 111.354L191.649 111.331L190.467 112.944ZM189.603 133.2L188.381 131.616L188.354 131.638L188.327 131.66L189.603 133.2ZM176.355 136.368L176.633 134.387L176.542 134.375L176.45 134.37L176.355 136.368ZM171 118.843L171.864 131.227L175.854 130.949L174.99 118.565L171 118.843ZM173.678 133.08L176.846 133.368L177.208 129.384L174.04 129.096L173.678 133.08ZM176.812 133.364C180.648 133.779 184.155 133.291 187.079 131.302L184.83 127.994C182.955 129.269 180.509 129.741 177.242 129.388L176.812 133.364ZM187.015 131.344C190.009 129.473 191.411 126.459 191.411 122.736H187.411C187.411 125.349 186.508 126.943 184.895 127.952L187.015 131.344ZM191.411 122.736C191.411 119.587 190.427 116.719 188.068 115.054L185.761 118.322C186.666 118.961 187.411 120.317 187.411 122.736H191.411ZM188.024 115.024C185.789 113.534 182.988 113.152 179.907 113.152V117.152C182.778 117.152 184.584 117.538 185.805 118.352L188.024 115.024ZM179.73 113.16L175.41 113.544L175.764 117.528L180.084 117.144L179.73 113.16ZM175.487 113.538C174.137 113.606 172.836 114.076 171.956 115.208C171.122 116.28 170.937 117.605 170.997 118.804L174.992 118.604C174.956 117.883 175.107 117.672 175.113 117.664C175.116 117.661 175.117 117.659 175.121 117.657C175.124 117.654 175.139 117.643 175.171 117.629C175.239 117.599 175.395 117.548 175.687 117.534L175.487 113.538ZM172.343 136.403L173.399 152.435L177.39 152.173L176.334 136.141L172.343 136.403ZM173.402 152.47C173.476 153.364 173.259 153.512 173.335 153.432C173.377 153.388 173.409 153.388 173.359 153.401C173.291 153.418 173.117 153.442 172.798 153.396L172.232 157.356C173.591 157.55 175.123 157.353 176.23 156.192C177.291 155.08 177.505 153.548 177.388 152.138L173.402 152.47ZM172.763 153.391C172.606 153.372 172.535 153.337 172.51 153.322C172.489 153.31 172.455 153.287 172.406 153.216C172.284 153.04 172.094 152.6 172.011 151.651L168.026 151.997C168.136 153.256 168.426 154.496 169.12 155.496C169.879 156.591 170.985 157.2 172.267 157.361L172.763 153.391ZM172.014 151.685L169.71 118.661L165.72 118.939L168.024 151.963L172.014 151.685ZM169.702 118.571C169.449 116.378 169.848 115.048 170.463 114.248C171.068 113.463 172.157 112.832 174.07 112.629L173.647 108.651C171.049 108.928 168.777 109.881 167.294 111.808C165.822 113.72 165.405 116.23 165.728 119.029L169.702 118.571ZM174.02 112.634L179.972 112.154L179.65 108.166L173.698 108.646L174.02 112.634ZM179.988 112.152C183.842 111.81 186.811 112.743 189.284 114.557L191.649 111.331C188.363 108.921 184.42 107.742 179.634 108.168L179.988 112.152ZM189.224 114.511C191.471 116.294 192.787 118.852 192.787 122.736H196.787C196.787 117.788 195.03 114.01 191.71 111.377L189.224 114.511ZM192.787 122.736C192.787 126.416 191.266 129.391 188.381 131.616L190.824 134.784C194.659 131.825 196.787 127.696 196.787 122.736H192.787ZM188.327 131.66C185.478 134.02 181.657 135.093 176.633 134.387L176.077 138.349C181.996 139.179 187.007 137.948 190.879 134.74L188.327 131.66ZM176.45 134.37L174.434 134.274L174.244 138.27L176.26 138.366L176.45 134.37ZM218.998 128.496L220.705 127.453L220.67 127.397L220.632 127.343L218.998 128.496ZM205.27 131.76L203.548 130.744L203.544 130.75L205.27 131.76ZM216.022 144.336L217.549 145.628L217.552 145.624L216.022 144.336ZM201.142 128.496L199.448 127.433L199.443 127.44L199.439 127.448L201.142 128.496ZM222.742 124.848L224.315 123.612L224.292 123.584L224.269 123.556L222.742 124.848ZM219.862 147.984L221.352 149.318L221.36 149.31L221.367 149.301L219.862 147.984ZM222.63 134.16C222.63 131.646 221.934 129.465 220.705 127.453L217.292 129.539C218.174 130.983 218.63 132.45 218.63 134.16H222.63ZM220.632 127.343C219.062 125.118 216.689 124 213.814 124V128C215.547 128 216.63 128.61 217.364 129.649L220.632 127.343ZM213.814 124C209.426 124 205.984 126.612 203.548 130.744L206.993 132.776C208.972 129.42 211.291 128 213.814 128V124ZM203.544 130.75C201.05 135.01 199.91 139.491 199.91 144.432H203.91C203.91 140.157 204.882 136.382 206.996 132.77L203.544 130.75ZM199.91 144.432C199.91 146.536 200.407 148.477 201.814 149.864C203.215 151.246 205.148 151.712 207.19 151.712V147.712C205.681 147.712 204.973 147.362 204.623 147.016C204.277 146.675 203.91 145.976 203.91 144.432H199.91ZM207.19 151.712C210.836 151.712 214.222 149.559 217.549 145.628L214.495 143.044C211.486 146.601 209.113 147.712 207.19 147.712V151.712ZM217.552 145.624C220.774 141.798 222.63 137.993 222.63 134.16H218.63C218.63 136.663 217.414 139.578 214.492 143.048L217.552 145.624ZM207.19 152.8C203.864 152.8 201.802 152.021 200.557 150.81C199.323 149.61 198.534 147.635 198.534 144.432H194.534C194.534 148.237 195.474 151.446 197.768 153.678C200.051 155.899 203.316 156.8 207.19 156.8V152.8ZM198.534 144.432C198.534 139.155 199.959 134.235 202.846 129.544L199.439 127.448C196.182 132.741 194.534 138.381 194.534 144.432H198.534ZM202.836 129.559C205.611 125.136 209.247 122.912 213.814 122.912V118.912C207.63 118.912 202.817 122.064 199.448 127.433L202.836 129.559ZM213.814 122.912C217.096 122.912 219.502 124.115 221.215 126.14L224.269 123.556C221.758 120.589 218.213 118.912 213.814 118.912V122.912ZM221.17 126.084C223.047 128.473 224.102 131.119 224.102 134.16H228.102C228.102 130.097 226.662 126.599 224.315 123.612L221.17 126.084ZM224.102 134.16C224.102 138.194 222.219 142.254 218.357 146.667L221.367 149.301C225.57 144.498 228.102 139.534 228.102 134.16H224.102ZM218.373 146.65C214.476 150.999 210.752 152.8 207.19 152.8V156.8C212.268 156.8 216.992 154.185 221.352 149.318L218.373 146.65ZM240.46 148.368H238.46V150.073L240.144 150.343L240.46 148.368ZM242.859 148.752L243.188 146.779L243.175 146.777L242.859 148.752ZM252.555 146.64L253.877 148.141L253.892 148.128L253.907 148.114L252.555 146.64ZM261.484 138L263.482 138.073L263.484 138.036V138H261.484ZM256.299 150.48L254.929 149.024L254.926 149.026L256.299 150.48ZM242.764 153.744L243.162 151.784L243.087 151.769L243.012 151.759L242.764 153.744ZM240.46 153.456L240.708 151.471L238.46 151.19V153.456H240.46ZM240.144 150.343L242.544 150.727L243.175 146.777L240.775 146.393L240.144 150.343ZM242.531 150.725C246.948 151.461 250.888 150.771 253.877 148.141L251.234 145.139C249.423 146.733 246.835 147.387 243.188 146.779L242.531 150.725ZM253.907 148.114C256.7 145.554 258.012 142.097 258.012 137.904H254.012C254.012 141.199 253.019 143.502 251.204 145.166L253.907 148.114ZM258.012 137.904C258.012 134.004 257.374 130.69 255.743 128.303C254.014 125.774 251.374 124.576 248.139 124.576V128.576C250.281 128.576 251.577 129.298 252.44 130.561C253.401 131.966 254.012 134.316 254.012 137.904H258.012ZM248.139 124.576C245.117 124.576 242.548 125.602 240.807 127.864C239.139 130.03 238.46 133.04 238.46 136.56H242.46C242.46 133.456 243.076 131.474 243.976 130.304C244.803 129.23 246.074 128.576 248.139 128.576V124.576ZM238.46 136.56V148.368H242.46V136.56H238.46ZM237.084 136.56C237.084 131.811 238.117 128.597 239.85 126.586C241.535 124.631 244.166 123.488 248.139 123.488V119.488C243.377 119.488 239.48 120.889 236.821 123.974C234.21 127.003 233.084 131.325 233.084 136.56H237.084ZM248.139 123.488C252.11 123.488 254.806 124.718 256.568 126.898C258.394 129.156 259.484 132.754 259.484 138H263.484C263.484 132.302 262.317 127.644 259.679 124.382C256.977 121.042 253.001 119.488 248.139 119.488V123.488ZM259.485 137.927C259.309 142.776 257.746 146.372 254.929 149.024L257.67 151.936C261.381 148.444 263.274 143.784 263.482 138.073L259.485 137.927ZM254.926 149.026C252.021 151.77 248.301 152.829 243.162 151.784L242.365 155.704C248.554 156.963 253.666 155.718 257.673 151.934L254.926 149.026ZM243.012 151.759L240.708 151.471L240.211 155.441L242.515 155.729L243.012 151.759ZM238.46 153.456V166.608H242.46V153.456H238.46ZM238.46 166.608C238.46 167.398 238.276 167.647 238.25 167.677C238.241 167.688 238.229 167.701 238.184 167.719C238.129 167.74 238.003 167.776 237.771 167.776V171.776C239.056 171.776 240.348 171.368 241.277 170.291C242.163 169.265 242.46 167.93 242.46 166.608H238.46ZM237.771 167.776C237.503 167.776 237.368 167.737 237.318 167.717C237.294 167.707 237.287 167.702 237.289 167.703C237.291 167.705 237.292 167.706 237.288 167.702C237.27 167.68 237.084 167.414 237.084 166.512H233.084C233.084 167.818 233.329 169.184 234.199 170.242C235.135 171.381 236.465 171.776 237.771 171.776V167.776ZM237.084 166.512V136.56H233.084V166.512H237.084Z" fill="#A2A2A2"/>
<path d="M170.995 116.704L171.859 129.088L175.027 129.376C178.579 129.76 181.555 129.28 183.955 127.648C186.259 126.208 187.411 123.904 187.411 120.736C187.411 117.952 186.547 115.84 184.915 114.688C183.187 113.536 180.883 113.152 177.907 113.152L173.587 113.536C171.667 113.632 170.899 114.784 170.995 116.704ZM172.339 134.272L173.395 150.304C173.587 152.608 172.531 153.664 170.515 153.376C168.979 153.184 168.211 152.032 168.019 149.824L165.715 116.8C165.139 111.808 167.347 109.12 171.859 108.64L177.811 108.16C182.131 107.776 185.587 108.832 188.467 110.944C191.251 113.152 192.787 116.32 192.787 120.736C192.787 125.056 190.963 128.608 187.603 131.2C184.243 133.984 179.827 135.136 174.355 134.368L172.339 134.272ZM218.63 132.16C218.63 130.048 218.054 128.224 216.998 126.496C215.846 124.864 214.118 124 211.814 124C208.358 124 205.478 126.016 203.27 129.76C200.966 133.696 199.91 137.824 199.91 142.432C199.91 146.08 201.638 147.712 205.19 147.712C207.974 147.712 210.854 146.08 214.022 142.336C217.094 138.688 218.63 135.328 218.63 132.16ZM205.19 152.8C197.99 152.8 194.534 149.44 194.534 142.432C194.534 136.768 196.07 131.488 199.142 126.496C202.214 121.6 206.438 118.912 211.814 118.912C215.654 118.912 218.63 120.352 220.742 122.848C222.854 125.536 224.102 128.608 224.102 132.16C224.102 136.864 221.894 141.376 217.862 145.984C213.734 150.592 209.51 152.8 205.19 152.8ZM238.46 146.368L240.859 146.752C244.892 147.424 248.156 146.752 250.556 144.64C252.859 142.528 254.012 139.648 254.012 135.904C254.012 128.416 251.516 124.576 246.14 124.576C241.052 124.576 238.46 127.936 238.46 134.56V146.368ZM233.084 134.56C233.084 124.576 237.404 119.488 246.14 119.488C254.972 119.488 259.484 125.056 259.484 136C259.292 141.28 257.564 145.408 254.3 148.48C250.844 151.744 246.428 152.896 240.764 151.744L238.46 151.456V164.608C238.46 166.72 237.5 167.776 235.772 167.776C233.948 167.776 233.084 166.72 233.084 164.512V134.56Z" fill="white"/>
<path d="M170.995 116.704L168.997 116.804L168.998 116.824L169 116.843L170.995 116.704ZM171.859 129.088L169.864 129.227L169.982 130.926L171.678 131.08L171.859 129.088ZM175.027 129.376L175.242 127.388L175.225 127.386L175.208 127.384L175.027 129.376ZM183.955 127.648L182.895 125.952L182.862 125.972L182.83 125.994L183.955 127.648ZM184.915 114.688L186.068 113.054L186.046 113.039L186.024 113.024L184.915 114.688ZM177.907 113.152V111.152H177.818L177.73 111.16L177.907 113.152ZM173.587 113.536L173.687 115.534L173.725 115.532L173.764 115.528L173.587 113.536ZM172.339 134.272L172.434 132.274L170.196 132.168L170.343 134.403L172.339 134.272ZM173.395 150.304L171.399 150.435L171.4 150.453L171.402 150.47L173.395 150.304ZM170.515 153.376L170.798 151.396L170.78 151.394L170.763 151.391L170.515 153.376ZM168.019 149.824L166.024 149.963L166.025 149.98L166.026 149.997L168.019 149.824ZM165.715 116.8L167.71 116.661L167.707 116.616L167.702 116.571L165.715 116.8ZM171.859 108.64L171.698 106.646L171.673 106.649L171.647 106.651L171.859 108.64ZM177.811 108.16L177.972 110.154L177.98 110.153L177.988 110.152L177.811 108.16ZM188.467 110.944L189.71 109.377L189.68 109.354L189.649 109.331L188.467 110.944ZM187.603 131.2L186.381 129.616L186.354 129.638L186.327 129.66L187.603 131.2ZM174.355 134.368L174.633 132.387L174.542 132.375L174.45 132.37L174.355 134.368ZM169 116.843L169.864 129.227L173.854 128.949L172.99 116.565L169 116.843ZM171.678 131.08L174.846 131.368L175.208 127.384L172.04 127.096L171.678 131.08ZM174.812 131.364C178.648 131.779 182.155 131.291 185.079 129.302L182.83 125.994C180.955 127.269 178.509 127.741 175.242 127.388L174.812 131.364ZM185.015 129.344C188.009 127.473 189.411 124.459 189.411 120.736H185.411C185.411 123.349 184.508 124.943 182.895 125.952L185.015 129.344ZM189.411 120.736C189.411 117.587 188.427 114.719 186.068 113.054L183.761 116.322C184.666 116.961 185.411 118.317 185.411 120.736H189.411ZM186.024 113.024C183.789 111.534 180.988 111.152 177.907 111.152V115.152C180.778 115.152 182.584 115.538 183.805 116.352L186.024 113.024ZM177.73 111.16L173.41 111.544L173.764 115.528L178.084 115.144L177.73 111.16ZM173.487 111.538C172.137 111.606 170.836 112.076 169.956 113.208C169.122 114.28 168.937 115.605 168.997 116.804L172.992 116.604C172.956 115.883 173.107 115.672 173.113 115.664C173.116 115.661 173.117 115.659 173.121 115.657C173.124 115.654 173.139 115.643 173.171 115.629C173.239 115.599 173.395 115.548 173.687 115.534L173.487 111.538ZM170.343 134.403L171.399 150.435L175.39 150.173L174.334 134.141L170.343 134.403ZM171.402 150.47C171.476 151.364 171.259 151.512 171.335 151.432C171.377 151.388 171.409 151.388 171.359 151.401C171.291 151.418 171.117 151.442 170.798 151.396L170.232 155.356C171.591 155.55 173.123 155.353 174.23 154.192C175.291 153.08 175.505 151.548 175.388 150.138L171.402 150.47ZM170.763 151.391C170.606 151.372 170.535 151.337 170.51 151.322C170.489 151.31 170.455 151.287 170.406 151.216C170.284 151.04 170.094 150.6 170.011 149.651L166.026 149.997C166.136 151.256 166.426 152.496 167.12 153.496C167.879 154.591 168.985 155.2 170.267 155.361L170.763 151.391ZM170.014 149.685L167.71 116.661L163.72 116.939L166.024 149.963L170.014 149.685ZM167.702 116.571C167.449 114.378 167.848 113.048 168.463 112.248C169.068 111.463 170.157 110.832 172.07 110.629L171.647 106.651C169.049 106.928 166.777 107.881 165.294 109.808C163.822 111.72 163.405 114.23 163.728 117.029L167.702 116.571ZM172.02 110.634L177.972 110.154L177.65 106.166L171.698 106.646L172.02 110.634ZM177.988 110.152C181.842 109.81 184.811 110.743 187.284 112.557L189.649 109.331C186.363 106.921 182.42 105.742 177.634 106.168L177.988 110.152ZM187.224 112.511C189.471 114.294 190.787 116.852 190.787 120.736H194.787C194.787 115.788 193.03 112.01 189.71 109.377L187.224 112.511ZM190.787 120.736C190.787 124.416 189.266 127.391 186.381 129.616L188.824 132.784C192.659 129.825 194.787 125.696 194.787 120.736H190.787ZM186.327 129.66C183.478 132.02 179.657 133.093 174.633 132.387L174.077 136.349C179.996 137.179 185.007 135.948 188.879 132.74L186.327 129.66ZM174.45 132.37L172.434 132.274L172.244 136.27L174.26 136.366L174.45 132.37ZM216.998 126.496L218.705 125.453L218.67 125.397L218.632 125.343L216.998 126.496ZM203.27 129.76L201.548 128.744L201.544 128.75L203.27 129.76ZM214.022 142.336L215.549 143.628L215.552 143.624L214.022 142.336ZM199.142 126.496L197.448 125.433L197.443 125.44L197.439 125.448L199.142 126.496ZM220.742 122.848L222.315 121.612L222.292 121.584L222.269 121.556L220.742 122.848ZM217.862 145.984L219.352 147.318L219.36 147.31L219.367 147.301L217.862 145.984ZM220.63 132.16C220.63 129.646 219.934 127.465 218.705 125.453L215.292 127.539C216.174 128.983 216.63 130.45 216.63 132.16H220.63ZM218.632 125.343C217.062 123.118 214.689 122 211.814 122V126C213.547 126 214.63 126.61 215.364 127.649L218.632 125.343ZM211.814 122C207.426 122 203.984 124.612 201.548 128.744L204.993 130.776C206.972 127.42 209.291 126 211.814 126V122ZM201.544 128.75C199.05 133.01 197.91 137.491 197.91 142.432H201.91C201.91 138.157 202.882 134.382 204.996 130.77L201.544 128.75ZM197.91 142.432C197.91 144.536 198.407 146.477 199.814 147.864C201.215 149.246 203.148 149.712 205.19 149.712V145.712C203.681 145.712 202.973 145.362 202.623 145.016C202.277 144.675 201.91 143.976 201.91 142.432H197.91ZM205.19 149.712C208.836 149.712 212.222 147.559 215.549 143.628L212.495 141.044C209.486 144.601 207.113 145.712 205.19 145.712V149.712ZM215.552 143.624C218.774 139.798 220.63 135.993 220.63 132.16H216.63C216.63 134.663 215.414 137.578 212.492 141.048L215.552 143.624ZM205.19 150.8C201.864 150.8 199.802 150.021 198.557 148.81C197.323 147.61 196.534 145.635 196.534 142.432H192.534C192.534 146.237 193.474 149.446 195.768 151.678C198.051 153.899 201.316 154.8 205.19 154.8V150.8ZM196.534 142.432C196.534 137.155 197.959 132.235 200.846 127.544L197.439 125.448C194.182 130.741 192.534 136.381 192.534 142.432H196.534ZM200.836 127.559C203.611 123.136 207.247 120.912 211.814 120.912V116.912C205.63 116.912 200.817 120.064 197.448 125.433L200.836 127.559ZM211.814 120.912C215.096 120.912 217.502 122.115 219.215 124.14L222.269 121.556C219.758 118.589 216.213 116.912 211.814 116.912V120.912ZM219.17 124.084C221.047 126.473 222.102 129.119 222.102 132.16H226.102C226.102 128.097 224.662 124.599 222.315 121.612L219.17 124.084ZM222.102 132.16C222.102 136.194 220.219 140.254 216.357 144.667L219.367 147.301C223.57 142.498 226.102 137.534 226.102 132.16H222.102ZM216.373 144.65C212.476 148.999 208.752 150.8 205.19 150.8V154.8C210.268 154.8 214.992 152.185 219.352 147.318L216.373 144.65ZM238.46 146.368H236.46V148.073L238.144 148.343L238.46 146.368ZM240.859 146.752L241.188 144.779L241.175 144.777L240.859 146.752ZM250.555 144.64L251.877 146.141L251.892 146.128L251.907 146.114L250.555 144.64ZM259.484 136L261.482 136.073L261.484 136.036V136H259.484ZM254.299 148.48L252.929 147.024L252.926 147.026L254.299 148.48ZM240.764 151.744L241.162 149.784L241.087 149.769L241.012 149.759L240.764 151.744ZM238.46 151.456L238.708 149.471L236.46 149.19V151.456H238.46ZM238.144 148.343L240.544 148.727L241.175 144.777L238.775 144.393L238.144 148.343ZM240.531 148.725C244.948 149.461 248.888 148.771 251.877 146.141L249.234 143.139C247.423 144.733 244.835 145.387 241.188 144.779L240.531 148.725ZM251.907 146.114C254.7 143.554 256.012 140.097 256.012 135.904H252.012C252.012 139.199 251.019 141.502 249.204 143.166L251.907 146.114ZM256.012 135.904C256.012 132.004 255.374 128.69 253.743 126.303C252.014 123.774 249.374 122.576 246.139 122.576V126.576C248.281 126.576 249.577 127.298 250.44 128.561C251.401 129.966 252.012 132.316 252.012 135.904H256.012ZM246.139 122.576C243.117 122.576 240.548 123.602 238.807 125.864C237.139 128.03 236.46 131.04 236.46 134.56H240.46C240.46 131.456 241.076 129.474 241.976 128.304C242.803 127.23 244.074 126.576 246.139 126.576V122.576ZM236.46 134.56V146.368H240.46V134.56H236.46ZM235.084 134.56C235.084 129.811 236.117 126.597 237.85 124.586C239.535 122.631 242.166 121.488 246.139 121.488V117.488C241.377 117.488 237.48 118.889 234.821 121.974C232.21 125.003 231.084 129.325 231.084 134.56H235.084ZM246.139 121.488C250.11 121.488 252.806 122.718 254.568 124.898C256.394 127.156 257.484 130.754 257.484 136H261.484C261.484 130.302 260.317 125.644 257.679 122.382C254.977 119.042 251.001 117.488 246.139 117.488V121.488ZM257.485 135.927C257.309 140.776 255.746 144.372 252.929 147.024L255.67 149.936C259.381 146.444 261.274 141.784 261.482 136.073L257.485 135.927ZM252.926 147.026C250.021 149.77 246.301 150.829 241.162 149.784L240.365 153.704C246.554 154.963 251.666 153.718 255.673 149.934L252.926 147.026ZM241.012 149.759L238.708 149.471L238.211 153.441L240.515 153.729L241.012 149.759ZM236.46 151.456V164.608H240.46V151.456H236.46ZM236.46 164.608C236.46 165.398 236.276 165.647 236.25 165.677C236.241 165.688 236.229 165.701 236.184 165.719C236.129 165.74 236.003 165.776 235.771 165.776V169.776C237.056 169.776 238.348 169.368 239.277 168.291C240.163 167.265 240.46 165.93 240.46 164.608H236.46ZM235.771 165.776C235.503 165.776 235.368 165.737 235.318 165.717C235.294 165.707 235.287 165.702 235.289 165.703C235.291 165.705 235.292 165.706 235.288 165.702C235.27 165.68 235.084 165.414 235.084 164.512H231.084C231.084 165.818 231.329 167.184 232.199 168.242C233.135 169.381 234.465 169.776 235.771 169.776V165.776ZM235.084 164.512V134.56H231.084V164.512H235.084Z" fill="white"/>
<path d="M138 154C149.046 154 158 146.613 158 137.5C158 131.058 153.525 125.701 147 122.984L143.5 124.5L144 130L137.5 128L131 130V124.5L128 122.984C122.022 125.837 118 131.393 118 137.5C118 146.613 126.954 154 138 154Z" stroke="#A2A2A2" stroke-width="4" stroke-linecap="round" stroke-linejoin="round"/>
<path d="M137.5 114L141.309 119.117L150 119.91L143.663 124.483L145.5 131L137.5 128L129.5 131L131.337 124.483L125 119.91L133.691 119.117L137.5 114Z" stroke="#A2A2A2" stroke-width="4" stroke-linecap="round" stroke-linejoin="round"/>
<path d="M136 152C147.046 152 156 144.613 156 135.5C156 129.058 151.525 123.701 145 120.984L141.5 122.5L142 128L135.5 126L129 128V122.5L126 120.984C120.022 123.837 116 129.393 116 135.5C116 144.613 124.954 152 136 152Z" stroke="white" stroke-width="4" stroke-linecap="round" stroke-linejoin="round"/>
<path d="M135.5 112L139.309 117.117L148 117.91L141.663 122.483L143.5 129L135.5 126L127.5 129L129.337 122.483L123 117.91L131.691 117.117L135.5 112Z" stroke="white" stroke-width="4" stroke-linecap="round" stroke-linejoin="round"/>
</svg>
