<svg width="35" height="35" viewBox="0 0 35 35" fill="none" xmlns="http://www.w3.org/2000/svg">
<rect width="35" height="35" rx="5" fill="#F3F4F6"/>
<path d="M9.47266 26.8262C8.45052 26.8262 7.68229 26.5723 7.16797 26.0645C6.66016 25.5632 6.40625 24.8079 6.40625 23.7988V11.8945C6.40625 10.9115 6.64062 10.1758 7.10938 9.6875C7.57812 9.19922 8.24219 8.95508 9.10156 8.95508H11.8848C12.2038 8.95508 12.4805 8.97786 12.7148 9.02344C12.9557 9.06901 13.1738 9.14388 13.3691 9.24805C13.571 9.35221 13.7793 9.49544 13.9941 9.67773L14.5898 10.166C14.8372 10.3743 15.0749 10.5241 15.3027 10.6152C15.5306 10.6999 15.8105 10.7422 16.1426 10.7422H25.5176C26.5332 10.7422 27.2982 10.9961 27.8125 11.5039C28.3268 12.0117 28.584 12.7669 28.584 13.7695V23.7988C28.584 24.8079 28.3398 25.5632 27.8516 26.0645C27.3633 26.5723 26.6829 26.8262 25.8105 26.8262H9.47266ZM9.49219 25.2539H25.4883C25.9701 25.2539 26.3444 25.127 26.6113 24.873C26.8783 24.6126 27.0117 24.2318 27.0117 23.7305V13.8574C27.0117 13.3496 26.8783 12.9655 26.6113 12.7051C26.3444 12.4447 25.9701 12.3145 25.4883 12.3145H15.7324C15.4134 12.3145 15.1335 12.2917 14.8926 12.2461C14.6517 12.2005 14.4303 12.1257 14.2285 12.0215C14.0267 11.9173 13.8216 11.7773 13.6133 11.6016L13.0176 11.1035C12.7702 10.8952 12.5326 10.7454 12.3047 10.6543C12.0833 10.5632 11.8099 10.5176 11.4844 10.5176H9.42383C8.95508 10.5176 8.59701 10.6413 8.34961 10.8887C8.10221 11.1361 7.97852 11.5007 7.97852 11.9824V23.7207C7.97852 24.2285 8.10872 24.6126 8.36914 24.873C8.62956 25.127 9.00391 25.2539 9.49219 25.2539ZM7.36328 15.8887V14.4141H27.6172V15.8887H7.36328Z" fill="black"/>
</svg>
