<svg width="35" height="35" viewBox="0 0 35 35" fill="none" xmlns="http://www.w3.org/2000/svg">
<rect width="35" height="35" rx="5" fill="#F3F4F6"/>
<g clip-path="url(#clip0_1577_70)">
<path d="M8.15234 31.0352V9.49609C8.15234 8.77734 8.375 8.19922 8.82031 7.76172C9.27344 7.32422 9.86719 7.10547 10.6016 7.10547H23.5625C24.2969 7.10547 24.8867 7.32422 25.332 7.76172C25.7852 8.19922 26.0117 8.77734 26.0117 9.49609V31.0352C26.0117 31.293 25.918 31.5117 25.7305 31.6914C25.5508 31.8789 25.332 31.9727 25.0742 31.9727C24.8086 31.9727 24.582 31.8789 24.3945 31.6914C24.2148 31.5117 24.125 31.293 24.125 31.0352V9.61328C24.125 9.19922 23.9258 8.99219 23.5273 8.99219H10.6367C10.2383 8.99219 10.0391 9.19922 10.0391 9.61328V31.0352C10.0391 31.293 9.94531 31.5117 9.75781 31.6914C9.57812 31.8789 9.35547 31.9727 9.08984 31.9727C8.83203 31.9727 8.60938 31.8789 8.42188 31.6914C8.24219 31.5117 8.15234 31.293 8.15234 31.0352ZM11.4102 31.3047V10.6094C11.4102 10.4922 11.4492 10.4102 11.5273 10.3633C11.6133 10.3086 11.7109 10.3047 11.8203 10.3516L15.5117 11.9922C15.6523 12.0547 15.7539 12.1211 15.8164 12.1914C15.8789 12.2539 15.9102 12.3594 15.9102 12.5078V29.3945C15.9102 29.543 15.8789 29.6523 15.8164 29.7227C15.7539 29.793 15.6484 29.8594 15.5 29.9219L11.8203 31.5508C11.7109 31.5977 11.6133 31.5938 11.5273 31.5391C11.4492 31.4922 11.4102 31.4141 11.4102 31.3047Z" fill="black"/>
</g>
<defs>
<clipPath id="clip0_1577_70">
<rect width="24" height="24" fill="white" transform="translate(5 5)"/>
</clipPath>
</defs>
</svg>
